<svg width="191" height="120" viewBox="0 0 191 120" fill="none" xmlns="http://www.w3.org/2000/svg">
<g opacity="0.2">
<path d="M73.9571 20.7002C84.5433 26.8094 87.0021 34.9062 76.211 41.1713C68.2298 45.7995 59.2633 45.6436 49.3893 44.8056L33.9247 43.4513L52.4725 54.1497L41.3301 60.6194L5.89319 40.1775L16.694 33.9124L49.9552 35.9098C55.1361 36.1924 59.0584 36.3873 62.5123 34.5555C67.0493 32.1586 66.2687 29.1673 62.6684 27.092C58.6583 24.7827 53.0677 24.812 48.5307 27.3648L37.0469 20.7392C49.0088 13.7921 63.7124 14.7957 73.9571 20.7002Z" fill="white"/>
<path d="M132.225 55.1043L122.049 61.0089L100.866 48.8002L92.534 51.8792C95.2952 52.191 98.5443 53.1946 102.349 55.3966C112.594 61.3012 113.121 69.4857 102.603 75.5851C91.051 82.2887 75.6546 81.2169 64.5806 74.8251C54.7554 69.1544 50.7063 60.6971 62.8731 53.633L74.1521 60.1417C69.7517 62.6945 69.8395 66.0852 74.2692 68.6478C78.6988 71.2103 84.9041 71.2006 89.6557 68.4432C94.4073 65.6857 94.7976 62.0222 90.2216 59.3817C85.6457 56.7412 79.9964 57.1504 77.5963 58.1443L66.5222 51.7623L101.832 37.5952L132.215 55.114L132.225 55.1043Z" fill="white"/>
<path d="M151.631 82.4892C142.899 87.5558 131.854 87.8773 124.312 83.5317C116.77 79.1861 117.287 72.7944 126.02 67.7278C134.752 62.6612 145.865 62.3006 153.407 66.6463C160.949 70.9919 160.364 77.4226 151.631 82.4892ZM135.494 73.1841C132.742 74.7821 129.854 77.0133 132.703 78.6502C135.552 80.2872 139.387 78.6113 142.148 77.0133C144.909 75.4154 147.787 73.1841 144.948 71.5472C142.109 69.9103 138.245 71.5862 135.503 73.1841" fill="white"/>
<path d="M180.814 83.2461L190.854 89.0337L109.365 99.966L99.2566 94.1393L180.814 83.2461Z" fill="white"/>
<path d="M165.73 99.6149C173.272 103.961 172.696 110.391 163.964 115.458C155.232 120.525 144.187 120.846 136.645 116.5C129.103 112.155 129.61 105.763 138.352 100.696C147.094 95.6299 158.188 95.2693 165.73 99.6247V99.6149ZM145.036 111.629C147.875 113.266 151.719 111.59 154.48 109.992C157.242 108.394 160.11 106.163 157.271 104.526C154.432 102.889 150.578 104.565 147.826 106.153C145.075 107.741 142.187 109.982 145.036 111.619" fill="white"/>
</g>
<path d="M42.6765 11.7721L42.6375 25.2766L31.1439 18.651L31.1829 5.14648L42.6765 11.7721Z" fill="#1D974F"/>
<mask id="mask0_1_3028" style="mask-type:luminance" maskUnits="userSpaceOnUse" x="42" y="9" width="18" height="20">
<path d="M59.7901 15.26L59.7511 28.7645C59.7511 27.4004 58.6485 26.0753 56.7752 24.9937C52.7651 22.6845 47.1745 22.7138 42.6375 25.2666L42.6765 11.7621C47.2135 9.20926 52.8042 9.17029 56.8142 11.4892C58.6876 12.5708 59.7998 13.8959 59.7901 15.26Z" fill="white"/>
</mask>
<g mask="url(#mask0_1_3028)">
<path d="M59.7901 15.26L59.7511 28.7645C59.7511 27.4004 58.6485 26.0753 56.7752 24.9937C52.7651 22.6845 47.1745 22.7138 42.6375 25.2666L42.6765 11.7621C47.2135 9.20926 52.8042 9.17029 56.8142 11.4892C58.6876 12.5708 59.7998 13.8959 59.7901 15.26Z" fill="#33B568"/>
</g>
<path d="M43.5254 29.2127L43.4864 42.7172L28.0315 41.3629L28.0705 27.8584L43.5254 29.2127Z" fill="#33B568"/>
<mask id="mask1_1_3028" style="mask-type:luminance" maskUnits="userSpaceOnUse" x="43" y="16" width="35" height="28">
<path d="M77.3427 16.4683L77.3037 29.9728C77.3037 33.1491 75.1181 36.2963 70.3178 39.0829C62.3366 43.7111 53.3701 43.5552 43.4961 42.7173L43.5351 29.2128C53.4091 30.0507 62.3757 30.2066 70.3568 25.5784C75.1572 22.7918 77.3329 19.6446 77.3427 16.4683Z" fill="white"/>
</mask>
<g mask="url(#mask1_1_3028)">
<path d="M77.3427 16.4683L77.3037 29.9728C77.3037 33.1491 75.1181 36.2963 70.3178 39.0829C62.3366 43.7111 53.3701 43.5552 43.4961 42.7173L43.5351 29.2128C53.4091 30.0507 62.3757 30.2066 70.3568 25.5784C75.1572 22.7918 77.3329 19.6446 77.3427 16.4683Z" fill="#33B568"/>
</g>
<path d="M46.6183 38.5566L46.5793 52.0611L35.437 58.5211L35.476 45.0166L46.6183 38.5566Z" fill="#33B568"/>
<path d="M35.476 45.0166L35.4369 58.5211L0 38.089L0.0390275 24.5845L35.476 45.0166Z" fill="#1D974F"/>
<path d="M68.103 5.11037C78.6892 11.2195 81.1479 19.3164 70.3568 25.5815C62.3757 30.2096 53.4091 30.0537 43.5352 29.2158L28.0706 27.8615L46.6184 38.5598L35.476 45.0295L0.0390625 24.5876L10.8399 18.3226L44.1011 20.32C49.282 20.6025 53.2042 20.7974 56.6582 18.9656C61.1951 16.5687 60.4146 13.5775 56.8143 11.5021C52.8042 9.1929 47.2135 9.22213 42.6766 11.7749L31.1927 5.14935C43.1547 -1.79777 57.8583 -0.794191 68.103 5.11037Z" fill="url(#paint0_linear_1_3028)"/>
<path d="M95.0222 33.2075L94.9831 46.7023L86.6508 49.7812L86.6898 36.2767L95.0222 33.2075Z" fill="#27A65A"/>
<path d="M71.752 42.5417L71.713 56.0462L60.6389 49.6544L60.678 36.1597L71.752 42.5417Z" fill="#1D974F"/>
<path d="M116.195 45.4161L116.165 58.9206L94.9831 46.7023L95.0222 33.2075L116.195 45.4161Z" fill="#1D974F"/>
<path d="M126.371 39.5112L126.332 53.0157L116.165 58.9203L116.195 45.4158L126.371 39.5112Z" fill="#33B568"/>
<mask id="mask2_1_3028" style="mask-type:luminance" maskUnits="userSpaceOnUse" x="71" y="41" width="17" height="21">
<path d="M87.5972 48.0273L87.5582 61.5318C87.5582 60.0215 86.5142 58.5405 84.3384 57.2836C79.9088 54.7308 74.1132 55.0524 71.713 56.0462L71.752 42.5417C74.162 41.5479 79.9576 41.2263 84.3774 43.7791C86.5532 45.036 87.5972 46.517 87.5972 48.0273Z" fill="white"/>
</mask>
<g mask="url(#mask2_1_3028)">
<path d="M87.5972 48.0273L87.5582 61.5318C87.5582 60.0215 86.5142 58.5405 84.3384 57.2836C79.9088 54.7308 74.1132 55.0524 71.713 56.0462L71.752 42.5417C74.162 41.5479 79.9576 41.2263 84.3774 43.7791C86.5532 45.036 87.5972 46.517 87.5972 48.0273Z" fill="#26A258"/>
</g>
<mask id="mask3_1_3028" style="mask-type:luminance" maskUnits="userSpaceOnUse" x="65" y="44" width="4" height="19">
<path d="M65.0198 62.2333L65.0588 48.7288C65.0588 47.2575 66.1418 45.796 68.3078 44.5391L68.2688 58.0436C66.1028 59.3005 65.0198 60.7717 65.0198 62.2333Z" fill="white"/>
</mask>
<g mask="url(#mask3_1_3028)">
<path d="M68.3078 44.5391L68.2688 58.0436C66.1028 59.3005 65.0198 60.7717 65.0198 62.2333L65.0588 48.7288C65.0588 47.2575 66.1418 45.796 68.3078 44.5391Z" fill="#26A258"/>
</g>
<mask id="mask4_1_3028" style="mask-type:luminance" maskUnits="userSpaceOnUse" x="49" y="47" width="56" height="32">
<path d="M104.428 50.0343L104.389 63.5388C104.379 67.0172 101.881 70.4956 96.7296 73.4869C85.1775 80.1904 69.7811 79.1186 58.7071 72.7269C53.1554 69.531 49.4576 65.4387 49.4673 61.2101L49.5064 47.7056C49.4966 51.9342 53.2042 56.0168 58.7461 59.2224C69.8202 65.6044 85.2165 66.6859 96.7686 59.9824C101.92 56.9911 104.418 53.503 104.428 50.0343Z" fill="white"/>
</mask>
<g mask="url(#mask4_1_3028)">
<path d="M104.428 50.0343L104.389 63.5388C104.379 67.0172 101.881 70.4956 96.7296 73.4869C85.1775 80.1904 69.7811 79.1186 58.7071 72.7269C53.1554 69.531 49.4576 65.4387 49.4673 61.2101L49.5064 47.7056C49.4966 51.9342 53.2042 56.0168 58.7461 59.2224C69.8202 65.6044 85.2165 66.6859 96.7686 59.9824C101.92 56.9911 104.418 53.503 104.428 50.0343Z" fill="#33B568"/>
</g>
<path d="M126.371 39.5144L116.195 45.419L95.0124 33.2104L86.68 36.2893C89.4412 36.6011 92.6902 37.6047 96.4954 39.8068C106.74 45.7113 107.267 53.8959 96.7491 59.9953C85.1969 66.6988 69.8006 65.627 58.7266 59.2353C48.9014 53.5646 44.8523 45.1072 57.0191 38.0432L68.298 44.5518C63.8977 47.1046 63.9855 50.4954 68.4151 53.0579C72.8447 55.6205 79.0501 55.6107 83.8017 52.8533C88.5533 50.0959 88.9436 46.4323 84.3676 43.7918C79.7916 41.1514 74.1424 41.5606 71.7422 42.5544L60.6682 36.1724L95.9783 22.0054L126.361 39.5242L126.371 39.5144Z" fill="url(#paint1_linear_1_3028)"/>
<mask id="mask5_1_3028" style="mask-type:luminance" maskUnits="userSpaceOnUse" x="129" y="55" width="12" height="16">
<path d="M140.265 57.3813L140.226 70.8858C140.226 70.3402 139.884 69.8043 139.065 69.3366C136.225 67.6997 132.362 69.3756 129.62 70.9735L129.659 57.469C132.41 55.8711 136.264 54.1952 139.104 55.8321C139.933 56.3096 140.275 56.8357 140.265 57.3813Z" fill="white"/>
</mask>
<g mask="url(#mask5_1_3028)">
<path d="M140.265 57.3813L140.226 70.8858C140.226 70.3402 139.884 69.8043 139.065 69.3366C136.225 67.6997 132.362 69.3756 129.62 70.9735L129.659 57.469C132.41 55.8711 136.264 54.1952 139.104 55.8321C139.933 56.3096 140.275 56.8357 140.265 57.3813Z" fill="#36D068"/>
</g>
<mask id="mask6_1_3028" style="mask-type:luminance" maskUnits="userSpaceOnUse" x="125" y="57" width="5" height="18">
<path d="M125.649 74.8804L125.688 61.3759C125.688 60.041 127.708 58.599 129.649 57.4688L129.61 70.9732C127.659 72.1035 125.649 73.5553 125.649 74.8804Z" fill="white"/>
</mask>
<g mask="url(#mask6_1_3028)">
<path d="M129.649 57.4688L129.61 70.9732C127.659 72.1035 125.649 73.5553 125.649 74.8804L125.688 61.3759C125.688 60.041 127.708 58.599 129.649 57.4688Z" fill="#36D068"/>
</g>
<mask id="mask7_1_3028" style="mask-type:luminance" maskUnits="userSpaceOnUse" x="145" y="57" width="8" height="24">
<path d="M152.802 57.9854L152.763 71.4898C152.763 74.4519 150.412 77.56 145.738 80.2687L145.777 66.7642C150.451 64.0556 152.793 60.9474 152.802 57.9854Z" fill="white"/>
</mask>
<g mask="url(#mask7_1_3028)">
<path d="M152.802 57.9854L152.763 71.4898C152.763 74.4519 150.412 77.56 145.738 80.2687L145.777 66.7642C150.451 64.0556 152.793 60.9474 152.802 57.9854Z" fill="#33B568"/>
</g>
<mask id="mask8_1_3028" style="mask-type:luminance" maskUnits="userSpaceOnUse" x="113" y="60" width="33" height="25">
<path d="M113.111 74.2276L113.15 60.7231C113.15 63.2954 114.907 65.7605 118.458 67.8067C126 72.1523 137.045 71.8405 145.777 66.7641L145.738 80.2686C137.006 85.3352 125.961 85.6568 118.419 81.3112C114.868 79.265 113.102 76.7999 113.111 74.2276Z" fill="white"/>
</mask>
<g mask="url(#mask8_1_3028)">
<path d="M145.777 66.7641L145.738 80.2686C137.006 85.3352 125.961 85.6568 118.419 81.3112C114.868 79.265 113.102 76.7999 113.111 74.2276L113.15 60.7231C113.15 63.2954 114.907 65.7605 118.458 67.8067C126 72.1523 137.045 71.8405 145.777 66.7641Z" fill="#33B568"/>
</g>
<path d="M103.511 84.2441L103.481 97.7486L93.3635 91.922L93.4025 78.4175L103.511 84.2441Z" fill="#1D974F"/>
<path d="M185 73.312L184.961 86.8165L103.481 97.7487L103.511 84.2442L185 73.312Z" fill="#33B568"/>
<mask id="mask9_1_3028" style="mask-type:luminance" maskUnits="userSpaceOnUse" x="137" y="88" width="16" height="20">
<path d="M152.588 90.353L152.549 103.858C152.549 103.312 152.207 102.776 151.378 102.299C148.539 100.662 144.685 102.338 141.933 103.926C139.982 105.056 137.972 106.508 137.972 107.833L138.011 94.3284C138.011 92.9935 140.031 91.5515 141.972 90.4212C144.724 88.8233 148.578 87.1572 151.417 88.7941C152.246 89.2715 152.588 89.7977 152.588 90.353Z" fill="white"/>
</mask>
<g mask="url(#mask9_1_3028)">
<path d="M152.588 90.353L152.549 103.858C152.549 103.312 152.207 102.776 151.378 102.299C148.539 100.662 144.685 102.338 141.933 103.926C139.982 105.056 137.972 106.508 137.972 107.833L138.011 94.3284C138.011 92.9935 140.031 91.5515 141.972 90.4212C144.724 88.8233 148.578 87.1572 151.417 88.7941C152.246 89.2715 152.588 89.7977 152.588 90.353Z" fill="#36D068"/>
</g>
<mask id="mask10_1_3028" style="mask-type:luminance" maskUnits="userSpaceOnUse" x="125" y="90" width="41" height="28">
<path d="M165.135 90.9575L165.096 104.462C165.096 107.424 162.754 110.522 158.081 113.241C149.339 118.308 138.304 118.629 130.762 114.283C127.21 112.237 125.444 109.772 125.454 107.2L125.493 93.6954C125.493 96.2677 127.259 98.7328 130.801 100.779C138.343 105.125 149.387 104.813 158.12 99.7364C162.793 97.0277 165.135 93.9293 165.135 90.9575Z" fill="white"/>
</mask>
<g mask="url(#mask10_1_3028)">
<path d="M165.135 90.9575L165.096 104.462C165.096 107.424 162.754 110.522 158.081 113.241C149.339 118.308 138.304 118.629 130.762 114.283C127.21 112.237 125.444 109.772 125.454 107.2L125.493 93.6954C125.493 96.2677 127.259 98.7328 130.801 100.779C138.343 105.125 149.387 104.813 158.12 99.7364C162.793 97.0277 165.135 93.9293 165.135 90.9575Z" fill="#33B568"/>
</g>
<path d="M145.777 66.8993C137.045 71.966 126 72.2875 118.458 67.9419C110.916 63.5963 111.433 57.2046 120.166 52.1379C128.898 47.0713 140.011 46.7108 147.553 51.0564C155.095 55.402 154.51 61.8327 145.777 66.8993ZM129.64 57.5943C126.888 59.1922 124 61.4235 126.849 63.0604C129.698 64.6973 133.533 63.0214 136.294 61.4235C139.055 59.8256 141.933 57.5943 139.094 55.9574C136.255 54.3205 132.391 55.9964 129.649 57.5943" fill="url(#paint2_linear_1_3028)"/>
<path d="M174.96 67.6562L185 73.4439L103.511 84.3761L93.4026 78.5495L174.96 67.6562Z" fill="url(#paint3_linear_1_3028)"/>
<path d="M159.876 84.0251C167.418 88.3707 166.842 94.8014 158.11 99.868C149.378 104.935 138.333 105.256 130.791 100.911C123.249 96.565 123.756 90.1733 132.498 85.1066C141.24 80.04 152.334 79.6795 159.876 84.0348V84.0251ZM139.182 96.0388C142.021 97.6758 145.865 95.9999 148.626 94.4019C151.388 92.804 154.256 90.5727 151.417 88.9358C148.578 87.2989 144.724 88.9748 141.972 90.563C139.221 92.1512 136.333 94.3922 139.182 96.0291" fill="url(#paint4_linear_1_3028)"/>
<path d="M161.268 43.104C161.268 43.104 160.025 47.9335 160.036 49.0977C160.048 50.262 159.283 52.4443 162.431 53.7208C162.431 53.7208 166.089 55.0472 167.092 55.1595C167.092 55.1595 163.244 54.223 162.186 54.2239C161.128 54.2247 159.027 53.9553 157.629 58.2921L156.299 63.0558C156.299 63.0558 157.477 58.009 157.543 56.9835C157.609 55.958 158.192 53.5161 154.87 52.3162L150.73 51.0498C150.73 51.0498 154.079 51.9843 156.101 51.9448C158.123 51.9054 159.603 49.6026 161.268 43.104Z" fill="#33B568" stroke="#33B568" stroke-width="0.277825" stroke-miterlimit="10"/>
<path d="M37.0759 66.9862C37.0759 66.9862 36.5089 69.189 36.5141 69.72C36.5192 70.2511 36.1704 71.2465 37.6062 71.8287C37.6062 71.8287 39.2747 72.4337 39.7323 72.4849C39.7323 72.4849 37.9772 72.0578 37.4945 72.0582C37.0119 72.0586 36.0537 71.9357 35.4161 73.9138L34.8095 76.0866C34.8095 76.0866 35.3466 73.7846 35.3768 73.3169C35.4071 72.8491 35.6728 71.7353 34.1575 71.188L32.2693 70.6104C32.2693 70.6104 33.7967 71.0367 34.719 71.0187C35.6412 71.0007 36.3162 69.9503 37.0759 66.9862Z" fill="#33B568" stroke="#33B568" stroke-width="0.277825" stroke-miterlimit="10"/>
<ellipse cx="19.5954" cy="7.26586" rx="1.05735" ry="1.0559" fill="#33B568"/>
<ellipse cx="169.075" cy="107.586" rx="1.70864" ry="1.7063" fill="#33B568"/>
<ellipse cx="100.535" cy="3.25676" rx="2.9571" ry="2.95305" fill="#33B568"/>
<defs>
<linearGradient id="paint0_linear_1_3028" x1="38.691" y1="0.303711" x2="38.691" y2="45.0295" gradientUnits="userSpaceOnUse">
<stop offset="0.34375" stop-color="#D4F93A"/>
<stop offset="1" stop-color="#3CC161"/>
</linearGradient>
<linearGradient id="paint1_linear_1_3028" x1="87.9292" y1="22.0054" x2="87.9292" y2="64.5499" gradientUnits="userSpaceOnUse">
<stop offset="0.34375" stop-color="#D4F93A"/>
<stop offset="1" stop-color="#3CC161"/>
</linearGradient>
<linearGradient id="paint2_linear_1_3028" x1="132.99" y1="48.0469" x2="132.99" y2="70.9687" gradientUnits="userSpaceOnUse">
<stop offset="0.34375" stop-color="#D4F93A"/>
<stop offset="1" stop-color="#3CC161"/>
</linearGradient>
<linearGradient id="paint3_linear_1_3028" x1="139.201" y1="67.6562" x2="139.201" y2="84.3761" gradientUnits="userSpaceOnUse">
<stop offset="0.34375" stop-color="#D4F93A"/>
<stop offset="1" stop-color="#3CC161"/>
</linearGradient>
<linearGradient id="paint4_linear_1_3028" x1="145.319" y1="81.0171" x2="145.319" y2="103.937" gradientUnits="userSpaceOnUse">
<stop offset="0.34375" stop-color="#D4F93A"/>
<stop offset="1" stop-color="#3CC161"/>
</linearGradient>
</defs>
</svg>
