<svg width="893" height="447" viewBox="0 0 893 447" fill="none" xmlns="http://www.w3.org/2000/svg">
<path d="M18.9661 34.0562L22.3819 365.761" stroke="#F45F5F" stroke-width="2.51558"/>
<rect x="1.27074" y="1.25772" width="6.56652" height="251.223" transform="matrix(1 0 0.0102973 0.999947 15.1434 105.053)" fill="#F45F5F" stroke="#F45F5F" stroke-width="2.51558"/>
<path d="M34.223 302.912L35.6972 446.069" stroke="#F45F5F" stroke-width="2.51558"/>
<rect x="1.27074" y="1.25772" width="6.56652" height="56.8453" transform="matrix(1 0 0.0102973 0.999947 30.2437 358.777)" fill="#F45F5F" stroke="#F45F5F" stroke-width="2.51558"/>
<path d="M76.8235 250.538L78.5015 413.48" stroke="#F45F5F" stroke-width="2.51558"/>
<rect x="1.27074" y="1.25772" width="6.56651" height="69.6486" transform="matrix(1 0 0.0102973 0.999947 72.3891 262.176)" fill="#F45F5F" stroke="#F45F5F" stroke-width="2.51558"/>
<path d="M129.375 61.9883L131.017 221.439" stroke="#F45F5F" stroke-width="2.51558"/>
<rect x="1.27074" y="1.25772" width="6.56653" height="45.2059" transform="matrix(1 0 0.0102973 0.999947 125.048 84.1028)" fill="#F45F5F" stroke="#F45F5F" stroke-width="2.51558"/>
<path d="M156.285 29.4009L157.627 159.755" stroke="#F45F5F" stroke-width="2.51558"/>
<rect x="1.27074" y="1.25772" width="6.56651" height="67.3207" transform="matrix(1 0 0.0102973 0.999947 152.102 65.4803)" fill="#F45F5F" stroke="#F45F5F" stroke-width="2.51558"/>
<path d="M170.723 108.544L171.79 212.129" stroke="#F45F5F" stroke-width="2.51558"/>
<rect x="1.27074" y="1.25772" width="6.56651" height="70.8125" transform="matrix(1 0 0.0102973 0.999947 166.397 130.658)" fill="#F45F5F" stroke="#F45F5F" stroke-width="2.51558"/>
<path d="M185.329 203.982L186.419 309.895" stroke="#F45F5F" stroke-width="2.51558"/>
<rect x="1.27074" y="1.25772" width="6.56652" height="55.6813" transform="matrix(1 0 0.0102973 0.999947 180.8 206.31)" fill="#F45F5F" stroke="#F45F5F" stroke-width="2.51558"/>
<path d="M211.784 127.166L212.132 160.918" stroke="#F45F5F" stroke-width="2.51558"/>
<rect x="0.881984" y="0.872948" width="7.33653" height="1.74599" transform="matrix(1 0 0.0102973 0.999947 207.438 146.952)" fill="#F45F5F" stroke="#F45F5F" stroke-width="1.74599"/>
<path d="M225.503 136.478L225.935 178.377" stroke="#F45F5F" stroke-width="2.51558"/>
<rect x="1.27074" y="1.25772" width="6.56652" height="25.4189" transform="matrix(1 0 0.0102973 0.999947 221.01 142.297)" fill="#F45F5F" stroke="#F45F5F" stroke-width="2.51558"/>
<path d="M253.9 248.208L254.763 332.008" stroke="#F45F5F" stroke-width="2.51558"/>
<rect x="1.27074" y="1.25772" width="6.56694" height="12.6163" transform="matrix(1 0 0.0102973 0.999947 249.358 249.374)" fill="#F45F5F" stroke="#F45F5F" stroke-width="2.51558"/>
<path d="M281.934 214.458L282.341 254.029" stroke="#F45F5F" stroke-width="2.51558"/>
<rect x="1.27074" y="1.25772" width="6.56694" height="6.79636" transform="matrix(1 0 0.0102973 0.999947 277.548 230.751)" fill="#F45F5F" stroke="#F45F5F" stroke-width="2.51558"/>
<path d="M295.748 233.079L296.108 267.996" stroke="#F45F5F" stroke-width="2.51558"/>
<rect x="1.27074" y="1.25772" width="6.56694" height="10.2883" transform="matrix(1 0 0.0102973 0.999947 291.207 234.243)" fill="#F45F5F" stroke="#F45F5F" stroke-width="2.51558"/>
<path d="M362.402 91.0854L363.085 157.426" stroke="#F45F5F" stroke-width="2.51558"/>
<rect x="1.27074" y="1.25772" width="6.56647" height="52.1895" transform="matrix(1 0 0.0102973 0.999947 357.897 95.7418)" fill="#F45F5F" stroke="#F45F5F" stroke-width="2.51558"/>
<path d="M376.517 138.805L376.829 169.066" stroke="#F45F5F" stroke-width="2.51558"/>
<rect x="1.27074" y="1.25772" width="6.56694" height="7.96035" transform="matrix(1 0 0.0102973 0.999947 372.023 144.625)" fill="#F45F5F" stroke="#F45F5F" stroke-width="2.51558"/>
<path d="M430.719 0.303711L431.283 55.0059" stroke="#F45F5F" stroke-width="2.51558"/>
<rect x="1.27074" y="1.25772" width="6.56652" height="30.0747" transform="matrix(1 0 0.0102973 0.999947 426.369 20.0899)" fill="#F45F5F" stroke="#F45F5F" stroke-width="2.51558"/>
<path d="M498.991 15.4343L500.729 184.196" stroke="#F45F5F" stroke-width="2.51558"/>
<rect x="1.27074" y="1.25772" width="6.56658" height="160.436" transform="matrix(1 0 0.0102973 0.999947 494.472 18.9251)" fill="#F45F5F" stroke="#F45F5F" stroke-width="2.51558"/>
<path d="M444.665 31.7273L445.229 86.4295" stroke="#F45F5F" stroke-width="2.51558"/>
<rect x="1.27074" y="1.25772" width="6.567" height="6.79636" transform="matrix(1 0 0.0102973 0.999947 440.232 43.367)" fill="#F45F5F" stroke="#F45F5F" stroke-width="2.51558"/>
<path d="M541.427 57.333L541.894 102.724" stroke="#F45F5F" stroke-width="2.51558"/>
<rect x="1.27074" y="1.25772" width="6.56689" height="6.79636" transform="matrix(1 0 0.0102973 0.999947 536.921 61.9883)" fill="#F45F5F" stroke="#F45F5F" stroke-width="2.51558"/>
<path d="M555.001 52.6787L555.996 149.28" stroke="#F45F5F" stroke-width="2.51558"/>
<rect x="1.27074" y="1.25772" width="6.56658" height="75.4683" transform="matrix(1 0 0.0102973 0.999947 550.616 68.9717)" fill="#F45F5F" stroke="#F45F5F" stroke-width="2.51558"/>
<path d="M568.305 131.821L569.06 205.145" stroke="#F45F5F" stroke-width="2.51558"/>
<rect x="1.27074" y="1.25772" width="6.56652" height="53.3535" transform="matrix(1 0 0.0102973 0.999947 563.906 146.952)" fill="#F45F5F" stroke="#F45F5F" stroke-width="2.51558"/>
<path d="M582.611 198.162L583.522 286.617" stroke="#F45F5F" stroke-width="2.51558"/>
<rect x="1.27074" y="1.25772" width="6.56658" height="64.9928" transform="matrix(1 0 0.0102973 0.999947 578.081 200.49)" fill="#F45F5F" stroke="#F45F5F" stroke-width="2.51558"/>
<path d="M611.172 215.62L611.999 295.928" stroke="#F45F5F" stroke-width="2.51558"/>
<rect x="1.27074" y="1.25772" width="6.56652" height="35.8944" transform="matrix(1 0 0.0102973 0.999947 607.026 255.192)" fill="#F45F5F" stroke="#F45F5F" stroke-width="2.51558"/>
<path d="M625.515 285.453L626.342 365.76" stroke="#F45F5F" stroke-width="2.51558"/>
<rect x="1.27074" y="1.25772" width="6.56658" height="55.6813" transform="matrix(1 0 0.0102973 0.999947 620.984 287.782)" fill="#F45F5F" stroke="#F45F5F" stroke-width="2.51558"/>
<path d="M653.108 319.206L653.863 392.53" stroke="#F45F5F" stroke-width="2.51558"/>
<rect x="1.27074" y="1.25772" width="6.56694" height="16.1083" transform="matrix(1 0 0.0102973 0.999947 648.614 325.025)" fill="#F45F5F" stroke="#F45F5F" stroke-width="2.51558"/>
<path d="M666.612 307.566L667.235 368.088" stroke="#F45F5F" stroke-width="2.51558"/>
<rect x="1.27074" y="1.25772" width="6.56694" height="6.79636" transform="matrix(1 0 0.0102973 0.999947 662.393 340.155)" fill="#F45F5F" stroke="#F45F5F" stroke-width="2.51558"/>
<path d="M693.654 287.781L694.577 377.4" stroke="#F45F5F" stroke-width="2.51558"/>
<rect x="1.27074" y="1.25772" width="6.56652" height="59.1731" transform="matrix(1 0 0.0102973 0.999947 689.291 306.404)" fill="#F45F5F" stroke="#F45F5F" stroke-width="2.51558"/>
<path d="M722.179 301.747L722.695 351.794" stroke="#F45F5F" stroke-width="2.51558"/>
<rect x="1.27074" y="1.25772" width="6.56658" height="25.4189" transform="matrix(1 0 0.0102973 0.999947 717.733 312.223)" fill="#F45F5F" stroke="#F45F5F" stroke-width="2.51558"/>
<path d="M734.979 332.009L735.674 399.514" stroke="#F45F5F" stroke-width="2.51558"/>
<rect x="1.27074" y="1.25772" width="6.56658" height="37.0583" transform="matrix(1 0 0.0102973 0.999947 730.448 334.336)" fill="#F45F5F" stroke="#F45F5F" stroke-width="2.51558"/>
<path d="M748.854 356.449L749.381 407.66" stroke="#F45F5F" stroke-width="2.51558"/>
<rect x="1.27074" y="1.25772" width="6.567" height="6.79636" transform="matrix(1 0 0.0102973 0.999947 744.48 373.908)" fill="#F45F5F" stroke="#F45F5F" stroke-width="2.51558"/>
<path d="M776.731 307.566L777.33 365.76" stroke="#F45F5F" stroke-width="2.51558"/>
<rect x="1.27074" y="1.25772" width="6.567" height="16.1083" transform="matrix(1 0 0.0102973 0.999947 772.358 325.025)" fill="#F45F5F" stroke="#F45F5F" stroke-width="2.51558"/>
<path d="M829.522 142.297L830.673 254.029" stroke="#F45F5F" stroke-width="2.51558"/>
<rect x="1.27074" y="1.25772" width="6.56705" height="12.6163" transform="matrix(1 0 0.0102973 0.999947 825.124 157.427)" fill="#F45F5F" stroke="#F45F5F" stroke-width="2.51558"/>
<path d="M856.529 119.02L857.596 222.605" stroke="#F45F5F" stroke-width="2.51558"/>
<rect x="1.27074" y="1.25772" width="6.56658" height="40.5501" transform="matrix(1 0 0.0102973 0.999947 852.526 172.557)" fill="#F45F5F" stroke="#F45F5F" stroke-width="2.51558"/>
<path d="M240.549 164.41L241.484 255.192" stroke="#F45F5F" stroke-width="2.51558"/>
<rect x="1.27074" y="1.25772" width="6.56649" height="85.9437" transform="matrix(1 0 0.0102973 0.999947 236.008 165.575)" fill="#F45F5F" stroke="#F45F5F" stroke-width="2.51558"/>
<path d="M48.6567 271.486C49.2324 327.392 49.5552 358.737 50.1309 414.643" stroke="#29B57E" stroke-width="2.51558"/>
<rect x="1.27074" y="1.25772" width="6.56652" height="55.6813" transform="matrix(1 0 0.0102973 0.999947 44.9657 355.285)" fill="#29B57E" stroke="#29B57E" stroke-width="2.51558"/>
<path d="M62.0157 245.881C62.6007 302.696 62.9288 334.55 63.5138 391.365" stroke="#29B57E" stroke-width="2.51558"/>
<rect x="1.27074" y="1.25772" width="6.56652" height="90.5995" transform="matrix(1 0 0.0102973 0.999947 57.6295 262.174)" fill="#29B57E" stroke="#29B57E" stroke-width="2.51558"/>
<path d="M89.118 231.914C89.661 284.638 89.9654 314.199 90.5084 366.923" stroke="#29B57E" stroke-width="2.51558"/>
<rect x="1.27074" y="1.25772" width="6.56651" height="78.9601" transform="matrix(1 0 0.0102973 0.999947 84.8751 262.174)" fill="#29B57E" stroke="#29B57E" stroke-width="2.51558"/>
<path d="M102.142 173.719C102.685 226.444 102.989 256.005 103.532 308.729" stroke="#29B57E" stroke-width="2.51558"/>
<rect x="1.27074" y="1.25772" width="6.56651" height="85.9437" transform="matrix(1 0 0.0102973 0.999947 97.6121 176.048)" fill="#29B57E" stroke="#29B57E" stroke-width="2.51558"/>
<path d="M115.57 44.5295C116.319 117.253 116.739 158.026 117.488 230.75" stroke="#29B57E" stroke-width="2.51558"/>
<rect x="1.27074" y="1.25772" width="6.56652" height="96.4192" transform="matrix(1 0 0.0102973 0.999947 111.4 81.7737)" fill="#29B57E" stroke="#29B57E" stroke-width="2.51558"/>
<path d="M142.636 27.0715C143.179 79.7961 143.484 109.357 144.027 162.081" stroke="#29B57E" stroke-width="2.51558"/>
<rect x="1.27074" y="1.25772" width="6.56652" height="62.665" transform="matrix(1 0 0.0102973 0.999947 138.443 61.9886)" fill="#29B57E" stroke="#29B57E" stroke-width="2.51558"/>
<path d="M198.339 144.623C198.831 192.347 199.106 219.105 199.598 266.83" stroke="#29B57E" stroke-width="2.51558"/>
<rect x="1.27074" y="1.25772" width="6.56652" height="108.059" transform="matrix(1 0 0.0102973 0.999947 193.88 153.935)" fill="#29B57E" stroke="#29B57E" stroke-width="2.51558"/>
<path d="M266.982 195.833C267.263 223.105 267.421 238.395 267.702 265.666" stroke="#29B57E" stroke-width="2.51558"/>
<rect x="1.27074" y="1.25772" width="6.56649" height="26.5829" transform="matrix(1 0 0.0102973 0.999947 262.837 235.405)" fill="#29B57E" stroke="#29B57E" stroke-width="2.51558"/>
<path d="M309.239 220.275C309.505 246.183 309.655 260.709 309.922 286.616" stroke="#29B57E" stroke-width="2.51558"/>
<rect x="1.27074" y="1.25772" width="6.56649" height="25.4189" transform="matrix(1 0 0.0102973 0.999947 304.697 221.438)" fill="#29B57E" stroke="#29B57E" stroke-width="2.51558"/>
<path d="M322.131 149.279C322.482 183.368 322.679 202.481 323.03 236.57" stroke="#29B57E" stroke-width="2.51558"/>
<rect x="1.27074" y="1.25772" width="6.56652" height="74.3043" transform="matrix(1 0 0.0102973 0.999947 317.626 153.935)" fill="#29B57E" stroke="#29B57E" stroke-width="2.51558"/>
<path d="M335.406 115.527C335.608 135.071 335.721 146.029 335.922 165.574" stroke="#29B57E" stroke-width="2.51558"/>
<rect x="1.27074" y="1.25772" width="6.56649" height="31.2386" transform="matrix(1 0 0.0102973 0.999947 330.865 116.69)" fill="#29B57E" stroke="#29B57E" stroke-width="2.51558"/>
<path d="M348.634 77.1194C348.891 102.118 349.036 116.134 349.293 141.133" stroke="#29B57E" stroke-width="2.51558"/>
<rect x="1.27074" y="1.25772" width="6.56691" height="17.2723" transform="matrix(1 0 0.0102973 0.999947 344.273 95.7408)" fill="#29B57E" stroke="#29B57E" stroke-width="2.51558"/>
<path d="M389.647 91.0852C389.886 114.266 390.02 127.262 390.258 150.443" stroke="#29B57E" stroke-width="2.51558"/>
<rect x="1.27074" y="1.25772" width="6.56652" height="35.8944" transform="matrix(1 0 0.0102973 0.999947 385.274 108.543)" fill="#29B57E" stroke="#29B57E" stroke-width="2.51558"/>
<path d="M403.987 50.3494C404.263 77.1662 404.418 92.2013 404.694 119.018" stroke="#29B57E" stroke-width="2.51558"/>
<rect x="1.27074" y="1.25772" width="6.56655" height="37.0583" transform="matrix(1 0 0.0102973 0.999947 399.672 73.6273)" fill="#29B57E" stroke="#29B57E" stroke-width="2.51558"/>
<path d="M457.056 22.4158C457.304 46.5054 457.443 60.0115 457.691 84.1012" stroke="#29B57E" stroke-width="2.51558"/>
<rect x="0.587989" y="0.581965" width="7.91853" height="1.16399" transform="matrix(1 0 0.0102973 0.999947 452.773 48.0213)" fill="#29B57E" stroke="#29B57E" stroke-width="1.16399"/>
<path d="M417.25 15.4329C417.587 48.1584 417.776 66.5064 418.113 99.232" stroke="#29B57E" stroke-width="2.51558"/>
<rect x="1.27074" y="1.25772" width="6.56652" height="54.5174" transform="matrix(1 0 0.0102973 0.999947 412.708 16.5967)" fill="#29B57E" stroke="#29B57E" stroke-width="2.51558"/>
<path d="M470.584 13.1052C470.78 32.1951 470.89 42.8981 471.087 61.988" stroke="#29B57E" stroke-width="2.51558"/>
<rect x="1.27074" y="1.25772" width="6.56697" height="13.7803" transform="matrix(1 0 0.0102973 0.999947 466.245 34.055)" fill="#29B57E" stroke="#29B57E" stroke-width="2.51558"/>
<path d="M526.475 38.7102C526.657 56.4366 526.759 66.375 526.942 84.1014" stroke="#29B57E" stroke-width="2.51558"/>
<rect x="1.27074" y="1.25772" width="6.56694" height="12.6163" transform="matrix(1 0 0.0102973 0.999947 522.077 53.8411)" fill="#29B57E" stroke="#29B57E" stroke-width="2.51558"/>
<path d="M596.616 235.405C596.826 255.859 596.945 267.326 597.155 287.78" stroke="#29B57E" stroke-width="2.51558"/>
<rect x="1.27074" y="1.25772" width="6.56689" height="10.2883" transform="matrix(1 0 0.0102973 0.999947 592.29 257.519)" fill="#29B57E" stroke="#29B57E" stroke-width="2.51558"/>
<path d="M639.208 292.436C639.456 316.525 639.595 330.032 639.843 354.121" stroke="#29B57E" stroke-width="2.51558"/>
<rect x="1.27074" y="1.25772" width="6.56658" height="19.5992" transform="matrix(1 0 0.0102973 0.999947 635.014 327.352)" fill="#29B57E" stroke="#29B57E" stroke-width="2.51558"/>
<path d="M679.958 280.797C680.262 310.341 680.433 326.905 680.737 356.449" stroke="#29B57E" stroke-width="2.51558"/>
<rect x="1.27074" y="1.25772" width="6.56652" height="42.878" transform="matrix(1 0 0.0102973 0.999947 675.704 309.894)" fill="#29B57E" stroke="#29B57E" stroke-width="2.51558"/>
<path d="M708.579 304.075C708.822 327.71 708.959 340.961 709.202 364.597" stroke="#29B57E" stroke-width="2.51558"/>
<rect x="1.27074" y="1.25772" width="6.56652" height="40.5501" transform="matrix(1 0 0.0102973 0.999947 704.169 318.041)" fill="#29B57E" stroke="#29B57E" stroke-width="2.51558"/>
<path d="M761.9 300.583C762.247 334.217 762.441 353.075 762.787 386.709" stroke="#29B57E" stroke-width="2.51558"/>
<rect x="1.27074" y="1.25772" width="6.56658" height="46.3698" transform="matrix(1 0 0.0102973 0.999947 757.598 325.024)" fill="#29B57E" stroke="#29B57E" stroke-width="2.51558"/>
<path d="M789.959 269.158C790.287 300.974 790.47 318.813 790.798 350.629" stroke="#29B57E" stroke-width="2.51558"/>
<rect x="1.27074" y="1.25772" width="6.56647" height="34.7304" transform="matrix(1 0 0.0102973 0.999947 785.692 297.091)" fill="#29B57E" stroke="#29B57E" stroke-width="2.51558"/>
<path d="M814.835 149.279C815.168 181.55 815.354 199.643 815.686 231.915" stroke="#29B57E" stroke-width="2.51558"/>
<rect x="1.27074" y="1.25772" width="6.56652" height="74.3043" transform="matrix(1 0 0.0102973 0.999947 810.329 153.935)" fill="#29B57E" stroke="#29B57E" stroke-width="2.51558"/>
<path d="M870.631 165.572C870.907 192.389 871.062 207.424 871.338 234.241" stroke="#29B57E" stroke-width="2.51558"/>
<rect x="1.27074" y="1.25772" width="6.56658" height="33.5665" transform="matrix(1 0 0.0102973 0.999947 866.148 172.556)" fill="#29B57E" stroke="#29B57E" stroke-width="2.51558"/>
<path d="M885.149 142.296C885.369 163.658 885.492 175.636 885.712 196.998" stroke="#29B57E" stroke-width="2.51558"/>
<rect x="1.27074" y="1.25772" width="6.56694" height="11.4523" transform="matrix(1 0 0.0102973 0.999947 880.822 164.409)" fill="#29B57E" stroke="#29B57E" stroke-width="2.51558"/>
<path d="M842.473 77.1194C842.993 127.571 843.284 155.858 843.804 206.31" stroke="#29B57E" stroke-width="2.51558"/>
<rect x="0.587988" y="0.581964" width="7.91859" height="1.16399" transform="matrix(1 0 0.0102973 0.999947 838.91 172.556)" fill="#29B57E" stroke="#29B57E" stroke-width="1.16399"/>
<path d="M802.002 226.095C802.32 257.002 802.499 274.331 802.817 305.238" stroke="#29B57E" stroke-width="2.51558"/>
<rect x="1.27074" y="1.25772" width="6.56652" height="74.3043" transform="matrix(1 0 0.0102973 0.999947 797.46 227.259)" fill="#29B57E" stroke="#29B57E" stroke-width="2.51558"/>
<path d="M513.139 66.6426C513.602 111.64 513.862 136.869 514.326 181.866" stroke="#29B57E" stroke-width="2.51558"/>
<rect x="1.27074" y="1.25772" width="6.56658" height="98.7471" transform="matrix(1 0 0.0102973 0.999947 508.693 77.1195)" fill="#29B57E" stroke="#29B57E" stroke-width="2.51558"/>
<path d="M484.219 14.27C484.312 23.3605 484.365 28.4571 484.459 37.5475" stroke="#29B57E" stroke-width="2.51558"/>
<rect x="1.27074" y="1.25772" width="6.56689" height="5.63237" transform="matrix(1 0 0.0102973 0.999947 479.688 16.5967)" fill="#29B57E" stroke="#29B57E" stroke-width="2.51558"/>
<path d="M5.6058 59.6602C6.12535 110.112 6.41664 138.398 6.93619 188.85" stroke="#29B57E" stroke-width="2.51558"/>
<rect x="1.27074" y="1.25772" width="6.56652" height="58.0092" transform="matrix(1 0 0.0102973 0.999947 1.65059 117.854)" fill="#29B57E" stroke="#29B57E" stroke-width="2.51558"/>
</svg>
