<svg width="281" height="240" viewBox="0 0 281 240" fill="none" xmlns="http://www.w3.org/2000/svg">
<g style="mix-blend-mode:multiply" opacity="0.55" clip-path="url(#clip0_1_3831)">
<path d="M264.047 0.328125H278.289C279.489 0.328125 280.462 1.25531 280.462 2.39905V15.9733C280.462 17.1171 279.489 18.0443 278.289 18.0443H264.047C262.847 18.0443 261.874 17.1171 261.874 15.9733V2.39905C261.874 1.25531 262.847 0.328125 264.047 0.328125Z" fill="#818181"/>
<path d="M252.216 0.328125H238.364C236.947 0.328125 235.801 1.42022 235.801 2.77117V15.6093C235.801 16.9522 236.947 18.0524 238.364 18.0524H252.216C253.412 18.0524 254.388 17.1221 254.388 15.9814V2.39905C254.388 1.25843 253.412 0.328125 252.216 0.328125Z" fill="#818181"/>
<path d="M185.835 0.328125H200.077C201.277 0.328125 202.25 1.25531 202.25 2.39905V15.9733C202.25 17.1171 201.277 18.0443 200.077 18.0443H185.835C184.635 18.0443 183.662 17.1171 183.662 15.9733V2.39905C183.662 1.25531 184.635 0.328125 185.835 0.328125Z" fill="#818181"/>
<path d="M173.943 42.7256H159.701C158.501 42.7256 157.529 41.7984 157.529 40.6547V27.0804C157.529 25.9366 158.501 25.0094 159.701 25.0094L173.943 25.0094C175.143 25.0094 176.116 25.9366 176.116 27.0804V40.6547C176.116 41.7984 175.143 42.7256 173.943 42.7256Z" fill="#818181"/>
<path d="M133.619 0.328125H147.861C149.061 0.328125 150.034 1.25531 150.034 2.39905V15.9733C150.034 17.1171 149.061 18.0443 147.861 18.0443H133.619C132.419 18.0443 131.446 17.1171 131.446 15.9733V2.39905C131.446 1.25531 132.419 0.328125 133.619 0.328125Z" fill="#818181"/>
<path d="M147.862 42.7256H133.62C132.42 42.7256 131.447 41.7984 131.447 40.6547V27.0804C131.447 25.9366 132.42 25.0094 133.62 25.0094L147.862 25.0094C149.062 25.0094 150.034 25.9366 150.034 27.0804V40.6547C150.034 41.7984 149.062 42.7256 147.862 42.7256Z" fill="#818181"/>
<path d="M226.159 42.7256H211.917C210.717 42.7256 209.744 41.7984 209.744 40.6547V27.0804C209.744 25.9366 210.717 25.0094 211.917 25.0094L226.159 25.0094C227.359 25.0094 228.332 25.9366 228.332 27.0804V40.6547C228.332 41.7984 227.359 42.7256 226.159 42.7256Z" fill="#818181"/>
<path d="M237.965 42.7256H251.817C253.226 42.7256 254.38 41.6335 254.38 40.2825V27.4444C254.38 26.1015 253.234 25.0013 251.817 25.0013L237.965 25.0013C236.768 25.0013 235.792 25.9316 235.792 27.0723V40.6466C235.792 41.7872 236.768 42.7175 237.965 42.7175V42.7256Z" fill="#818181"/>
<path d="M211.908 49.6992H226.15C227.35 49.6992 228.323 50.6264 228.323 51.7701V65.3444C228.323 66.4882 227.35 67.4154 226.15 67.4154H211.908C210.708 67.4154 209.735 66.4882 209.735 65.3444V51.7701C209.735 50.6264 210.708 49.6992 211.908 49.6992Z" fill="#818181"/>
<path d="M185.835 49.6992H200.077C201.277 49.6992 202.25 50.6264 202.25 51.7701V65.3444C202.25 66.4882 201.277 67.4154 200.077 67.4154H185.835C184.635 67.4154 183.662 66.4882 183.662 65.3444V51.7701C183.662 50.6264 184.635 49.6992 185.835 49.6992Z" fill="#818181"/>
<path d="M173.943 92.0957H159.701C158.501 92.0957 157.529 91.1685 157.529 90.0248V76.4505C157.529 75.3067 158.501 74.3796 159.701 74.3796H173.943C175.143 74.3796 176.116 75.3067 176.116 76.4505V90.0248C176.116 91.1685 175.143 92.0957 173.943 92.0957Z" fill="#818181"/>
<path d="M200.076 92.0957H185.834C184.634 92.0957 183.661 91.1685 183.661 90.0248V76.4505C183.661 75.3067 184.634 74.3796 185.834 74.3796H200.076C201.276 74.3796 202.249 75.3067 202.249 76.4505V90.0248C202.249 91.1685 201.276 92.0957 200.076 92.0957Z" fill="#818181"/>
<path d="M237.965 92.0957H251.817C253.226 92.0957 254.38 91.0036 254.38 89.6527V76.8145C254.38 75.4716 253.234 74.3715 251.817 74.3715H237.965C236.768 74.3715 235.792 75.3018 235.792 76.4424V90.0167C235.792 91.1573 236.768 92.0876 237.965 92.0876V92.0957Z" fill="#818181"/>
<path d="M278.29 92.0957H264.047C262.847 92.0957 261.875 91.1685 261.875 90.0248V76.4505C261.875 75.3067 262.847 74.3796 264.047 74.3796H278.29C279.49 74.3796 280.462 75.3067 280.462 76.4505V90.0248C280.462 91.1685 279.49 92.0957 278.29 92.0957Z" fill="#818181"/>
<path d="M251.825 99.0686H237.973C236.777 99.0686 235.801 99.9989 235.801 101.14V114.714C235.801 115.854 236.777 116.785 237.973 116.785H251.825C253.234 116.785 254.388 115.693 254.388 114.342V101.504C254.388 100.161 253.243 99.0605 251.825 99.0605V99.0686Z" fill="#818181"/>
<path d="M211.908 99.0693H226.15C227.35 99.0693 228.323 99.9965 228.323 101.14V114.715C228.323 115.858 227.35 116.785 226.15 116.785H211.908C210.708 116.785 209.735 115.858 209.735 114.715V101.14C209.735 99.9965 210.708 99.0693 211.908 99.0693Z" fill="#818181"/>
<path d="M185.835 99.0693H200.077C201.277 99.0693 202.25 99.9965 202.25 101.14V114.715C202.25 115.858 201.277 116.785 200.077 116.785H185.835C184.635 116.785 183.662 115.858 183.662 114.715V101.14C183.662 99.9965 184.635 99.0693 185.835 99.0693Z" fill="#818181"/>
<path d="M159.692 99.0693H173.934C175.134 99.0693 176.107 99.9965 176.107 101.14V114.715C176.107 115.858 175.134 116.785 173.934 116.785H159.692C158.492 116.785 157.519 115.858 157.519 114.715V101.14C157.519 99.9965 158.492 99.0693 159.692 99.0693Z" fill="#818181"/>
<path d="M133.619 99.0693H147.861C149.061 99.0693 150.034 99.9965 150.034 101.14V114.715C150.034 115.858 149.061 116.785 147.861 116.785H133.619C132.419 116.785 131.446 115.858 131.446 114.715V101.14C131.446 99.9965 132.419 99.0693 133.619 99.0693Z" fill="#818181"/>
<path d="M200.076 141.475H185.834C184.634 141.475 183.661 140.547 183.661 139.404V125.829C183.661 124.686 184.634 123.758 185.834 123.758H200.076C201.276 123.758 202.249 124.686 202.249 125.829V139.404C202.249 140.547 201.276 141.475 200.076 141.475Z" fill="#818181"/>
<path d="M226.159 141.475H211.917C210.717 141.475 209.744 140.547 209.744 139.404V125.829C209.744 124.686 210.717 123.758 211.917 123.758H226.159C227.359 123.758 228.332 124.686 228.332 125.829V139.404C228.332 140.547 227.359 141.475 226.159 141.475Z" fill="#818181"/>
<path d="M147.862 141.475H133.62C132.42 141.475 131.447 140.547 131.447 139.404V125.829C131.447 124.686 132.42 123.758 133.62 123.758H147.862C149.062 123.758 150.034 124.686 150.034 125.829V139.404C150.034 140.547 149.062 141.475 147.862 141.475Z" fill="#818181"/>
<path d="M28.8062 0.328125H43.0483C44.2483 0.328125 45.2211 1.25531 45.2211 2.39905V15.9733C45.2211 17.1171 44.2483 18.0443 43.0483 18.0443H28.8062C27.6062 18.0443 26.6334 17.1171 26.6334 15.9733V2.39905C26.6334 1.25531 27.6062 0.328125 28.8062 0.328125Z" fill="#818181"/>
<path d="M2.66432 0.328125H16.9064C18.1065 0.328125 19.0793 1.25531 19.0793 2.39905V15.9733C19.0793 17.1171 18.1065 18.0443 16.9064 18.0443H2.66432C1.46431 18.0443 0.491512 17.1171 0.491512 15.9733V2.39905C0.491512 1.25531 1.46431 0.328125 2.66432 0.328125Z" fill="#818181"/>
<path d="M16.915 42.7256H2.67284C1.47283 42.7256 0.500031 41.7984 0.500031 40.6547L0.500031 27.0804C0.500031 25.9366 1.47283 25.0094 2.67284 25.0094L16.915 25.0094C18.115 25.0094 19.0878 25.9366 19.0878 27.0804L19.0878 40.6547C19.0878 41.7984 18.115 42.7256 16.915 42.7256Z" fill="#818181"/>
<path d="M43.0485 42.7256H28.8064C27.6063 42.7256 26.6335 41.7984 26.6335 40.6547L26.6335 27.0804C26.6335 25.9366 27.6063 25.0094 28.8064 25.0094L43.0485 25.0094C44.2485 25.0094 45.2213 25.9366 45.2213 27.0804V40.6547C45.2213 41.7984 44.2485 42.7256 43.0485 42.7256Z" fill="#818181"/>
<path d="M69.122 42.7256H54.8799C53.6799 42.7256 52.7071 41.7984 52.7071 40.6547V27.0804C52.7071 25.9366 53.6799 25.0094 54.8799 25.0094L69.122 25.0094C70.322 25.0094 71.2948 25.9366 71.2948 27.0804V40.6547C71.2948 41.7984 70.322 42.7256 69.122 42.7256Z" fill="#818181"/>
<path d="M80.9359 42.7256H94.7876C96.1966 42.7256 97.3509 41.6335 97.3509 40.2825V27.4444C97.3509 26.1015 96.2051 25.0013 94.7876 25.0013L80.9359 25.0013C79.7392 25.0013 78.7631 25.9316 78.7631 27.0723V40.6466C78.7631 41.7872 79.7392 42.7175 80.9359 42.7175V42.7256Z" fill="#818181"/>
<path d="M121.261 42.7256H107.019C105.819 42.7256 104.846 41.7984 104.846 40.6547V27.0804C104.846 25.9366 105.819 25.0094 107.019 25.0094L121.261 25.0094C122.461 25.0094 123.434 25.9366 123.434 27.0804V40.6547C123.434 41.7984 122.461 42.7256 121.261 42.7256Z" fill="#818181"/>
<path d="M107.41 49.6992H120.871C122.287 49.6992 123.435 50.793 123.435 52.1423V64.9723C123.435 66.3216 122.287 67.4154 120.871 67.4154H107.41C105.994 67.4154 104.847 66.3216 104.847 64.9723V52.1423C104.847 50.793 105.994 49.6992 107.41 49.6992Z" fill="#818181"/>
<path d="M54.8884 49.6992H69.1305C70.3305 49.6992 71.3033 50.6264 71.3033 51.7701V65.3444C71.3033 66.4882 70.3305 67.4154 69.1305 67.4154H54.8884C53.6884 67.4154 52.7156 66.4882 52.7156 65.3444V51.7701C52.7156 50.6264 53.6884 49.6992 54.8884 49.6992Z" fill="#818181"/>
<path d="M2.66432 49.6992H16.9064C18.1065 49.6992 19.0793 50.6264 19.0793 51.7701V65.3444C19.0793 66.4882 18.1065 67.4154 16.9064 67.4154H2.66432C1.46431 67.4154 0.491512 66.4882 0.491512 65.3444V51.7701C0.491512 50.6264 1.46431 49.6992 2.66432 49.6992Z" fill="#818181"/>
<path d="M43.0485 92.0957H28.8064C27.6063 92.0957 26.6335 91.1685 26.6335 90.0248L26.6335 76.4505C26.6335 75.3067 27.6063 74.3796 28.8064 74.3796H43.0485C44.2485 74.3796 45.2213 75.3067 45.2213 76.4505V90.0248C45.2213 91.1685 44.2485 92.0957 43.0485 92.0957Z" fill="#818181"/>
<path d="M69.122 92.0957H54.8799C53.6799 92.0957 52.7071 91.1685 52.7071 90.0248V76.4505C52.7071 75.3067 53.6799 74.3796 54.8799 74.3796H69.122C70.322 74.3796 71.2948 75.3067 71.2948 76.4505V90.0248C71.2948 91.1685 70.322 92.0957 69.122 92.0957Z" fill="#818181"/>
<path d="M80.9359 92.0957H94.7876C96.1966 92.0957 97.3509 91.0036 97.3509 89.6527V76.8145C97.3509 75.4716 96.2051 74.3715 94.7876 74.3715H80.9359C79.7392 74.3715 78.7631 75.3018 78.7631 76.4424V90.0167C78.7631 91.1573 79.7392 92.0876 80.9359 92.0876V92.0957Z" fill="#818181"/>
<path d="M121.261 92.0957H107.019C105.819 92.0957 104.846 91.1685 104.846 90.0248V76.4505C104.846 75.3067 105.819 74.3796 107.019 74.3796H121.261C122.461 74.3796 123.434 75.3067 123.434 76.4505V90.0248C123.434 91.1685 122.461 92.0957 121.261 92.0957Z" fill="#818181"/>
<path d="M107.02 99.0693H121.262C122.462 99.0693 123.435 99.9965 123.435 101.14V114.715C123.435 115.858 122.462 116.785 121.262 116.785H107.02C105.82 116.785 104.847 115.858 104.847 114.715V101.14C104.847 99.9965 105.82 99.0693 107.02 99.0693Z" fill="#818181"/>
<path d="M54.8884 99.0693H69.1305C70.3305 99.0693 71.3033 99.9965 71.3033 101.14V114.715C71.3033 115.858 70.3305 116.785 69.1305 116.785H54.8884C53.6884 116.785 52.7156 115.858 52.7156 114.715V101.14C52.7156 99.9965 53.6884 99.0693 54.8884 99.0693Z" fill="#818181"/>
<path d="M28.8062 99.0693H43.0483C44.2483 99.0693 45.2211 99.9965 45.2211 101.14V114.715C45.2211 115.858 44.2483 116.785 43.0483 116.785H28.8062C27.6062 116.785 26.6334 115.858 26.6334 114.715V101.14C26.6334 99.9965 27.6062 99.0693 28.8062 99.0693Z" fill="#818181"/>
<path d="M2.66432 99.0693H16.9064C18.1065 99.0693 19.0793 99.9965 19.0793 101.14V114.715C19.0793 115.858 18.1065 116.785 16.9064 116.785H2.66432C1.46431 116.785 0.491512 115.858 0.491512 114.715V101.14C0.491512 99.9965 1.46431 99.0693 2.66432 99.0693Z" fill="#818181"/>
<path d="M43.0485 141.475H28.8064C27.6063 141.475 26.6335 140.547 26.6335 139.404L26.6335 125.829C26.6335 124.686 27.6063 123.758 28.8064 123.758H43.0485C44.2485 123.758 45.2213 124.686 45.2213 125.829V139.404C45.2213 140.547 44.2485 141.475 43.0485 141.475Z" fill="#818181"/>
<path d="M69.122 141.475H54.8799C53.6799 141.475 52.7071 140.547 52.7071 139.404V125.829C52.7071 124.686 53.6799 123.758 54.8799 123.758H69.122C70.322 123.758 71.2948 124.686 71.2948 125.829V139.404C71.2948 140.547 70.322 141.475 69.122 141.475Z" fill="#818181"/>
<path d="M80.9359 141.475H94.7876C96.1966 141.475 97.3509 140.383 97.3509 139.032V126.193C97.3509 124.851 96.2051 123.75 94.7876 123.75H80.9359C79.7392 123.75 78.7631 124.681 78.7631 125.821V139.396C78.7631 140.536 79.7392 141.467 80.9359 141.467V141.475Z" fill="#818181"/>
<path d="M121.261 141.475H107.019C105.819 141.475 104.846 140.547 104.846 139.404V125.829C104.846 124.686 105.819 123.758 107.019 123.758H121.261C122.461 123.758 123.434 124.686 123.434 125.829V139.404C123.434 140.547 122.461 141.475 121.261 141.475Z" fill="#818181"/>
<path d="M252.216 147.559H238.364C236.955 147.559 235.801 148.651 235.801 150.002V162.84C235.801 164.183 236.947 165.283 238.364 165.283H252.216C253.412 165.283 254.388 164.353 254.388 163.212V149.638C254.388 148.497 253.412 147.567 252.216 147.567V147.559Z" fill="#818181"/>
<path d="M211.908 147.559H226.15C227.35 147.559 228.323 148.486 228.323 149.63V163.204C228.323 164.348 227.35 165.275 226.15 165.275H211.908C210.708 165.275 209.735 164.348 209.735 163.204V149.63C209.735 148.486 210.708 147.559 211.908 147.559Z" fill="#818181"/>
<path d="M159.692 147.559H173.934C175.134 147.559 176.107 148.486 176.107 149.63V163.204C176.107 164.348 175.134 165.275 173.934 165.275H159.692C158.492 165.275 157.519 164.348 157.519 163.204V149.63C157.519 148.486 158.492 147.559 159.692 147.559Z" fill="#818181"/>
<path d="M173.943 189.955H159.701C158.501 189.955 157.529 189.028 157.529 187.884V174.31C157.529 173.166 158.501 172.239 159.701 172.239H173.943C175.143 172.239 176.116 173.166 176.116 174.31V187.884C176.116 189.028 175.143 189.955 173.943 189.955Z" fill="#818181"/>
<path d="M133.619 147.559H147.861C149.061 147.559 150.034 148.486 150.034 149.63V163.204C150.034 164.348 149.061 165.275 147.861 165.275H133.619C132.419 165.275 131.446 164.348 131.446 163.204V149.63C131.446 148.486 132.419 147.559 133.619 147.559Z" fill="#818181"/>
<path d="M147.862 189.955H133.62C132.42 189.955 131.447 189.028 131.447 187.884V174.31C131.447 173.166 132.42 172.239 133.62 172.239H147.862C149.062 172.239 150.034 173.166 150.034 174.31V187.884C150.034 189.028 149.062 189.955 147.862 189.955Z" fill="#818181"/>
<path d="M200.076 189.956H185.834C184.634 189.956 183.661 189.029 183.661 187.885V174.311C183.661 173.167 184.634 172.24 185.834 172.24H200.076C201.276 172.24 202.249 173.167 202.249 174.311V187.885C202.249 189.029 201.276 189.956 200.076 189.956Z" fill="#818181"/>
<path d="M226.159 189.956H211.917C210.717 189.956 209.744 189.029 209.744 187.885V174.311C209.744 173.167 210.717 172.24 211.917 172.24H226.159C227.359 172.24 228.332 173.167 228.332 174.311V187.885C228.332 189.029 227.359 189.956 226.159 189.956Z" fill="#818181"/>
<path d="M278.29 189.955H264.047C262.847 189.955 261.875 189.028 261.875 187.884V174.31C261.875 173.166 262.847 172.239 264.047 172.239H278.29C279.49 172.239 280.462 173.166 280.462 174.31V187.884C280.462 189.028 279.49 189.955 278.29 189.955Z" fill="#818181"/>
<path d="M159.692 196.93H173.934C175.134 196.93 176.107 197.857 176.107 199.001V212.575C176.107 213.719 175.134 214.646 173.934 214.646H159.692C158.492 214.646 157.519 213.719 157.519 212.575V199.001C157.519 197.857 158.492 196.93 159.692 196.93Z" fill="#818181"/>
<path d="M133.619 196.929H147.861C149.061 196.929 150.034 197.856 150.034 199V212.574C150.034 213.718 149.061 214.645 147.861 214.645H133.619C132.419 214.645 131.446 213.718 131.446 212.574V199C131.446 197.856 132.419 196.929 133.619 196.929Z" fill="#818181"/>
<path d="M107.02 147.559H121.262C122.462 147.559 123.435 148.486 123.435 149.63V163.204C123.435 164.348 122.462 165.275 121.262 165.275H107.02C105.82 165.275 104.847 164.348 104.847 163.204V149.63C104.847 148.486 105.82 147.559 107.02 147.559Z" fill="#818181"/>
<path d="M95.1871 147.558H81.3354C79.9265 147.558 78.7722 148.65 78.7722 150.001V162.839C78.7722 164.182 79.918 165.282 81.3354 165.282H95.1871C96.3839 165.282 97.3599 164.352 97.3599 163.211V149.637C97.3599 148.496 96.3839 147.566 95.1871 147.566V147.558Z" fill="#818181"/>
<path d="M95.1871 217.095H81.3354C79.9265 217.095 78.7722 218.187 78.7722 219.538V232.376C78.7722 233.719 79.918 234.819 81.3354 234.819H95.1871C96.3839 234.819 97.3599 233.889 97.3599 232.748V219.174C97.3599 218.033 96.3839 217.103 95.1871 217.103V217.095Z" fill="#818181"/>
<path d="M28.8062 147.559H43.0483C44.2483 147.559 45.2211 148.486 45.2211 149.63V163.204C45.2211 164.348 44.2483 165.275 43.0483 165.275H28.8062C27.6062 165.275 26.6334 164.348 26.6334 163.204V149.63C26.6334 148.486 27.6062 147.559 28.8062 147.559Z" fill="#818181"/>
<path d="M43.0485 189.955H28.8064C27.6063 189.955 26.6335 189.028 26.6335 187.884L26.6335 174.31C26.6335 173.166 27.6063 172.239 28.8064 172.239H43.0485C44.2485 172.239 45.2213 173.166 45.2213 174.31V187.884C45.2213 189.028 44.2485 189.955 43.0485 189.955Z" fill="#818181"/>
<path d="M107.41 196.93H120.871C122.287 196.93 123.435 198.023 123.435 199.373V212.203C123.435 213.552 122.287 214.646 120.871 214.646H107.41C105.994 214.646 104.847 213.552 104.847 212.203V199.373C104.847 198.023 105.994 196.93 107.41 196.93Z" fill="#818181"/>
<path d="M28.8062 196.929H43.0483C44.2483 196.929 45.2211 197.856 45.2211 199V212.574C45.2211 213.718 44.2483 214.645 43.0483 214.645H28.8062C27.6062 214.645 26.6334 213.718 26.6334 212.574V199C26.6334 197.856 27.6062 196.929 28.8062 196.929Z" fill="#818181"/>
</g>
<defs>
<clipPath id="clip0_1_3831">
<rect width="279.962" height="239.006" fill="white" transform="matrix(-1 0 0 1 280.462 0.328125)"/>
</clipPath>
</defs>
</svg>
