<svg width="285" height="239" viewBox="0 0 285 239" fill="none" xmlns="http://www.w3.org/2000/svg">
<g opacity="0.1" clip-path="url(#clip0_1_2469)">
<path d="M267.661 0H282.126C283.344 0 284.332 0.927187 284.332 2.07093V15.6452C284.332 16.789 283.344 17.7162 282.126 17.7162H267.661C266.442 17.7162 265.454 16.789 265.454 15.6452V2.07093C265.454 0.927187 266.442 0 267.661 0Z" fill="#818181"/>
<path d="M255.645 0H241.577C240.138 0 238.974 1.09209 238.974 2.44305V15.2812C238.974 16.6241 240.138 17.7242 241.577 17.7242H255.645C256.86 17.7242 257.852 16.7939 257.852 15.6533V2.07093C257.852 0.9303 256.86 0 255.645 0Z" fill="#818181"/>
<path d="M188.228 0H202.692C203.911 0 204.899 0.927187 204.899 2.07093V15.6452C204.899 16.789 203.911 17.7162 202.692 17.7162H188.228C187.009 17.7162 186.021 16.789 186.021 15.6452V2.07093C186.021 0.927187 187.009 0 188.228 0Z" fill="#818181"/>
<path d="M176.151 42.3972H161.687C160.468 42.3972 159.48 41.47 159.48 40.3263V26.752C159.48 25.6082 160.468 24.6811 161.687 24.6811L176.151 24.6811C177.37 24.6811 178.358 25.6082 178.358 26.752V40.3263C178.358 41.47 177.37 42.3972 176.151 42.3972Z" fill="#818181"/>
<path d="M135.197 0H149.661C150.88 0 151.868 0.927187 151.868 2.07093V15.6452C151.868 16.789 150.88 17.7162 149.661 17.7162H135.197C133.978 17.7162 132.99 16.789 132.99 15.6452V2.07093C132.99 0.927187 133.978 0 135.197 0Z" fill="#818181"/>
<path d="M149.662 42.3972H135.198C133.979 42.3972 132.991 41.47 132.991 40.3263V26.752C132.991 25.6082 133.979 24.6811 135.198 24.6811L149.662 24.6811C150.881 24.6811 151.869 25.6082 151.869 26.752V40.3263C151.869 41.47 150.881 42.3972 149.662 42.3972Z" fill="#818181"/>
<path d="M229.181 42.3972H214.717C213.498 42.3972 212.51 41.47 212.51 40.3263V26.752C212.51 25.6082 213.498 24.6811 214.717 24.6811L229.181 24.6811C230.4 24.6811 231.388 25.6082 231.388 26.752V40.3263C231.388 41.47 230.4 42.3972 229.181 42.3972Z" fill="#818181"/>
<path d="M241.172 42.3972H255.24C256.671 42.3972 257.843 41.3051 257.843 39.9542V27.116C257.843 25.7732 256.679 24.673 255.24 24.673L241.172 24.673C239.957 24.673 238.965 25.6033 238.965 26.7439V40.3182C238.965 41.4588 239.957 42.3891 241.172 42.3891V42.3972Z" fill="#818181"/>
<path d="M214.708 49.3711H229.173C230.392 49.3711 231.38 50.2983 231.38 51.442V65.0163C231.38 66.1601 230.392 67.0872 229.173 67.0872H214.708C213.49 67.0872 212.502 66.1601 212.502 65.0163V51.442C212.502 50.2983 213.49 49.3711 214.708 49.3711Z" fill="#818181"/>
<path d="M188.228 49.3711H202.692C203.911 49.3711 204.899 50.2983 204.899 51.442V65.0163C204.899 66.1601 203.911 67.0872 202.692 67.0872H188.228C187.009 67.0872 186.021 66.1601 186.021 65.0163V51.442C186.021 50.2983 187.009 49.3711 188.228 49.3711Z" fill="#818181"/>
<path d="M176.151 91.7681H161.687C160.468 91.7681 159.48 90.8409 159.48 89.6971V76.1228C159.48 74.9791 160.468 74.0519 161.687 74.0519H176.151C177.37 74.0519 178.358 74.9791 178.358 76.1228V89.6971C178.358 90.8409 177.37 91.7681 176.151 91.7681Z" fill="#818181"/>
<path d="M202.692 91.7679H188.227C187.009 91.7679 186.021 90.8408 186.021 89.697V76.1227C186.021 74.979 187.009 74.0518 188.227 74.0518H202.692C203.911 74.0518 204.899 74.979 204.899 76.1227V89.697C204.899 90.8408 203.911 91.7679 202.692 91.7679Z" fill="#818181"/>
<path d="M241.172 91.7681H255.24C256.671 91.7681 257.843 90.676 257.843 89.325V76.4869C257.843 75.144 256.679 74.0438 255.24 74.0438H241.172C239.957 74.0438 238.965 74.9741 238.965 76.1148V89.689C238.965 90.8297 239.957 91.76 241.172 91.76V91.7681Z" fill="#818181"/>
<path d="M282.126 91.7681H267.662C266.443 91.7681 265.455 90.8409 265.455 89.6971V76.1228C265.455 74.9791 266.443 74.0519 267.662 74.0519H282.126C283.345 74.0519 284.333 74.9791 284.333 76.1228V89.6971C284.333 90.8409 283.345 91.7681 282.126 91.7681Z" fill="#818181"/>
<path d="M255.248 98.7409H241.181C239.965 98.7409 238.974 99.6712 238.974 100.812V114.386C238.974 115.527 239.965 116.457 241.181 116.457H255.248C256.679 116.457 257.852 115.365 257.852 114.014V101.176C257.852 99.833 256.688 98.7328 255.248 98.7328V98.7409Z" fill="#818181"/>
<path d="M214.708 98.7415H229.173C230.392 98.7415 231.38 99.6686 231.38 100.812V114.387C231.38 115.53 230.392 116.458 229.173 116.458H214.708C213.49 116.458 212.502 115.53 212.502 114.387V100.812C212.502 99.6686 213.49 98.7415 214.708 98.7415Z" fill="#818181"/>
<path d="M188.228 98.7415H202.692C203.911 98.7415 204.899 99.6686 204.899 100.812V114.387C204.899 115.53 203.911 116.458 202.692 116.458H188.228C187.009 116.458 186.021 115.53 186.021 114.387V100.812C186.021 99.6686 187.009 98.7415 188.228 98.7415Z" fill="#818181"/>
<path d="M161.677 98.7415H176.142C177.361 98.7415 178.349 99.6686 178.349 100.812V114.387C178.349 115.53 177.361 116.458 176.142 116.458H161.677C160.459 116.458 159.471 115.53 159.471 114.387V100.812C159.471 99.6686 160.459 98.7415 161.677 98.7415Z" fill="#818181"/>
<path d="M135.197 98.7415H149.661C150.88 98.7415 151.868 99.6686 151.868 100.812V114.387C151.868 115.53 150.88 116.458 149.661 116.458H135.197C133.978 116.458 132.99 115.53 132.99 114.387V100.812C132.99 99.6686 133.978 98.7415 135.197 98.7415Z" fill="#818181"/>
<path d="M202.692 141.146H188.227C187.009 141.146 186.021 140.219 186.021 139.075V125.501C186.021 124.357 187.009 123.43 188.227 123.43H202.692C203.911 123.43 204.899 124.357 204.899 125.501V139.075C204.899 140.219 203.911 141.146 202.692 141.146Z" fill="#818181"/>
<path d="M229.181 141.146H214.717C213.498 141.146 212.51 140.219 212.51 139.075V125.501C212.51 124.357 213.498 123.43 214.717 123.43H229.181C230.4 123.43 231.388 124.357 231.388 125.501V139.075C231.388 140.219 230.4 141.146 229.181 141.146Z" fill="#818181"/>
<path d="M149.662 141.146H135.198C133.979 141.146 132.991 140.219 132.991 139.075V125.501C132.991 124.357 133.979 123.43 135.198 123.43H149.662C150.881 123.43 151.869 124.357 151.869 125.501V139.075C151.869 140.219 150.881 141.146 149.662 141.146Z" fill="#818181"/>
<path d="M28.7481 0H43.2125C44.4313 0 45.4193 0.927187 45.4193 2.07093V15.6452C45.4193 16.789 44.4313 17.7162 43.2125 17.7162H28.7481C27.5293 17.7162 26.5413 16.789 26.5413 15.6452V2.07093C26.5413 0.927187 27.5293 0 28.7481 0Z" fill="#818181"/>
<path d="M2.19808 0H16.6625C17.8813 0 18.8693 0.927187 18.8693 2.07093V15.6452C18.8693 16.789 17.8813 17.7162 16.6625 17.7162H2.19808C0.97934 17.7162 -0.00864601 16.789 -0.00864601 15.6452V2.07093C-0.00864601 0.927187 0.97934 0 2.19808 0Z" fill="#818181"/>
<path d="M16.6712 42.3972H2.20676C0.988017 42.3972 3.05176e-05 41.47 3.05176e-05 40.3263L3.05176e-05 26.752C3.05176e-05 25.6082 0.988017 24.6811 2.20676 24.6811L16.6712 24.6811C17.89 24.6811 18.8779 25.6082 18.8779 26.752L18.8779 40.3263C18.8779 41.47 17.89 42.3972 16.6712 42.3972Z" fill="#818181"/>
<path d="M43.2127 42.3972H28.7482C27.5295 42.3972 26.5415 41.47 26.5415 40.3263L26.5415 26.752C26.5415 25.6082 27.5295 24.6811 28.7482 24.6811L43.2127 24.6811C44.4314 24.6811 45.4194 25.6082 45.4194 26.752V40.3263C45.4194 41.47 44.4314 42.3972 43.2127 42.3972Z" fill="#818181"/>
<path d="M69.6933 42.3972H55.2288C54.0101 42.3972 53.0221 41.47 53.0221 40.3263V26.752C53.0221 25.6082 54.0101 24.6811 55.2288 24.6811L69.6933 24.6811C70.912 24.6811 71.9 25.6082 71.9 26.752V40.3263C71.9 41.47 70.912 42.3972 69.6933 42.3972Z" fill="#818181"/>
<path d="M81.6916 42.3972H95.7595C97.1905 42.3972 98.3628 41.3051 98.3628 39.9542V27.116C98.3628 25.7732 97.1991 24.673 95.7595 24.673L81.6916 24.673C80.4762 24.673 79.4849 25.6033 79.4849 26.7439V40.3182C79.4849 41.4588 80.4762 42.3891 81.6916 42.3891V42.3972Z" fill="#818181"/>
<path d="M122.646 42.3972H108.182C106.963 42.3972 105.975 41.47 105.975 40.3263V26.752C105.975 25.6082 106.963 24.6811 108.182 24.6811L122.646 24.6811C123.865 24.6811 124.853 25.6082 124.853 26.752V40.3263C124.853 41.47 123.865 42.3972 122.646 42.3972Z" fill="#818181"/>
<path d="M108.579 49.3711H122.25C123.688 49.3711 124.854 50.4649 124.854 51.8141V64.6442C124.854 65.9935 123.688 67.0872 122.25 67.0872H108.579C107.141 67.0872 105.976 65.9935 105.976 64.6442V51.8141C105.976 50.4649 107.141 49.3711 108.579 49.3711Z" fill="#818181"/>
<path d="M55.2374 49.3707H69.7019C70.9206 49.3707 71.9086 50.2979 71.9086 51.4417V65.016C71.9086 66.1597 70.9206 67.0869 69.7019 67.0869H55.2374C54.0187 67.0869 53.0307 66.1597 53.0307 65.016V51.4417C53.0307 50.2979 54.0187 49.3707 55.2374 49.3707Z" fill="#818181"/>
<path d="M2.19808 49.3707H16.6625C17.8813 49.3707 18.8693 50.2979 18.8693 51.4417V65.016C18.8693 66.1597 17.8813 67.0869 16.6625 67.0869H2.19808C0.97934 67.0869 -0.00864601 66.1597 -0.00864601 65.016V51.4417C-0.00864601 50.2979 0.97934 49.3707 2.19808 49.3707Z" fill="#818181"/>
<path d="M43.2127 91.7681H28.7482C27.5295 91.7681 26.5415 90.8409 26.5415 89.6971L26.5415 76.1228C26.5415 74.9791 27.5295 74.0519 28.7482 74.0519H43.2127C44.4314 74.0519 45.4194 74.9791 45.4194 76.1228V89.6971C45.4194 90.8409 44.4314 91.7681 43.2127 91.7681Z" fill="#818181"/>
<path d="M69.6933 91.7681H55.2288C54.0101 91.7681 53.0221 90.8409 53.0221 89.6971V76.1228C53.0221 74.9791 54.0101 74.0519 55.2288 74.0519H69.6933C70.912 74.0519 71.9 74.9791 71.9 76.1228V89.6971C71.9 90.8409 70.912 91.7681 69.6933 91.7681Z" fill="#818181"/>
<path d="M81.6916 91.7681H95.7595C97.1905 91.7681 98.3628 90.676 98.3628 89.325V76.4869C98.3628 75.144 97.1991 74.0438 95.7595 74.0438H81.6916C80.4762 74.0438 79.4849 74.9741 79.4849 76.1148V89.689C79.4849 90.8297 80.4762 91.76 81.6916 91.76V91.7681Z" fill="#818181"/>
<path d="M122.646 91.7679H108.182C106.963 91.7679 105.975 90.8408 105.975 89.697V76.1227C105.975 74.979 106.963 74.0518 108.182 74.0518H122.646C123.865 74.0518 124.853 74.979 124.853 76.1227V89.697C124.853 90.8408 123.865 91.7679 122.646 91.7679Z" fill="#818181"/>
<path d="M108.183 98.7415H122.647C123.866 98.7415 124.854 99.6686 124.854 100.812V114.387C124.854 115.53 123.866 116.458 122.647 116.458H108.183C106.964 116.458 105.976 115.53 105.976 114.387V100.812C105.976 99.6686 106.964 98.7415 108.183 98.7415Z" fill="#818181"/>
<path d="M55.2374 98.7415H69.7019C70.9206 98.7415 71.9086 99.6686 71.9086 100.812V114.387C71.9086 115.53 70.9206 116.458 69.7019 116.458H55.2374C54.0187 116.458 53.0307 115.53 53.0307 114.387V100.812C53.0307 99.6686 54.0187 98.7415 55.2374 98.7415Z" fill="#818181"/>
<path d="M28.7481 98.7415H43.2125C44.4313 98.7415 45.4193 99.6686 45.4193 100.812V114.387C45.4193 115.53 44.4313 116.458 43.2125 116.458H28.7481C27.5293 116.458 26.5413 115.53 26.5413 114.387V100.812C26.5413 99.6686 27.5293 98.7415 28.7481 98.7415Z" fill="#818181"/>
<path d="M2.19808 98.7415H16.6625C17.8813 98.7415 18.8693 99.6686 18.8693 100.812V114.387C18.8693 115.53 17.8813 116.458 16.6625 116.458H2.19808C0.97934 116.458 -0.00864601 115.53 -0.00864601 114.387V100.812C-0.00864601 99.6686 0.97934 98.7415 2.19808 98.7415Z" fill="#818181"/>
<path d="M43.2127 141.146H28.7482C27.5295 141.146 26.5415 140.219 26.5415 139.075L26.5415 125.501C26.5415 124.357 27.5295 123.43 28.7482 123.43H43.2127C44.4314 123.43 45.4194 124.357 45.4194 125.501V139.075C45.4194 140.219 44.4314 141.146 43.2127 141.146Z" fill="#818181"/>
<path d="M69.6933 141.146H55.2288C54.0101 141.146 53.0221 140.219 53.0221 139.075V125.501C53.0221 124.357 54.0101 123.43 55.2288 123.43H69.6933C70.912 123.43 71.9 124.357 71.9 125.501V139.075C71.9 140.219 70.912 141.146 69.6933 141.146Z" fill="#818181"/>
<path d="M81.6916 141.146H95.7595C97.1905 141.146 98.3628 140.054 98.3628 138.703V125.865C98.3628 124.522 97.1991 123.422 95.7595 123.422H81.6916C80.4762 123.422 79.4849 124.352 79.4849 125.493V139.067C79.4849 140.208 80.4762 141.138 81.6916 141.138V141.146Z" fill="#818181"/>
<path d="M122.646 141.146H108.182C106.963 141.146 105.975 140.219 105.975 139.075V125.501C105.975 124.357 106.963 123.43 108.182 123.43H122.646C123.865 123.43 124.853 124.357 124.853 125.501V139.075C124.853 140.219 123.865 141.146 122.646 141.146Z" fill="#818181"/>
<path d="M255.645 147.23H241.577C240.146 147.23 238.974 148.323 238.974 149.674V162.512C238.974 163.855 240.138 164.955 241.577 164.955H255.645C256.86 164.955 257.852 164.024 257.852 162.884V149.309C257.852 148.169 256.86 147.239 255.645 147.239V147.23Z" fill="#818181"/>
<path d="M214.708 147.231H229.173C230.392 147.231 231.38 148.158 231.38 149.302V162.876C231.38 164.02 230.392 164.947 229.173 164.947H214.708C213.49 164.947 212.502 164.02 212.502 162.876V149.302C212.502 148.158 213.49 147.231 214.708 147.231Z" fill="#818181"/>
<path d="M161.677 147.231H176.142C177.361 147.231 178.349 148.158 178.349 149.302V162.876C178.349 164.02 177.361 164.947 176.142 164.947H161.677C160.459 164.947 159.471 164.02 159.471 162.876V149.302C159.471 148.158 160.459 147.231 161.677 147.231Z" fill="#818181"/>
<path d="M176.151 189.627H161.687C160.468 189.627 159.48 188.7 159.48 187.556V173.982C159.48 172.838 160.468 171.911 161.687 171.911H176.151C177.37 171.911 178.358 172.838 178.358 173.982V187.556C178.358 188.7 177.37 189.627 176.151 189.627Z" fill="#818181"/>
<path d="M135.197 147.231H149.661C150.88 147.231 151.868 148.158 151.868 149.302V162.876C151.868 164.02 150.88 164.947 149.661 164.947H135.197C133.978 164.947 132.99 164.02 132.99 162.876V149.302C132.99 148.158 133.978 147.231 135.197 147.231Z" fill="#818181"/>
<path d="M149.662 189.627H135.198C133.979 189.627 132.991 188.7 132.991 187.556V173.982C132.991 172.838 133.979 171.911 135.198 171.911H149.662C150.881 171.911 151.869 172.838 151.869 173.982V187.556C151.869 188.7 150.881 189.627 149.662 189.627Z" fill="#818181"/>
<path d="M202.692 189.627H188.227C187.009 189.627 186.021 188.7 186.021 187.557V173.982C186.021 172.838 187.009 171.911 188.227 171.911H202.692C203.911 171.911 204.899 172.838 204.899 173.982V187.557C204.899 188.7 203.911 189.627 202.692 189.627Z" fill="#818181"/>
<path d="M229.181 189.627H214.717C213.498 189.627 212.51 188.7 212.51 187.557V173.982C212.51 172.838 213.498 171.911 214.717 171.911H229.181C230.4 171.911 231.388 172.838 231.388 173.982V187.557C231.388 188.7 230.4 189.627 229.181 189.627Z" fill="#818181"/>
<path d="M282.126 189.627H267.662C266.443 189.627 265.455 188.7 265.455 187.556V173.982C265.455 172.838 266.443 171.911 267.662 171.911H282.126C283.345 171.911 284.333 172.838 284.333 173.982V187.556C284.333 188.7 283.345 189.627 282.126 189.627Z" fill="#818181"/>
<path d="M161.677 196.601H176.142C177.361 196.601 178.349 197.528 178.349 198.672V212.246C178.349 213.39 177.361 214.317 176.142 214.317H161.677C160.459 214.317 159.471 213.39 159.471 212.246V198.672C159.471 197.528 160.459 196.601 161.677 196.601Z" fill="#818181"/>
<path d="M135.197 196.601H149.661C150.88 196.601 151.868 197.528 151.868 198.672V212.246C151.868 213.39 150.88 214.317 149.661 214.317H135.197C133.978 214.317 132.99 213.39 132.99 212.246V198.672C132.99 197.528 133.978 196.601 135.197 196.601Z" fill="#818181"/>
<path d="M108.183 147.231H122.647C123.866 147.231 124.854 148.158 124.854 149.302V162.876C124.854 164.02 123.866 164.947 122.647 164.947H108.183C106.964 164.947 105.976 164.02 105.976 162.876V149.302C105.976 148.158 106.964 147.231 108.183 147.231Z" fill="#818181"/>
<path d="M96.1653 147.23H82.0973C80.6664 147.23 79.4941 148.322 79.4941 149.673V162.511C79.4941 163.854 80.6578 164.954 82.0973 164.954H96.1653C97.3807 164.954 98.372 164.024 98.372 162.883V149.309C98.372 148.168 97.3807 147.238 96.1653 147.238V147.23Z" fill="#818181"/>
<path d="M96.1653 216.766H82.0973C80.6664 216.766 79.4941 217.858 79.4941 219.209V232.047C79.4941 233.39 80.6578 234.49 82.0973 234.49H96.1653C97.3807 234.49 98.372 233.56 98.372 232.419V218.845C98.372 217.705 97.3807 216.774 96.1653 216.774V216.766Z" fill="#818181"/>
<path d="M28.7481 147.23H43.2125C44.4313 147.23 45.4193 148.158 45.4193 149.301V162.876C45.4193 164.019 44.4313 164.947 43.2125 164.947H28.7481C27.5293 164.947 26.5413 164.019 26.5413 162.876V149.301C26.5413 148.158 27.5293 147.23 28.7481 147.23Z" fill="#818181"/>
<path d="M43.2127 189.627H28.7482C27.5295 189.627 26.5415 188.7 26.5415 187.556L26.5415 173.982C26.5415 172.838 27.5295 171.911 28.7482 171.911H43.2127C44.4314 171.911 45.4194 172.838 45.4194 173.982V187.556C45.4194 188.7 44.4314 189.627 43.2127 189.627Z" fill="#818181"/>
<path d="M108.579 196.601H122.25C123.688 196.601 124.854 197.695 124.854 199.044V211.874C124.854 213.224 123.688 214.317 122.25 214.317H108.579C107.141 214.317 105.976 213.224 105.976 211.874V199.044C105.976 197.695 107.141 196.601 108.579 196.601Z" fill="#818181"/>
<path d="M28.7481 196.601H43.2125C44.4313 196.601 45.4193 197.528 45.4193 198.672V212.246C45.4193 213.39 44.4313 214.317 43.2125 214.317H28.7481C27.5293 214.317 26.5413 213.39 26.5413 212.246V198.672C26.5413 197.528 27.5293 196.601 28.7481 196.601Z" fill="#818181"/>
</g>
<defs>
<clipPath id="clip0_1_2469">
<rect width="284.332" height="239.006" fill="white" transform="matrix(-1 0 0 1 284.332 0)"/>
</clipPath>
</defs>
</svg>
