<svg width="184" height="44" viewBox="0 0 184 44" fill="none" xmlns="http://www.w3.org/2000/svg">
<g clip-path="url(#clip0_1_2610)">
<path d="M63.1726 0.0961914H67.1869V34.245H63.711L63.1726 30.244C61.5078 32.5362 58.816 34.5367 54.6085 34.5367C47.7065 34.5367 42.6183 29.9028 42.6183 21.8045C42.6183 14.1933 47.7092 9.0723 54.6085 9.0723C58.8188 9.0723 61.6569 10.7811 63.1726 13.1696V0.0961914ZM63.2223 21.9008C63.2223 16.4359 59.8928 12.633 55.0006 12.633C50.1084 12.633 46.7292 16.3891 46.7292 21.8045C46.7292 27.2199 50.0559 30.976 55.0006 30.976C59.9452 30.976 63.2223 27.2199 63.2223 21.9036V21.9008Z" fill="#0E0E0F"/>
<path d="M68.1633 21.8044C68.1633 14.2426 72.9589 9.07214 80.0073 9.07214C87.0557 9.07214 91.6552 13.5107 91.8512 20.877C91.8512 21.4136 91.8015 21.9997 91.7546 22.5831H72.3736V22.9243C72.5199 27.6573 75.5071 30.9731 80.253 30.9731C83.7758 30.9731 86.5173 29.1184 87.3511 25.8989H91.4122C90.4321 30.874 86.3213 34.5338 80.5456 34.5338C73.0583 34.5338 68.1633 29.4129 68.1633 21.8016V21.8044ZM87.5443 19.2673C87.1523 14.9746 84.2175 12.5833 80.057 12.5833C76.3851 12.5833 73.0086 15.2167 72.6165 19.2673H87.5443Z" fill="#0E0E0F"/>
<path d="M115.149 20.3896V34.2445H111.135V20.6345C111.135 15.464 108.736 12.7316 104.382 12.7316C99.6832 12.7316 96.8451 16.196 96.8451 21.804V34.2445H92.8309V9.36621H96.3068L96.8451 12.7316C98.3139 10.8301 100.859 9.07178 105.067 9.07178C110.696 9.07178 115.149 12.1454 115.149 20.3896V20.3896Z" fill="#0E0E0F"/>
<path d="M119.751 26.0496C119.897 28.9774 122.492 31.1238 126.653 31.1238C130.176 31.1238 132.672 29.6103 132.672 27.3181C132.672 24.1949 129.93 23.9528 126.211 23.5125C120.632 22.8301 116.179 21.7074 116.179 16.5369C116.179 11.9993 120.339 9.02469 125.968 9.07422C131.645 9.12375 135.758 11.7571 136.148 16.9276H132.037C131.744 14.3905 129.395 12.4891 125.968 12.4891C122.542 12.4891 120.143 13.953 120.143 16.2452C120.143 18.9777 122.785 19.3189 126.407 19.7564C132.084 20.4388 136.636 21.512 136.636 27.0237C136.636 31.6576 132.183 34.5359 126.653 34.5359C120.193 34.5359 115.74 31.5117 115.64 26.0468H119.751V26.0496Z" fill="#0E0E0F"/>
<path d="M138.89 2.58662C138.89 1.07317 140.016 0 141.485 0C142.954 0 144.08 1.07317 144.08 2.58662C144.08 4.10006 142.954 5.17323 141.485 5.17323C140.016 5.17323 138.89 4.10006 138.89 2.58662ZM139.428 9.36685H143.442V34.2451H139.428V9.36685Z" fill="#0E0E0F"/>
<path d="M149.115 13.0245H144.612V9.3647H149.115V2.39185H153.129V9.36746H159.589V13.0272H153.129V27.7104C153.129 29.8072 153.863 30.5887 156.017 30.5887H159.981V34.2485H155.625C150.829 34.2485 149.115 32.1517 149.115 27.76V13.0245Z" fill="#0E0E0F"/>
<path d="M160.278 9.36719H164.535L172.218 29.2208L179.659 9.36719H183.916L172.414 38.4419C170.849 42.4429 169.918 44.0031 166.396 44.0031H161.6V40.3433H165.172C167.472 40.3433 167.864 39.7572 168.795 37.4155L170.018 34.3913L160.278 9.36719V9.36719Z" fill="#0E0E0F"/>
<path d="M3.8417 5.90283H1.08639C0.85463 5.90283 0.666748 6.09009 0.666748 6.32109V9.06731C0.666748 9.29831 0.85463 9.48557 1.08639 9.48557H3.8417C4.07346 9.48557 4.26134 9.29831 4.26134 9.06731V6.32109C4.26134 6.09009 4.07346 5.90283 3.8417 5.90283Z" fill="#0E0E0F"/>
<path d="M8.81232 5.90283H6.13156C5.89965 5.90283 5.71191 6.08995 5.71191 6.32109V9.06731C5.71191 9.29845 5.89965 9.48557 6.13156 9.48557H8.81232C9.08564 9.48557 9.30651 9.26543 9.30651 8.99301V6.39814C9.30651 6.12572 9.08564 5.90558 8.81232 5.90558V5.90283Z" fill="#0E0E0F"/>
<path d="M13.9249 5.90283H11.1696C10.9379 5.90283 10.75 6.09009 10.75 6.32109V9.06731C10.75 9.29831 10.9379 9.48557 11.1696 9.48557H13.9249C14.1567 9.48557 14.3446 9.29831 14.3446 9.06731V6.32109C14.3446 6.09009 14.1567 5.90283 13.9249 5.90283Z" fill="#0E0E0F"/>
<path d="M18.9702 5.90283H16.2149C15.9832 5.90283 15.7953 6.09009 15.7953 6.32109V9.06731C15.7953 9.29831 15.9832 9.48557 16.2149 9.48557H18.9702C19.202 9.48557 19.3899 9.29831 19.3899 9.06731V6.32109C19.3899 6.09009 19.202 5.90283 18.9702 5.90283Z" fill="#0E0E0F"/>
<path d="M24.0298 10.8979H21.2745C21.0427 10.8979 20.8549 11.0852 20.8549 11.3162V14.0624C20.8549 14.2934 21.0427 14.4807 21.2745 14.4807H24.0298C24.2616 14.4807 24.4495 14.2934 24.4495 14.0624V11.3162C24.4495 11.0852 24.2616 10.8979 24.0298 10.8979Z" fill="#0E0E0F"/>
<path d="M18.9702 10.8979H16.2149C15.9832 10.8979 15.7953 11.0852 15.7953 11.3162V14.0624C15.7953 14.2934 15.9832 14.4807 16.2149 14.4807H18.9702C19.202 14.4807 19.3899 14.2934 19.3899 14.0624V11.3162C19.3899 11.0852 19.202 10.8979 18.9702 10.8979Z" fill="#0E0E0F"/>
<path d="M13.9249 10.8979H11.1696C10.9379 10.8979 10.75 11.0852 10.75 11.3162V14.0624C10.75 14.2934 10.9379 14.4807 11.1696 14.4807H13.9249C14.1567 14.4807 14.3446 14.2934 14.3446 14.0624V11.3162C14.3446 11.0852 14.1567 10.8979 13.9249 10.8979Z" fill="#0E0E0F"/>
<path d="M8.88686 10.8972H6.2061C5.93278 10.8972 5.71191 11.1173 5.71191 11.3897V13.9846C5.71191 14.257 5.93278 14.4771 6.2061 14.4771H8.88686C9.11877 14.4771 9.30651 14.29 9.30651 14.0589V11.3127C9.30651 11.0815 9.11877 10.8944 8.88686 10.8944V10.8972Z" fill="#0E0E0F"/>
<path d="M3.84164 10.8979H1.08633C0.854569 10.8979 0.666687 11.0852 0.666687 11.3162V14.0624C0.666687 14.2934 0.854569 14.4807 1.08633 14.4807H3.84164C4.0734 14.4807 4.26128 14.2934 4.26128 14.0624V11.3162C4.26128 11.0852 4.0734 10.8979 3.84164 10.8979Z" fill="#0E0E0F"/>
<path d="M3.76667 15.8917H1.16045C0.887515 15.8917 0.66626 16.1122 0.66626 16.3843V18.9819C0.66626 19.2539 0.887515 19.4745 1.16045 19.4745H3.76667C4.0396 19.4745 4.26085 19.2539 4.26085 18.9819V16.3843C4.26085 16.1122 4.0396 15.8917 3.76667 15.8917Z" fill="#0E0E0F"/>
<path d="M8.88686 15.8922H6.2061C5.93278 15.8922 5.71191 16.1123 5.71191 16.3847V18.9796C5.71191 19.252 5.93278 19.4721 6.2061 19.4721H8.88686C9.11877 19.4721 9.30651 19.285 9.30651 19.0539V16.3077C9.30651 16.0765 9.11877 15.8894 8.88686 15.8894V15.8922Z" fill="#0E0E0F"/>
<path d="M13.9249 15.8912H11.1696C10.9379 15.8912 10.75 16.0785 10.75 16.3095V19.0557C10.75 19.2867 10.9379 19.474 11.1696 19.474H13.9249C14.1567 19.474 14.3446 19.2867 14.3446 19.0557V16.3095C14.3446 16.0785 14.1567 15.8912 13.9249 15.8912Z" fill="#0E0E0F"/>
<path d="M18.9702 15.8917H16.2149C15.9832 15.8917 15.7953 16.079 15.7953 16.31V19.0562C15.7953 19.2872 15.9832 19.4745 16.2149 19.4745H18.9702C19.202 19.4745 19.3899 19.2872 19.3899 19.0562V16.31C19.3899 16.079 19.202 15.8917 18.9702 15.8917Z" fill="#0E0E0F"/>
<path d="M24.0298 15.8912H21.2745C21.0427 15.8912 20.8549 16.0785 20.8549 16.3095V19.0557C20.8549 19.2867 21.0427 19.474 21.2745 19.474H24.0298C24.2616 19.474 24.4495 19.2867 24.4495 19.0557V16.3095C24.4495 16.0785 24.2616 15.8912 24.0298 15.8912Z" fill="#0E0E0F"/>
<path d="M29.0715 15.8912H26.3162C26.0844 15.8912 25.8965 16.0785 25.8965 16.3095V19.0557C25.8965 19.2867 26.0844 19.474 26.3162 19.474H29.0715C29.3033 19.474 29.4911 19.2867 29.4911 19.0557V16.3095C29.4911 16.0785 29.3033 15.8912 29.0715 15.8912Z" fill="#0E0E0F"/>
<path d="M29.0715 20.8864H26.3162C26.0844 20.8864 25.8965 21.0736 25.8965 21.3046V24.0508C25.8965 24.2818 26.0844 24.4691 26.3162 24.4691H29.0715C29.3033 24.4691 29.4911 24.2818 29.4911 24.0508V21.3046C29.4911 21.0736 29.3033 20.8864 29.0715 20.8864Z" fill="#0E0E0F"/>
<path d="M24.0298 20.8864H21.2745C21.0427 20.8864 20.8549 21.0736 20.8549 21.3046V24.0508C20.8549 24.2818 21.0427 24.4691 21.2745 24.4691H24.0298C24.2616 24.4691 24.4495 24.2818 24.4495 24.0508V21.3046C24.4495 21.0736 24.2616 20.8864 24.0298 20.8864Z" fill="#0E0E0F"/>
<path d="M18.9702 20.8864H16.2149C15.9832 20.8864 15.7953 21.0736 15.7953 21.3046V24.0508C15.7953 24.2818 15.9832 24.4691 16.2149 24.4691H18.9702C19.202 24.4691 19.3899 24.2818 19.3899 24.0508V21.3046C19.3899 21.0736 19.202 20.8864 18.9702 20.8864Z" fill="#0E0E0F"/>
<path d="M13.9249 20.8864H11.1696C10.9379 20.8864 10.75 21.0736 10.75 21.3046V24.0508C10.75 24.2818 10.9379 24.4691 11.1696 24.4691H13.9249C14.1567 24.4691 14.3446 24.2818 14.3446 24.0508V21.3046C14.3446 21.0736 14.1567 20.8864 13.9249 20.8864Z" fill="#0E0E0F"/>
<path d="M8.88686 20.8856H6.2061C5.93278 20.8856 5.71191 21.1057 5.71191 21.3781V23.973C5.71191 24.2454 5.93278 24.4656 6.2061 24.4656H8.88686C9.11877 24.4656 9.30651 24.2784 9.30651 24.0473V21.3011C9.30651 21.0699 9.11877 20.8828 8.88686 20.8828V20.8856Z" fill="#0E0E0F"/>
<path d="M3.84164 20.8864H1.08633C0.854569 20.8864 0.666687 21.0736 0.666687 21.3046V24.0508C0.666687 24.2818 0.854569 24.4691 1.08633 24.4691H3.84164C4.0734 24.4691 4.26128 24.2818 4.26128 24.0508V21.3046C4.26128 21.0736 4.0734 20.8864 3.84164 20.8864Z" fill="#0E0E0F"/>
<path d="M3.84121 25.88H1.08591C0.854141 25.88 0.66626 26.0673 0.66626 26.2983V29.0445C0.66626 29.2755 0.854141 29.4627 1.08591 29.4627H3.84121C4.07297 29.4627 4.26085 29.2755 4.26085 29.0445V26.2983C4.26085 26.0673 4.07297 25.88 3.84121 25.88Z" fill="#0E0E0F"/>
<path d="M8.81173 25.8699H6.13097C5.85765 25.8699 5.63678 26.0901 5.63678 26.3625V28.9574C5.63678 29.2298 5.85765 29.4499 6.13097 29.4499H8.81173C9.04364 29.4499 9.23137 29.2628 9.23137 29.0317V26.2854C9.23137 26.0543 9.04364 25.8672 8.81173 25.8672V25.8699Z" fill="#0E0E0F"/>
<path d="M13.9249 25.8798H11.1696C10.9379 25.8798 10.75 26.067 10.75 26.298V29.0442C10.75 29.2752 10.9379 29.4625 11.1696 29.4625H13.9249C14.1567 29.4625 14.3446 29.2752 14.3446 29.0442V26.298C14.3446 26.067 14.1567 25.8798 13.9249 25.8798Z" fill="#0E0E0F"/>
<path d="M18.9702 25.88H16.2149C15.9832 25.88 15.7953 26.0673 15.7953 26.2983V29.0445C15.7953 29.2755 15.9832 29.4627 16.2149 29.4627H18.9702C19.202 29.4627 19.3899 29.2755 19.3899 29.0445V26.2983C19.3899 26.0673 19.202 25.88 18.9702 25.88Z" fill="#0E0E0F"/>
<path d="M24.0298 25.8798H21.2745C21.0427 25.8798 20.8549 26.067 20.8549 26.298V29.0442C20.8549 29.2752 21.0427 29.4625 21.2745 29.4625H24.0298C24.2616 29.4625 24.4495 29.2752 24.4495 29.0442V26.298C24.4495 26.067 24.2616 25.8798 24.0298 25.8798Z" fill="#0E0E0F"/>
<path d="M18.9702 30.8712H16.2149C15.9832 30.8712 15.7953 31.0585 15.7953 31.2895V34.0357C15.7953 34.2667 15.9832 34.454 16.2149 34.454H18.9702C19.202 34.454 19.3899 34.2667 19.3899 34.0357V31.2895C19.3899 31.0585 19.202 30.8712 18.9702 30.8712Z" fill="#0E0E0F"/>
<path d="M13.9249 30.8712H11.1696C10.9379 30.8712 10.75 31.0585 10.75 31.2895V34.0357C10.75 34.2667 10.9379 34.454 11.1696 34.454H13.9249C14.1567 34.454 14.3446 34.2667 14.3446 34.0357V31.2895C14.3446 31.0585 14.1567 30.8712 13.9249 30.8712Z" fill="#0E0E0F"/>
<path d="M8.88686 30.8723H6.2061C5.93278 30.8723 5.71191 31.0924 5.71191 31.3648V33.9597C5.71191 34.2321 5.93278 34.4522 6.2061 34.4522H8.88686C9.11877 34.4522 9.30651 34.2651 9.30651 34.034V31.2878C9.30651 31.0566 9.11877 30.8695 8.88686 30.8695V30.8723Z" fill="#0E0E0F"/>
<path d="M3.84164 30.8712H1.08633C0.854569 30.8712 0.666687 31.0585 0.666687 31.2895V34.0357C0.666687 34.2667 0.854569 34.454 1.08633 34.454H3.84164C4.0734 34.454 4.26128 34.2667 4.26128 34.0357V31.2895C4.26128 31.0585 4.0734 30.8712 3.84164 30.8712Z" fill="#0E0E0F"/>
</g>
<defs>
<clipPath id="clip0_1_2610">
<rect width="183.247" height="44" fill="white" transform="translate(0.666626)"/>
</clipPath>
</defs>
</svg>
