<svg width="285" height="239" viewBox="0 0 285 239" fill="none" xmlns="http://www.w3.org/2000/svg">
<g style="mix-blend-mode:multiply" opacity="0.02" clip-path="url(#clip0_1_2540)">
<path d="M268.328 0H282.792C284.011 0 284.999 0.927187 284.999 2.07093V15.6452C284.999 16.789 284.011 17.7162 282.792 17.7162H268.328C267.109 17.7162 266.121 16.789 266.121 15.6452V2.07093C266.121 0.927187 267.109 0 268.328 0Z" fill="black"/>
<path d="M256.312 0H242.244C240.804 0 239.64 1.09209 239.64 2.44305V15.2812C239.64 16.6241 240.804 17.7242 242.244 17.7242H256.312C257.527 17.7242 258.518 16.7939 258.518 15.6533V2.07093C258.518 0.9303 257.527 0 256.312 0Z" fill="black"/>
<path d="M188.894 0H203.359C204.578 0 205.566 0.927187 205.566 2.07093V15.6452C205.566 16.789 204.578 17.7162 203.359 17.7162H188.894C187.676 17.7162 186.688 16.789 186.688 15.6452V2.07093C186.688 0.927187 187.676 0 188.894 0Z" fill="black"/>
<path d="M176.818 42.3972H162.353C161.134 42.3972 160.146 41.47 160.146 40.3263V26.752C160.146 25.6082 161.134 24.6811 162.353 24.6811L176.818 24.6811C178.036 24.6811 179.024 25.6082 179.024 26.752V40.3263C179.024 41.47 178.036 42.3972 176.818 42.3972Z" fill="black"/>
<path d="M135.863 0H150.328C151.547 0 152.535 0.927187 152.535 2.07093V15.6452C152.535 16.789 151.547 17.7162 150.328 17.7162H135.863C134.645 17.7162 133.657 16.789 133.657 15.6452V2.07093C133.657 0.927187 134.645 0 135.863 0Z" fill="black"/>
<path d="M150.329 42.3972H135.864C134.645 42.3972 133.657 41.47 133.657 40.3263V26.752C133.657 25.6082 134.645 24.6811 135.864 24.6811L150.329 24.6811C151.547 24.6811 152.535 25.6082 152.535 26.752V40.3263C152.535 41.47 151.547 42.3972 150.329 42.3972Z" fill="black"/>
<path d="M229.848 42.3972H215.384C214.165 42.3972 213.177 41.47 213.177 40.3263V26.752C213.177 25.6082 214.165 24.6811 215.384 24.6811L229.848 24.6811C231.067 24.6811 232.055 25.6082 232.055 26.752V40.3263C232.055 41.47 231.067 42.3972 229.848 42.3972Z" fill="black"/>
<path d="M241.839 42.3972H255.906C257.337 42.3972 258.51 41.3051 258.51 39.9542V27.116C258.51 25.7732 257.346 24.673 255.906 24.673L241.839 24.673C240.623 24.673 239.632 25.6033 239.632 26.7439V40.3182C239.632 41.4588 240.623 42.3891 241.839 42.3891V42.3972Z" fill="black"/>
<path d="M215.375 49.3711H229.839C231.058 49.3711 232.046 50.2983 232.046 51.442V65.0163C232.046 66.1601 231.058 67.0872 229.839 67.0872H215.375C214.156 67.0872 213.168 66.1601 213.168 65.0163V51.442C213.168 50.2983 214.156 49.3711 215.375 49.3711Z" fill="black"/>
<path d="M188.894 49.3711H203.359C204.578 49.3711 205.566 50.2983 205.566 51.442V65.0163C205.566 66.1601 204.578 67.0872 203.359 67.0872H188.894C187.676 67.0872 186.688 66.1601 186.688 65.0163V51.442C186.688 50.2983 187.676 49.3711 188.894 49.3711Z" fill="black"/>
<path d="M176.818 91.7681H162.353C161.134 91.7681 160.146 90.8409 160.146 89.6971V76.1228C160.146 74.9791 161.134 74.0519 162.353 74.0519H176.818C178.036 74.0519 179.024 74.9791 179.024 76.1228V89.6971C179.024 90.8409 178.036 91.7681 176.818 91.7681Z" fill="black"/>
<path d="M203.358 91.7679H188.894C187.675 91.7679 186.687 90.8408 186.687 89.697V76.1227C186.687 74.979 187.675 74.0518 188.894 74.0518H203.358C204.577 74.0518 205.565 74.979 205.565 76.1227V89.697C205.565 90.8408 204.577 91.7679 203.358 91.7679Z" fill="black"/>
<path d="M241.839 91.7681H255.906C257.337 91.7681 258.51 90.676 258.51 89.325V76.4869C258.51 75.144 257.346 74.0438 255.906 74.0438H241.839C240.623 74.0438 239.632 74.9741 239.632 76.1148V89.689C239.632 90.8297 240.623 91.76 241.839 91.76V91.7681Z" fill="black"/>
<path d="M282.793 91.7681H268.328C267.109 91.7681 266.121 90.8409 266.121 89.6971V76.1228C266.121 74.9791 267.109 74.0519 268.328 74.0519H282.793C284.011 74.0519 284.999 74.9791 284.999 76.1228V89.6971C284.999 90.8409 284.011 91.7681 282.793 91.7681Z" fill="black"/>
<path d="M255.915 98.7409H241.847C240.632 98.7409 239.64 99.6712 239.64 100.812V114.386C239.64 115.527 240.632 116.457 241.847 116.457H255.915C257.346 116.457 258.518 115.365 258.518 114.014V101.176C258.518 99.833 257.355 98.7328 255.915 98.7328V98.7409Z" fill="black"/>
<path d="M215.375 98.7415H229.839C231.058 98.7415 232.046 99.6686 232.046 100.812V114.387C232.046 115.53 231.058 116.458 229.839 116.458H215.375C214.156 116.458 213.168 115.53 213.168 114.387V100.812C213.168 99.6686 214.156 98.7415 215.375 98.7415Z" fill="black"/>
<path d="M188.894 98.7415H203.359C204.578 98.7415 205.566 99.6686 205.566 100.812V114.387C205.566 115.53 204.578 116.458 203.359 116.458H188.894C187.676 116.458 186.688 115.53 186.688 114.387V100.812C186.688 99.6686 187.676 98.7415 188.894 98.7415Z" fill="black"/>
<path d="M162.344 98.7415H176.808C178.027 98.7415 179.015 99.6686 179.015 100.812V114.387C179.015 115.53 178.027 116.458 176.808 116.458H162.344C161.125 116.458 160.137 115.53 160.137 114.387V100.812C160.137 99.6686 161.125 98.7415 162.344 98.7415Z" fill="black"/>
<path d="M135.863 98.7415H150.328C151.547 98.7415 152.535 99.6686 152.535 100.812V114.387C152.535 115.53 151.547 116.458 150.328 116.458H135.863C134.645 116.458 133.657 115.53 133.657 114.387V100.812C133.657 99.6686 134.645 98.7415 135.863 98.7415Z" fill="black"/>
<path d="M203.358 141.146H188.894C187.675 141.146 186.687 140.219 186.687 139.075V125.501C186.687 124.357 187.675 123.43 188.894 123.43H203.358C204.577 123.43 205.565 124.357 205.565 125.501V139.075C205.565 140.219 204.577 141.146 203.358 141.146Z" fill="black"/>
<path d="M229.848 141.146H215.384C214.165 141.146 213.177 140.219 213.177 139.075V125.501C213.177 124.357 214.165 123.43 215.384 123.43H229.848C231.067 123.43 232.055 124.357 232.055 125.501V139.075C232.055 140.219 231.067 141.146 229.848 141.146Z" fill="black"/>
<path d="M150.329 141.146H135.864C134.645 141.146 133.657 140.219 133.657 139.075V125.501C133.657 124.357 134.645 123.43 135.864 123.43H150.329C151.547 123.43 152.535 124.357 152.535 125.501V139.075C152.535 140.219 151.547 141.146 150.329 141.146Z" fill="black"/>
<path d="M29.4146 0H43.8791C45.0978 0 46.0858 0.927187 46.0858 2.07093V15.6452C46.0858 16.789 45.0978 17.7162 43.8791 17.7162H29.4146C28.1959 17.7162 27.2079 16.789 27.2079 15.6452V2.07093C27.2079 0.927187 28.1959 0 29.4146 0Z" fill="black"/>
<path d="M2.86471 0H17.3292C18.5479 0 19.5359 0.927187 19.5359 2.07093V15.6452C19.5359 16.789 18.5479 17.7162 17.3292 17.7162H2.86471C1.64596 17.7162 0.657978 16.789 0.657978 15.6452V2.07093C0.657978 0.927187 1.64596 0 2.86471 0Z" fill="black"/>
<path d="M17.3378 42.3972H2.87336C1.65461 42.3972 0.666626 41.47 0.666626 40.3263L0.666626 26.752C0.666626 25.6082 1.65461 24.6811 2.87336 24.6811L17.3378 24.6811C18.5566 24.6811 19.5445 25.6082 19.5445 26.752L19.5445 40.3263C19.5445 41.47 18.5566 42.3972 17.3378 42.3972Z" fill="black"/>
<path d="M43.8793 42.3972H29.4149C28.1961 42.3972 27.2081 41.47 27.2081 40.3263L27.2081 26.752C27.2081 25.6082 28.1961 24.6811 29.4149 24.6811L43.8793 24.6811C45.0981 24.6811 46.086 25.6082 46.086 26.752V40.3263C46.086 41.47 45.0981 42.3972 43.8793 42.3972Z" fill="black"/>
<path d="M70.3599 42.3972H55.8955C54.6767 42.3972 53.6887 41.47 53.6887 40.3263V26.752C53.6887 25.6082 54.6767 24.6811 55.8955 24.6811L70.3599 24.6811C71.5786 24.6811 72.5666 25.6082 72.5666 26.752V40.3263C72.5666 41.47 71.5786 42.3972 70.3599 42.3972Z" fill="black"/>
<path d="M82.3582 42.3972H96.4262C97.8571 42.3972 99.0294 41.3051 99.0294 39.9542V27.116C99.0294 25.7732 97.8657 24.673 96.4262 24.673L82.3582 24.673C81.1428 24.673 80.1515 25.6033 80.1515 26.7439V40.3182C80.1515 41.4588 81.1428 42.3891 82.3582 42.3891V42.3972Z" fill="black"/>
<path d="M123.313 42.3972H108.848C107.63 42.3972 106.642 41.47 106.642 40.3263V26.752C106.642 25.6082 107.63 24.6811 108.848 24.6811L123.313 24.6811C124.532 24.6811 125.52 25.6082 125.52 26.752V40.3263C125.52 41.47 124.532 42.3972 123.313 42.3972Z" fill="black"/>
<path d="M109.246 49.3711H122.917C124.355 49.3711 125.52 50.4649 125.52 51.8141V64.6442C125.52 65.9935 124.355 67.0872 122.917 67.0872H109.246C107.808 67.0872 106.642 65.9935 106.642 64.6442V51.8141C106.642 50.4649 107.808 49.3711 109.246 49.3711Z" fill="black"/>
<path d="M55.904 49.3707H70.3685C71.5872 49.3707 72.5752 50.2979 72.5752 51.4417V65.016C72.5752 66.1597 71.5872 67.0869 70.3685 67.0869H55.904C54.6853 67.0869 53.6973 66.1597 53.6973 65.016V51.4417C53.6973 50.2979 54.6853 49.3707 55.904 49.3707Z" fill="black"/>
<path d="M2.86471 49.3707H17.3292C18.5479 49.3707 19.5359 50.2979 19.5359 51.4417V65.016C19.5359 66.1597 18.5479 67.0869 17.3292 67.0869H2.86471C1.64596 67.0869 0.657978 66.1597 0.657978 65.016V51.4417C0.657978 50.2979 1.64596 49.3707 2.86471 49.3707Z" fill="black"/>
<path d="M43.8793 91.7681H29.4149C28.1961 91.7681 27.2081 90.8409 27.2081 89.6971L27.2081 76.1228C27.2081 74.9791 28.1961 74.0519 29.4149 74.0519H43.8793C45.0981 74.0519 46.086 74.9791 46.086 76.1228V89.6971C46.086 90.8409 45.0981 91.7681 43.8793 91.7681Z" fill="black"/>
<path d="M70.3599 91.7681H55.8955C54.6767 91.7681 53.6887 90.8409 53.6887 89.6971V76.1228C53.6887 74.9791 54.6767 74.0519 55.8955 74.0519H70.3599C71.5786 74.0519 72.5666 74.9791 72.5666 76.1228V89.6971C72.5666 90.8409 71.5786 91.7681 70.3599 91.7681Z" fill="black"/>
<path d="M82.3582 91.7681H96.4262C97.8571 91.7681 99.0294 90.676 99.0294 89.325V76.4869C99.0294 75.144 97.8657 74.0438 96.4262 74.0438H82.3582C81.1428 74.0438 80.1515 74.9741 80.1515 76.1148V89.689C80.1515 90.8297 81.1428 91.76 82.3582 91.76V91.7681Z" fill="black"/>
<path d="M123.313 91.7679H108.848C107.63 91.7679 106.642 90.8408 106.642 89.697V76.1227C106.642 74.979 107.63 74.0518 108.848 74.0518H123.313C124.532 74.0518 125.52 74.979 125.52 76.1227V89.697C125.52 90.8408 124.532 91.7679 123.313 91.7679Z" fill="black"/>
<path d="M108.849 98.7415H123.314C124.532 98.7415 125.52 99.6686 125.52 100.812V114.387C125.52 115.53 124.532 116.458 123.314 116.458H108.849C107.63 116.458 106.642 115.53 106.642 114.387V100.812C106.642 99.6686 107.63 98.7415 108.849 98.7415Z" fill="black"/>
<path d="M55.904 98.7415H70.3685C71.5872 98.7415 72.5752 99.6686 72.5752 100.812V114.387C72.5752 115.53 71.5872 116.458 70.3685 116.458H55.904C54.6853 116.458 53.6973 115.53 53.6973 114.387V100.812C53.6973 99.6686 54.6853 98.7415 55.904 98.7415Z" fill="black"/>
<path d="M29.4146 98.7415H43.8791C45.0978 98.7415 46.0858 99.6686 46.0858 100.812V114.387C46.0858 115.53 45.0978 116.458 43.8791 116.458H29.4146C28.1959 116.458 27.2079 115.53 27.2079 114.387V100.812C27.2079 99.6686 28.1959 98.7415 29.4146 98.7415Z" fill="black"/>
<path d="M2.86471 98.7415H17.3292C18.5479 98.7415 19.5359 99.6686 19.5359 100.812V114.387C19.5359 115.53 18.5479 116.458 17.3292 116.458H2.86471C1.64596 116.458 0.657978 115.53 0.657978 114.387V100.812C0.657978 99.6686 1.64596 98.7415 2.86471 98.7415Z" fill="black"/>
<path d="M43.8793 141.146H29.4149C28.1961 141.146 27.2081 140.219 27.2081 139.075L27.2081 125.501C27.2081 124.357 28.1961 123.43 29.4149 123.43H43.8793C45.0981 123.43 46.086 124.357 46.086 125.501V139.075C46.086 140.219 45.0981 141.146 43.8793 141.146Z" fill="black"/>
<path d="M70.3599 141.146H55.8955C54.6767 141.146 53.6887 140.219 53.6887 139.075V125.501C53.6887 124.357 54.6767 123.43 55.8955 123.43H70.3599C71.5786 123.43 72.5666 124.357 72.5666 125.501V139.075C72.5666 140.219 71.5786 141.146 70.3599 141.146Z" fill="black"/>
<path d="M82.3582 141.146H96.4262C97.8571 141.146 99.0294 140.054 99.0294 138.703V125.865C99.0294 124.522 97.8657 123.422 96.4262 123.422H82.3582C81.1428 123.422 80.1515 124.352 80.1515 125.493V139.067C80.1515 140.208 81.1428 141.138 82.3582 141.138V141.146Z" fill="black"/>
<path d="M123.313 141.146H108.848C107.63 141.146 106.642 140.219 106.642 139.075V125.501C106.642 124.357 107.63 123.43 108.848 123.43H123.313C124.532 123.43 125.52 124.357 125.52 125.501V139.075C125.52 140.219 124.532 141.146 123.313 141.146Z" fill="black"/>
<path d="M256.312 147.23H242.244C240.813 147.23 239.64 148.323 239.64 149.674V162.512C239.64 163.855 240.804 164.955 242.244 164.955H256.312C257.527 164.955 258.518 164.024 258.518 162.884V149.309C258.518 148.169 257.527 147.239 256.312 147.239V147.23Z" fill="black"/>
<path d="M215.375 147.231H229.839C231.058 147.231 232.046 148.158 232.046 149.302V162.876C232.046 164.02 231.058 164.947 229.839 164.947H215.375C214.156 164.947 213.168 164.02 213.168 162.876V149.302C213.168 148.158 214.156 147.231 215.375 147.231Z" fill="black"/>
<path d="M162.344 147.231H176.808C178.027 147.231 179.015 148.158 179.015 149.302V162.876C179.015 164.02 178.027 164.947 176.808 164.947H162.344C161.125 164.947 160.137 164.02 160.137 162.876V149.302C160.137 148.158 161.125 147.231 162.344 147.231Z" fill="black"/>
<path d="M176.818 189.627H162.353C161.134 189.627 160.146 188.7 160.146 187.556V173.982C160.146 172.838 161.134 171.911 162.353 171.911H176.818C178.036 171.911 179.024 172.838 179.024 173.982V187.556C179.024 188.7 178.036 189.627 176.818 189.627Z" fill="black"/>
<path d="M135.863 147.231H150.328C151.547 147.231 152.535 148.158 152.535 149.302V162.876C152.535 164.02 151.547 164.947 150.328 164.947H135.863C134.645 164.947 133.657 164.02 133.657 162.876V149.302C133.657 148.158 134.645 147.231 135.863 147.231Z" fill="black"/>
<path d="M150.329 189.627H135.864C134.645 189.627 133.657 188.7 133.657 187.556V173.982C133.657 172.838 134.645 171.911 135.864 171.911H150.329C151.547 171.911 152.535 172.838 152.535 173.982V187.556C152.535 188.7 151.547 189.627 150.329 189.627Z" fill="black"/>
<path d="M203.359 189.627H188.894C187.675 189.627 186.687 188.7 186.687 187.557V173.982C186.687 172.838 187.675 171.911 188.894 171.911H203.359C204.577 171.911 205.565 172.838 205.565 173.982V187.557C205.565 188.7 204.577 189.627 203.359 189.627Z" fill="black"/>
<path d="M229.848 189.627H215.384C214.165 189.627 213.177 188.7 213.177 187.557V173.982C213.177 172.838 214.165 171.911 215.384 171.911H229.848C231.067 171.911 232.055 172.838 232.055 173.982V187.557C232.055 188.7 231.067 189.627 229.848 189.627Z" fill="black"/>
<path d="M282.793 189.627H268.328C267.109 189.627 266.121 188.7 266.121 187.556V173.982C266.121 172.838 267.109 171.911 268.328 171.911H282.793C284.011 171.911 284.999 172.838 284.999 173.982V187.556C284.999 188.7 284.011 189.627 282.793 189.627Z" fill="black"/>
<path d="M162.344 196.601H176.808C178.027 196.601 179.015 197.528 179.015 198.672V212.246C179.015 213.39 178.027 214.317 176.808 214.317H162.344C161.125 214.317 160.137 213.39 160.137 212.246V198.672C160.137 197.528 161.125 196.601 162.344 196.601Z" fill="black"/>
<path d="M135.863 196.601H150.328C151.547 196.601 152.535 197.528 152.535 198.672V212.246C152.535 213.39 151.547 214.317 150.328 214.317H135.863C134.645 214.317 133.657 213.39 133.657 212.246V198.672C133.657 197.528 134.645 196.601 135.863 196.601Z" fill="black"/>
<path d="M108.849 147.231H123.314C124.532 147.231 125.52 148.158 125.52 149.302V162.876C125.52 164.02 124.532 164.947 123.314 164.947H108.849C107.63 164.947 106.642 164.02 106.642 162.876V149.302C106.642 148.158 107.63 147.231 108.849 147.231Z" fill="black"/>
<path d="M96.8318 147.23H82.7639C81.333 147.23 80.1607 148.322 80.1607 149.673V162.511C80.1607 163.854 81.3244 164.954 82.7639 164.954H96.8318C98.0473 164.954 99.0386 164.024 99.0386 162.883V149.309C99.0386 148.168 98.0473 147.238 96.8318 147.238V147.23Z" fill="black"/>
<path d="M96.8318 216.766H82.7639C81.333 216.766 80.1607 217.858 80.1607 219.209V232.047C80.1607 233.39 81.3244 234.49 82.7639 234.49H96.8318C98.0473 234.49 99.0386 233.56 99.0386 232.419V218.845C99.0386 217.705 98.0473 216.774 96.8318 216.774V216.766Z" fill="black"/>
<path d="M29.4146 147.23H43.8791C45.0978 147.23 46.0858 148.158 46.0858 149.301V162.876C46.0858 164.019 45.0978 164.947 43.8791 164.947H29.4146C28.1959 164.947 27.2079 164.019 27.2079 162.876V149.301C27.2079 148.158 28.1959 147.23 29.4146 147.23Z" fill="black"/>
<path d="M43.8793 189.627H29.4149C28.1961 189.627 27.2081 188.7 27.2081 187.556L27.2081 173.982C27.2081 172.838 28.1961 171.911 29.4149 171.911H43.8793C45.0981 171.911 46.086 172.838 46.086 173.982V187.556C46.086 188.7 45.0981 189.627 43.8793 189.627Z" fill="black"/>
<path d="M109.246 196.601H122.917C124.355 196.601 125.52 197.695 125.52 199.044V211.874C125.52 213.224 124.355 214.317 122.917 214.317H109.246C107.808 214.317 106.642 213.224 106.642 211.874V199.044C106.642 197.695 107.808 196.601 109.246 196.601Z" fill="black"/>
<path d="M29.4146 196.601H43.8791C45.0978 196.601 46.0858 197.528 46.0858 198.672V212.246C46.0858 213.39 45.0978 214.317 43.8791 214.317H29.4146C28.1959 214.317 27.2079 213.39 27.2079 212.246V198.672C27.2079 197.528 28.1959 196.601 29.4146 196.601Z" fill="black"/>
</g>
<defs>
<clipPath id="clip0_1_2540">
<rect width="284.332" height="239.006" fill="white" transform="matrix(-1 0 0 1 284.999 0)"/>
</clipPath>
</defs>
</svg>
