<svg width="305" height="274" viewBox="0 0 305 274" fill="none" xmlns="http://www.w3.org/2000/svg">
<g style="mix-blend-mode:soft-light" opacity="0.55" clip-path="url(#clip0_1_3140)">
<path d="M287.164 0.828613H302.639C303.943 0.828613 305 1.88749 305 3.19368V18.696C305 20.0022 303.943 21.061 302.639 21.061H287.164C285.86 21.061 284.803 20.0022 284.803 18.696V3.19368C284.803 1.88749 285.86 0.828613 287.164 0.828613Z" fill="black"/>
<path d="M274.309 0.828613H259.258C257.718 0.828613 256.473 2.07582 256.473 3.61865V18.2802C256.473 19.8138 257.718 21.0703 259.258 21.0703H274.309C275.609 21.0703 276.67 20.0078 276.67 18.7052V3.19368C276.67 1.89105 275.609 0.828613 274.309 0.828613Z" fill="black"/>
<path d="M202.182 0.828613H217.657C218.961 0.828613 220.018 1.88749 220.018 3.19368V18.696C220.018 20.0022 218.961 21.061 217.657 21.061H202.182C200.878 21.061 199.821 20.0022 199.821 18.696V3.19368C199.821 1.88749 200.878 0.828613 202.182 0.828613Z" fill="black"/>
<path d="M189.262 49.2476H173.787C172.483 49.2476 171.426 48.1887 171.426 46.8825V31.3802C171.426 30.074 172.483 29.0151 173.787 29.0151L189.262 29.0151C190.566 29.0151 191.623 30.074 191.623 31.3802V46.8825C191.623 48.1887 190.566 49.2476 189.262 49.2476Z" fill="black"/>
<path d="M145.447 0.828613H160.922C162.225 0.828613 163.282 1.88749 163.282 3.19368V18.696C163.282 20.0022 162.225 21.061 160.922 21.061H145.447C144.143 21.061 143.086 20.0022 143.086 18.696V3.19368C143.086 1.88749 144.143 0.828613 145.447 0.828613Z" fill="black"/>
<path d="M160.922 49.2476H145.447C144.143 49.2476 143.086 48.1887 143.086 46.8825V31.3802C143.086 30.074 144.143 29.0151 145.447 29.0151L160.922 29.0151C162.226 29.0151 163.283 30.074 163.283 31.3802V46.8825C163.283 48.1887 162.226 49.2476 160.922 49.2476Z" fill="black"/>
<path d="M245.996 49.2476H230.521C229.218 49.2476 228.161 48.1887 228.161 46.8825V31.3802C228.161 30.074 229.218 29.0151 230.521 29.0151L245.996 29.0151C247.3 29.0151 248.357 30.074 248.357 31.3802V46.8825C248.357 48.1887 247.3 49.2476 245.996 49.2476Z" fill="black"/>
<path d="M258.825 49.2476H273.875C275.406 49.2476 276.66 48.0004 276.66 46.4575V31.7959C276.66 30.2623 275.415 29.0059 273.875 29.0059L258.825 29.0059C257.524 29.0059 256.464 30.0683 256.464 31.371V46.8733C256.464 48.1759 257.524 49.2383 258.825 49.2383V49.2476Z" fill="black"/>
<path d="M230.512 57.2109H245.987C247.291 57.2109 248.348 58.2698 248.348 59.576V75.0783C248.348 76.3845 247.291 77.4434 245.987 77.4434H230.512C229.208 77.4434 228.151 76.3845 228.151 75.0783V59.576C228.151 58.2698 229.208 57.2109 230.512 57.2109Z" fill="black"/>
<path d="M202.182 57.2109H217.657C218.961 57.2109 220.018 58.2698 220.018 59.576V75.0783C220.018 76.3845 218.961 77.4434 217.657 77.4434H202.182C200.878 77.4434 199.821 76.3845 199.821 75.0783V59.576C199.821 58.2698 200.878 57.2109 202.182 57.2109Z" fill="black"/>
<path d="M189.262 105.63H173.787C172.483 105.63 171.426 104.571 171.426 103.265V87.763C171.426 86.4568 172.483 85.398 173.787 85.398H189.262C190.566 85.398 191.623 86.4568 191.623 87.763V103.265C191.623 104.571 190.566 105.63 189.262 105.63Z" fill="black"/>
<path d="M217.656 105.63H202.182C200.878 105.63 199.821 104.571 199.821 103.265V87.7625C199.821 86.4564 200.878 85.3975 202.182 85.3975H217.656C218.96 85.3975 220.017 86.4564 220.017 87.7625V103.265C220.017 104.571 218.96 105.63 217.656 105.63Z" fill="black"/>
<path d="M258.825 105.63H273.875C275.406 105.63 276.66 104.383 276.66 102.84V88.1788C276.66 86.6452 275.415 85.3887 273.875 85.3887H258.825C257.524 85.3887 256.464 86.4512 256.464 87.7538V103.256C256.464 104.559 257.524 105.621 258.825 105.621V105.63Z" fill="black"/>
<path d="M302.64 105.63H287.165C285.861 105.63 284.804 104.571 284.804 103.265V87.7625C284.804 86.4564 285.861 85.3975 287.165 85.3975H302.64C303.943 85.3975 305 86.4564 305 87.7625V103.265C305 104.571 303.943 105.63 302.64 105.63Z" fill="black"/>
<path d="M273.885 113.594H258.834C257.534 113.594 256.473 114.656 256.473 115.959V131.461C256.473 132.764 257.534 133.826 258.834 133.826H273.885C275.415 133.826 276.67 132.579 276.67 131.036V116.375C276.67 114.841 275.425 113.584 273.885 113.584V113.594Z" fill="black"/>
<path d="M230.512 113.595H245.987C247.291 113.595 248.348 114.654 248.348 115.96V131.462C248.348 132.768 247.291 133.827 245.987 133.827H230.512C229.208 133.827 228.151 132.768 228.151 131.462V115.96C228.151 114.654 229.208 113.595 230.512 113.595Z" fill="black"/>
<path d="M202.182 113.595H217.657C218.961 113.595 220.018 114.654 220.018 115.96V131.462C220.018 132.768 218.961 133.827 217.657 133.827H202.182C200.878 133.827 199.821 132.768 199.821 131.462V115.96C199.821 114.654 200.878 113.595 202.182 113.595Z" fill="black"/>
<path d="M173.777 113.594H189.252C190.556 113.594 191.613 114.653 191.613 115.959V131.462C191.613 132.768 190.556 133.827 189.252 133.827H173.777C172.473 133.827 171.416 132.768 171.416 131.462V115.959C171.416 114.653 172.473 113.594 173.777 113.594Z" fill="black"/>
<path d="M145.447 113.594H160.922C162.225 113.594 163.282 114.653 163.282 115.959V131.462C163.282 132.768 162.225 133.827 160.922 133.827H145.447C144.143 133.827 143.086 132.768 143.086 131.462V115.959C143.086 114.653 144.143 113.594 145.447 113.594Z" fill="black"/>
<path d="M217.656 162.022H202.182C200.878 162.022 199.821 160.964 199.821 159.657V144.155C199.821 142.849 200.878 141.79 202.182 141.79H217.656C218.96 141.79 220.017 142.849 220.017 144.155V159.657C220.017 160.964 218.96 162.022 217.656 162.022Z" fill="black"/>
<path d="M245.996 162.022H230.521C229.218 162.022 228.161 160.964 228.161 159.657V144.155C228.161 142.849 229.218 141.79 230.521 141.79H245.996C247.3 141.79 248.357 142.849 248.357 144.155V159.657C248.357 160.964 247.3 162.022 245.996 162.022Z" fill="black"/>
<path d="M160.922 162.022H145.447C144.143 162.022 143.086 160.964 143.086 159.657V144.155C143.086 142.849 144.143 141.79 145.447 141.79H160.922C162.226 141.79 163.283 142.849 163.283 144.155V159.657C163.283 160.964 162.226 162.022 160.922 162.022Z" fill="black"/>
<path d="M31.5618 0.828613H47.0367C48.3406 0.828613 49.3976 1.88749 49.3976 3.19368V18.696C49.3976 20.0022 48.3406 21.061 47.0367 21.061H31.5618C30.258 21.061 29.201 20.0022 29.201 18.696V3.19368C29.201 1.88749 30.258 0.828613 31.5618 0.828613Z" fill="black"/>
<path d="M3.15724 0.828613H18.6321C19.936 0.828613 20.993 1.88749 20.993 3.19368V18.696C20.993 20.0022 19.936 21.061 18.6321 21.061H3.15724C1.85336 21.061 0.796356 20.0022 0.796356 18.696V3.19368C0.796356 1.88749 1.85336 0.828613 3.15724 0.828613Z" fill="black"/>
<path d="M18.6413 49.2476H3.16649C1.8626 49.2476 0.805603 48.1887 0.805603 46.8825L0.805603 31.3802C0.805603 30.074 1.8626 29.0151 3.16649 29.0151L18.6413 29.0151C19.9452 29.0151 21.0022 30.074 21.0022 31.3802L21.0022 46.8825C21.0022 48.1887 19.9452 49.2476 18.6413 49.2476Z" fill="black"/>
<path d="M47.0367 49.2476H31.5619C30.258 49.2476 29.201 48.1887 29.201 46.8825L29.201 31.3802C29.201 30.074 30.258 29.0151 31.5619 29.0151L47.0367 29.0151C48.3406 29.0151 49.3976 30.074 49.3976 31.3802V46.8825C49.3976 48.1887 48.3406 49.2476 47.0367 49.2476Z" fill="black"/>
<path d="M75.3671 49.2476H59.8923C58.5884 49.2476 57.5314 48.1887 57.5314 46.8825V31.3802C57.5314 30.074 58.5884 29.0151 59.8923 29.0151L75.3671 29.0151C76.671 29.0151 77.728 30.074 77.728 31.3802V46.8825C77.728 48.1887 76.671 49.2476 75.3671 49.2476Z" fill="black"/>
<path d="M88.204 49.2476H103.255C104.785 49.2476 106.04 48.0004 106.04 46.4575V31.7959C106.04 30.2623 104.795 29.0059 103.255 29.0059L88.204 29.0059C86.9036 29.0059 85.8431 30.0683 85.8431 31.371V46.8733C85.8431 48.1759 86.9036 49.2383 88.204 49.2383V49.2476Z" fill="black"/>
<path d="M132.019 49.2476H116.544C115.24 49.2476 114.183 48.1887 114.183 46.8825V31.3802C114.183 30.074 115.24 29.0151 116.544 29.0151L132.019 29.0151C133.323 29.0151 134.38 30.074 134.38 31.3802V46.8825C134.38 48.1887 133.323 49.2476 132.019 49.2476Z" fill="black"/>
<path d="M116.969 57.2109H131.596C133.134 57.2109 134.381 58.4601 134.381 60.001V74.6533C134.381 76.1942 133.134 77.4434 131.596 77.4434H116.969C115.431 77.4434 114.184 76.1942 114.184 74.6533V60.001C114.184 58.4601 115.431 57.2109 116.969 57.2109Z" fill="black"/>
<path d="M59.9016 57.2114H75.3765C76.6803 57.2114 77.7374 58.2703 77.7374 59.5765V75.0788C77.7374 76.385 76.6803 77.4438 75.3765 77.4438H59.9016C58.5977 77.4438 57.5407 76.385 57.5407 75.0788V59.5765C57.5407 58.2703 58.5977 57.2114 59.9016 57.2114Z" fill="black"/>
<path d="M3.15724 57.2109H18.6321C19.936 57.2109 20.993 58.2698 20.993 59.576V75.0783C20.993 76.3845 19.936 77.4434 18.6321 77.4434H3.15724C1.85336 77.4434 0.796356 76.3845 0.796356 75.0783V59.576C0.796356 58.2698 1.85336 57.2109 3.15724 57.2109Z" fill="black"/>
<path d="M47.0367 105.63H31.5619C30.258 105.63 29.201 104.571 29.201 103.265L29.201 87.763C29.201 86.4568 30.258 85.398 31.5619 85.398H47.0367C48.3406 85.398 49.3976 86.4568 49.3976 87.763V103.265C49.3976 104.571 48.3406 105.63 47.0367 105.63Z" fill="black"/>
<path d="M75.3671 105.63H59.8923C58.5884 105.63 57.5314 104.571 57.5314 103.265V87.763C57.5314 86.4568 58.5884 85.398 59.8923 85.398H75.3671C76.671 85.398 77.728 86.4568 77.728 87.763V103.265C77.728 104.571 76.671 105.63 75.3671 105.63Z" fill="black"/>
<path d="M88.204 105.63H103.255C104.785 105.63 106.04 104.383 106.04 102.84V88.1783C106.04 86.6447 104.795 85.3882 103.255 85.3882H88.204C86.9036 85.3882 85.8431 86.4507 85.8431 87.7533V103.256C85.8431 104.558 86.9036 105.621 88.204 105.621V105.63Z" fill="black"/>
<path d="M132.019 105.63H116.544C115.24 105.63 114.183 104.571 114.183 103.265V87.7625C114.183 86.4564 115.24 85.3975 116.544 85.3975H132.019C133.323 85.3975 134.38 86.4564 134.38 87.7625V103.265C134.38 104.571 133.323 105.63 132.019 105.63Z" fill="black"/>
<path d="M116.545 113.595H132.02C133.324 113.595 134.381 114.654 134.381 115.96V131.462C134.381 132.768 133.324 133.827 132.02 133.827H116.545C115.241 133.827 114.184 132.768 114.184 131.462V115.96C114.184 114.654 115.241 113.595 116.545 113.595Z" fill="black"/>
<path d="M59.9016 113.594H75.3765C76.6803 113.594 77.7374 114.653 77.7374 115.959V131.462C77.7374 132.768 76.6803 133.827 75.3765 133.827H59.9016C58.5977 133.827 57.5407 132.768 57.5407 131.462V115.959C57.5407 114.653 58.5977 113.594 59.9016 113.594Z" fill="black"/>
<path d="M31.5618 113.595H47.0367C48.3406 113.595 49.3976 114.654 49.3976 115.96V131.462C49.3976 132.768 48.3406 133.827 47.0367 133.827H31.5618C30.258 133.827 29.201 132.768 29.201 131.462V115.96C29.201 114.654 30.258 113.595 31.5618 113.595Z" fill="black"/>
<path d="M3.15724 113.595H18.6321C19.936 113.595 20.993 114.654 20.993 115.96V131.462C20.993 132.768 19.936 133.827 18.6321 133.827H3.15724C1.85336 133.827 0.796356 132.768 0.796356 131.462V115.96C0.796356 114.654 1.85336 113.595 3.15724 113.595Z" fill="black"/>
<path d="M47.0367 162.022H31.5619C30.258 162.022 29.201 160.964 29.201 159.657L29.201 144.155C29.201 142.849 30.258 141.79 31.5619 141.79H47.0367C48.3406 141.79 49.3976 142.849 49.3976 144.155V159.657C49.3976 160.964 48.3406 162.022 47.0367 162.022Z" fill="black"/>
<path d="M75.3671 162.022H59.8923C58.5884 162.022 57.5314 160.964 57.5314 159.657V144.155C57.5314 142.849 58.5884 141.79 59.8923 141.79H75.3671C76.671 141.79 77.728 142.849 77.728 144.155V159.657C77.728 160.964 76.671 162.022 75.3671 162.022Z" fill="black"/>
<path d="M88.204 162.022H103.255C104.785 162.022 106.04 160.775 106.04 159.232V144.571C106.04 143.037 104.795 141.781 103.255 141.781H88.204C86.9036 141.781 85.8431 142.843 85.8431 144.146V159.648C85.8431 160.951 86.9036 162.013 88.204 162.013V162.022Z" fill="black"/>
<path d="M132.019 162.022H116.544C115.24 162.022 114.183 160.964 114.183 159.657V144.155C114.183 142.849 115.24 141.79 116.544 141.79H132.019C133.323 141.79 134.38 142.849 134.38 144.155V159.657C134.38 160.964 133.323 162.022 132.019 162.022Z" fill="black"/>
<path d="M274.309 168.97H259.258C257.727 168.97 256.473 170.217 256.473 171.76V186.422C256.473 187.955 257.718 189.212 259.258 189.212H274.309C275.609 189.212 276.67 188.149 276.67 186.847V171.345C276.67 170.042 275.609 168.979 274.309 168.979V168.97Z" fill="black"/>
<path d="M230.512 168.97H245.987C247.291 168.97 248.348 170.029 248.348 171.335V186.838C248.348 188.144 247.291 189.203 245.987 189.203H230.512C229.208 189.203 228.151 188.144 228.151 186.838V171.335C228.151 170.029 229.208 168.97 230.512 168.97Z" fill="black"/>
<path d="M173.777 168.97H189.252C190.556 168.97 191.613 170.029 191.613 171.335V186.838C191.613 188.144 190.556 189.203 189.252 189.203H173.777C172.473 189.203 171.416 188.144 171.416 186.838V171.335C171.416 170.029 172.473 168.97 173.777 168.97Z" fill="black"/>
<path d="M189.262 217.389H173.787C172.483 217.389 171.426 216.33 171.426 215.024V199.521C171.426 198.215 172.483 197.156 173.787 197.156H189.262C190.566 197.156 191.623 198.215 191.623 199.521V215.024C191.623 216.33 190.566 217.389 189.262 217.389Z" fill="black"/>
<path d="M145.447 168.97H160.922C162.225 168.97 163.282 170.029 163.282 171.335V186.838C163.282 188.144 162.225 189.203 160.922 189.203H145.447C144.143 189.203 143.086 188.144 143.086 186.838V171.335C143.086 170.029 144.143 168.97 145.447 168.97Z" fill="black"/>
<path d="M160.922 217.389H145.447C144.143 217.389 143.086 216.33 143.086 215.024V199.521C143.086 198.215 144.143 197.156 145.447 197.156H160.922C162.226 197.156 163.283 198.215 163.283 199.521V215.024C163.283 216.33 162.226 217.389 160.922 217.389Z" fill="black"/>
<path d="M217.656 217.39H202.182C200.878 217.39 199.821 216.331 199.821 215.025V199.522C199.821 198.216 200.878 197.157 202.182 197.157H217.656C218.96 197.157 220.017 198.216 220.017 199.522V215.025C220.017 216.331 218.96 217.39 217.656 217.39Z" fill="black"/>
<path d="M245.996 217.39H230.521C229.218 217.39 228.161 216.331 228.161 215.025V199.522C228.161 198.216 229.218 197.157 230.521 197.157H245.996C247.3 197.157 248.357 198.216 248.357 199.522V215.025C248.357 216.331 247.3 217.39 245.996 217.39Z" fill="black"/>
<path d="M302.64 217.389H287.165C285.861 217.389 284.804 216.33 284.804 215.024V199.521C284.804 198.215 285.861 197.156 287.165 197.156H302.64C303.943 197.156 305 198.215 305 199.521V215.024C305 216.33 303.943 217.389 302.64 217.389Z" fill="black"/>
<path d="M173.777 225.353H189.252C190.556 225.353 191.613 226.412 191.613 227.718V243.22C191.613 244.527 190.556 245.585 189.252 245.585H173.777C172.473 245.585 171.416 244.527 171.416 243.22V227.718C171.416 226.412 172.473 225.353 173.777 225.353Z" fill="black"/>
<path d="M145.447 225.353H160.922C162.225 225.353 163.282 226.411 163.282 227.718V243.22C163.282 244.526 162.225 245.585 160.922 245.585H145.447C144.143 245.585 143.086 244.526 143.086 243.22V227.718C143.086 226.411 144.143 225.353 145.447 225.353Z" fill="black"/>
<path d="M116.545 168.97H132.02C133.324 168.97 134.381 170.029 134.381 171.335V186.838C134.381 188.144 133.324 189.203 132.02 189.203H116.545C115.241 189.203 114.184 188.144 114.184 186.838V171.335C114.184 170.029 115.241 168.97 116.545 168.97Z" fill="black"/>
<path d="M103.688 168.97H88.6377C87.1068 168.97 85.8526 170.217 85.8526 171.76V186.421C85.8526 187.955 87.0976 189.211 88.6377 189.211H103.688C104.989 189.211 106.049 188.149 106.049 186.846V171.344C106.049 170.041 104.989 168.979 103.688 168.979V168.97Z" fill="black"/>
<path d="M103.688 248.382H88.6377C87.1068 248.382 85.8526 249.63 85.8526 251.172V265.834C85.8526 267.368 87.0976 268.624 88.6377 268.624H103.688C104.989 268.624 106.049 267.562 106.049 266.259V250.757C106.049 249.454 104.989 248.392 103.688 248.392V248.382Z" fill="black"/>
<path d="M31.5618 168.97H47.0367C48.3406 168.97 49.3976 170.029 49.3976 171.335V186.838C49.3976 188.144 48.3406 189.203 47.0367 189.203H31.5618C30.258 189.203 29.201 188.144 29.201 186.838V171.335C29.201 170.029 30.258 168.97 31.5618 168.97Z" fill="black"/>
<path d="M47.0367 217.389H31.5619C30.258 217.389 29.201 216.33 29.201 215.024L29.201 199.521C29.201 198.215 30.258 197.156 31.5619 197.156H47.0367C48.3406 197.156 49.3976 198.215 49.3976 199.521V215.024C49.3976 216.33 48.3406 217.389 47.0367 217.389Z" fill="black"/>
<path d="M116.969 225.354H131.596C133.134 225.354 134.381 226.603 134.381 228.144V242.796C134.381 244.337 133.134 245.586 131.596 245.586H116.969C115.431 245.586 114.184 244.337 114.184 242.796V228.144C114.184 226.603 115.431 225.354 116.969 225.354Z" fill="black"/>
<path d="M31.5618 225.353H47.0367C48.3406 225.353 49.3976 226.411 49.3976 227.718V243.22C49.3976 244.526 48.3406 245.585 47.0367 245.585H31.5618C30.258 245.585 29.201 244.526 29.201 243.22V227.718C29.201 226.411 30.258 225.353 31.5618 225.353Z" fill="black"/>
</g>
<defs>
<clipPath id="clip0_1_3140">
<rect width="304.194" height="272.953" fill="white" transform="matrix(-1 0 0 1 305 0.828613)"/>
</clipPath>
</defs>
</svg>
