<svg width="105" height="91" viewBox="0 0 105 91" fill="none" xmlns="http://www.w3.org/2000/svg">
<path d="M52.5934 15.4014L52.6585 41.6738L61.8907 47.0316L61.8257 20.6946L52.5934 15.4014Z" fill="#14AB4C"/>
<path d="M61.8252 20.6943L61.8902 47.0313L84.1256 40.5762L84.0606 14.3037L61.8252 20.6943Z" fill="#0B7030"/>
<path d="M52.5934 15.401L61.8256 20.6942L84.061 14.3036L72.5532 26.9557L81.9805 32.378L97.1943 13.2708L85.8165 6.68652L52.5934 15.401Z" fill="#75EF81"/>
<path d="M72.5537 26.9551L72.6187 53.2276L82.046 58.6499L81.981 32.3774L72.5537 26.9551Z" fill="#14AB4C"/>
<path d="M81.9802 32.3778L82.0452 58.6502L97.2589 39.543L97.1939 13.2705L81.9802 32.3778Z" fill="url(#paint0_linear_1_3895)"/>
<path d="M16.2488 31.8619L70.667 46.7087L79.1191 41.8674L24.7008 27.0205L16.2488 31.8619Z" fill="#75EF81"/>
<path d="M16.2489 31.8623L16.3139 58.1993L70.7322 72.9816L70.6672 46.7092L16.2489 31.8623Z" fill="#14AB4C"/>
<path d="M70.6674 46.7086L70.7325 72.981L79.1845 68.1397L79.1195 41.8672L70.6674 46.7086Z" fill="url(#paint1_linear_1_3895)"/>
<path d="M17.1592 56.907L17.2242 83.244L28.732 70.5274L28.667 44.2549L17.1592 56.907Z" fill="#0B7030"/>
<path d="M19.2401 38.833L3.96136 57.8757L15.3391 64.46L48.6273 55.8101L39.395 50.4523L17.1596 56.9074L28.6674 44.2553L19.2401 38.833Z" fill="#75EF81"/>
<path d="M3.96136 57.876L4.02638 84.213L15.4042 90.7327L15.3391 64.4602L3.96136 57.876Z" fill="#14AB4C"/>
<path d="M15.3396 64.4595L15.4046 90.732L48.7578 82.082L48.6277 55.8096L15.3396 64.4595Z" fill="url(#paint2_linear_1_3895)"/>
<path d="M93.7712 12.4374C93.7712 12.4374 91.6181 17.9129 91.4627 19.2779C91.3073 20.6429 90.0969 23.0878 93.5931 25.0377C93.5931 25.0377 97.6787 27.12 98.8358 27.3967C98.8358 27.3967 94.4715 25.7435 93.2341 25.5915C91.9966 25.4395 89.5789 24.8202 87.3162 29.6964L85.0711 35.0823C85.0711 35.0823 87.1789 29.3428 87.405 28.1516C87.6312 26.9603 88.6659 24.1851 84.9549 22.2995L80.2974 20.218C80.2974 20.218 84.0778 21.7965 86.4481 22.0427C88.8183 22.2889 90.8822 19.8064 93.7712 12.4374Z" fill="white" stroke="white" stroke-width="0.103171" stroke-miterlimit="10"/>
<path d="M23.3728 63.4168C23.3728 63.4168 19.685 64.0493 18.8913 64.4144C18.0976 64.7795 16.369 64.9264 16.4599 67.4706C16.4599 67.4706 16.6731 70.379 16.9037 71.0996C16.9037 71.0996 16.3654 68.1809 16.0404 67.4577C15.7155 66.7345 15.256 65.2153 11.8581 65.5908L8.1887 66.1437C8.1887 66.1437 12.0052 65.3996 12.7277 65.1302C13.4502 64.8608 15.3007 64.5095 15.1039 61.8697L14.702 58.6504C14.702 58.6504 15.0886 61.2268 15.7355 62.5973C16.3823 63.9678 18.4126 64.2727 23.3728 63.4168Z" fill="white" stroke="white" stroke-width="0.103171" stroke-miterlimit="10"/>
<ellipse cx="96.2508" cy="7.6074" rx="1.0085" ry="0.920879" fill="#14AB4C"/>
<ellipse cx="58.8959" cy="1.89568" rx="1.6538" ry="1.56755" fill="#0B7030"/>
<ellipse cx="53.1734" cy="73.9626" rx="0.58002" ry="0.578784" fill="#14AB4C"/>
<ellipse cx="1.41256" cy="39.4512" rx="0.912555" ry="0.920879" fill="#14AB4C"/>
<ellipse cx="93.7415" cy="72.411" rx="1.95919" ry="1.78897" fill="#D8FF35"/>
<ellipse cx="40.1945" cy="16.4644" rx="1.2915" ry="1.17928" fill="#D5FA39"/>
<defs>
<linearGradient id="paint0_linear_1_3895" x1="89.685" y1="14.5052" x2="78.9077" y2="56.2011" gradientUnits="userSpaceOnUse">
<stop offset="0.4267" stop-color="#D4F938"/>
<stop offset="1" stop-color="#32D875" stop-opacity="0.96"/>
</linearGradient>
<linearGradient id="paint1_linear_1_3895" x1="74.9625" y1="42.7137" x2="66.1568" y2="70.4123" gradientUnits="userSpaceOnUse">
<stop offset="0.4267" stop-color="#D4F938"/>
<stop offset="1" stop-color="#32D875" stop-opacity="0.96"/>
</linearGradient>
<linearGradient id="paint2_linear_1_3895" x1="32.1919" y1="56.7597" x2="29.1044" y2="90.7101" gradientUnits="userSpaceOnUse">
<stop offset="0.4267" stop-color="#D4F938"/>
<stop offset="1" stop-color="#32D875" stop-opacity="0.96"/>
</linearGradient>
</defs>
</svg>
