<svg width="33" height="33" viewBox="0 0 33 33" fill="none" xmlns="http://www.w3.org/2000/svg">
<path d="M32.0213 20.6088C29.8841 29.1803 21.2016 34.3967 12.6281 32.2593C4.05818 30.1224 -1.15886 21.4403 0.979231 12.8694C3.11545 4.29699 11.798 -0.91986 20.3688 1.21706C28.9417 3.35397 34.1584 12.037 32.021 20.6089L32.0212 20.6088H32.0213Z" fill="#D8D8DD"/>
<path d="M12.6121 19.3258C12.6905 19.2492 12.7984 19.2046 12.9128 19.2046H23.2869C23.4765 19.2046 23.5712 19.4278 23.4372 19.5586L21.3879 21.5583C21.3095 21.6349 21.2016 21.6795 21.0872 21.6795H10.7131C10.5235 21.6795 10.4288 21.4563 10.5628 21.3255L12.6121 19.3258Z" fill="#0E0E0F"/>
<path d="M12.6121 11.8595C12.6938 11.7829 12.8017 11.7383 12.9128 11.7383H23.2869C23.4765 11.7383 23.5712 11.9615 23.4372 12.0923L21.3879 14.092C21.3095 14.1686 21.2016 14.2132 21.0872 14.2132H10.7131C10.5235 14.2132 10.4288 13.9899 10.5628 13.8592L12.6121 11.8595Z" fill="#0E0E0F"/>
<path d="M21.3879 15.5687C21.3095 15.4922 21.2016 15.4475 21.0872 15.4475H10.7131C10.5235 15.4475 10.4288 15.6708 10.5628 15.8015L12.6121 17.8012C12.6905 17.8778 12.7984 17.9224 12.9128 17.9224H23.2869C23.4765 17.9224 23.5712 17.6992 23.4372 17.5684L21.3879 15.5687Z" fill="#0E0E0F"/>
</svg>
