<svg width="67" height="71" viewBox="0 0 67 71" fill="none" xmlns="http://www.w3.org/2000/svg">
<path d="M51.0454 40.0437L53.1251 38.8349C62.9329 44.497 62.9841 53.6658 53.2407 59.3278C43.5071 64.9842 27.6677 64.9908 17.8608 59.3278C8.06442 53.6714 8.01233 44.4905 17.746 38.8341C27.4894 33.172 43.3288 33.1777 53.1259 38.8341L51.0462 40.0429C42.409 35.0548 28.4304 35.0491 19.8404 40.0429C11.2569 45.0294 11.3025 53.1326 19.9421 58.1191C28.5891 63.1129 42.5669 63.1072 51.1488 58.1191C59.742 53.1261 59.6964 45.0367 51.047 40.0437H51.0454Z" fill="#58F28A"/>
<path d="M50.1501 35.3079C52.7638 36.9139 55.3841 38.9953 56.6392 41.806C64.5553 59.546 35.4739 67.0892 19.9414 58.1191C16.5219 56.146 14.4495 53.6845 13.7242 51.1204C12.7759 47.6805 13.0852 44.0396 14.5512 41.3794C14.9281 40.6957 15.8105 39.0954 17.8373 37.3754C19.3765 36.069 21.1445 34.9782 23.0908 34.1333C27.1892 32.354 31.9966 31.5286 36.9937 31.7451C43.9801 32.0479 48.5222 34.3368 50.1509 35.3071C49.2238 34.7723 48.453 35.3722 48.4057 35.4097C41.25 31.2746 29.6507 31.2705 22.5332 35.4097C15.4189 39.5398 15.4564 46.2666 22.617 50.3968C29.7817 54.5367 41.381 54.5318 48.4904 50.3968C55.6144 46.2593 55.577 39.548 48.4057 35.4105C48.453 35.3738 49.2238 34.7731 50.1509 35.3079H50.1501Z" fill="#28A45A"/>
<path d="M60.5147 49.1531C59.6869 53.9784 63.2782 60.6938 53.1677 66.5692C37.6164 75.6069 10.3698 69.213 10.4065 56.2519L10.4797 49.0107C10.4691 52.7436 12.9315 56.4823 17.861 59.3288C33.3283 68.259 60.4781 62.146 60.5147 49.1531Z" fill="#28A45A"/>
<path d="M48.4128 32.5333C55.584 36.6708 55.6215 43.3821 48.4974 47.5196C41.3881 51.6547 29.7888 51.6595 22.624 47.5196C15.4634 43.3894 15.4251 36.6626 22.5402 32.5325C29.6577 28.3933 41.257 28.3974 48.4128 32.5325V32.5333Z" fill="#58F28A"/>
<circle cx="35.4607" cy="31.1045" r="23.6661" fill="url(#paint0_linear_1_2427)"/>
<path d="M6.44823 21.5079C6.44823 21.5079 5.84929 23.1492 5.81318 23.5555C5.77708 23.9619 5.43575 24.6966 6.48795 25.2497C6.48795 25.2497 7.71611 25.8379 8.06164 25.9115C8.06164 25.9115 6.75391 25.4528 6.38544 25.4168C6.01697 25.3807 5.2947 25.2147 4.65883 26.6788L4.03191 28.2942C4.03191 28.2942 4.61547 26.5749 4.67385 26.2196C4.73222 25.8643 5.01899 25.0328 3.90348 24.5004L2.50555 23.9167C2.50555 23.9167 3.63941 24.3575 4.34486 24.4131C5.05031 24.4688 5.64476 23.7167 6.44823 21.5079Z" fill="#33B568" stroke="#33B568" stroke-width="0.275772" stroke-miterlimit="10"/>
<circle cx="21.0042" cy="1.04586" r="0.811116" transform="rotate(5.63183 21.0042 1.04586)" fill="white"/>
<circle cx="7.70215" cy="40.913" r="0.811116" transform="rotate(5.63183 7.70215 40.913)" fill="#33B568"/>
<circle cx="10.4797" cy="68.305" r="0.811116" transform="rotate(5.63183 10.4797 68.305)" fill="white"/>
<circle cx="66.03" cy="57.6445" r="0.450735" transform="rotate(5.63183 66.03 57.6445)" fill="white"/>
<circle cx="49.7416" cy="4.38897" r="1.31073" transform="rotate(5.63183 49.7416 4.38897)" fill="#33B568"/>
<path d="M58.6413 10.8399C58.6413 10.8399 57.3282 14.4383 57.2491 15.3292C57.1699 16.2201 56.4216 17.8308 58.7284 19.0436C58.7284 19.0436 61.421 20.333 62.1786 20.4944C62.1786 20.4944 59.3115 19.4888 58.5037 19.4098C57.6958 19.3308 56.1123 18.9667 54.7182 22.1768L53.3438 25.7183C53.3438 25.7183 54.6232 21.9489 54.7512 21.1699C54.8791 20.3909 55.5079 18.568 53.0622 17.4006L49.9974 16.1209C49.9974 16.1209 52.4833 17.0874 54.0299 17.2094C55.5765 17.3315 56.8798 15.6825 58.6413 10.8399Z" fill="white" stroke="white" stroke-width="0.275772" stroke-miterlimit="10"/>
<defs>
<linearGradient id="paint0_linear_1_2427" x1="35.6636" y1="8.72613" x2="35.6636" y2="54.77" gradientUnits="userSpaceOnUse">
<stop offset="0.4375" stop-color="#D4F938"/>
<stop offset="1" stop-color="#32D875" stop-opacity="0.96"/>
</linearGradient>
</defs>
</svg>
