<svg width="190" height="33" viewBox="0 0 190 33" fill="none" xmlns="http://www.w3.org/2000/svg">
<g clip-path="url(#clip0_1_4506)">
<path d="M173.745 10.7893C170.713 10.7893 168.268 13.1962 168.268 16.1802C168.268 19.1642 170.713 21.5712 173.745 21.5712C176.776 21.5712 179.221 19.1642 179.221 16.1802C179.221 13.1962 176.776 10.7893 173.745 10.7893ZM173.745 19.685C171.786 19.685 170.184 18.1133 170.184 16.1802C170.184 14.2472 171.781 12.6754 173.745 12.6754C175.708 12.6754 177.305 14.2472 177.305 16.1802C177.305 18.1133 175.703 19.685 173.745 19.685V19.685ZM180.722 10.5688C180.722 11.2679 180.15 11.8262 179.445 11.8262C178.735 11.8262 178.168 11.2632 178.168 10.5688C178.168 9.8744 178.74 9.31138 179.445 9.31138C180.15 9.31138 180.722 9.8744 180.722 10.5688ZM184.35 11.845C184.269 10.1606 183.878 8.6686 182.624 7.43934C181.375 6.21007 179.86 5.82534 178.149 5.74089C176.385 5.64236 171.099 5.64236 169.336 5.74089C167.629 5.82065 166.114 6.20538 164.86 7.43464C163.607 8.66391 163.22 10.1559 163.135 11.8403C163.035 13.5763 163.035 18.7795 163.135 20.5155C163.216 22.1999 163.607 23.6919 164.86 24.9211C166.114 26.1504 167.625 26.5351 169.336 26.6196C171.099 26.7181 176.385 26.7181 178.149 26.6196C179.86 26.5398 181.375 26.1551 182.624 24.9211C183.873 23.6919 184.264 22.1999 184.35 20.5155C184.45 18.7795 184.45 13.581 184.35 11.845V11.845ZM182.071 22.3782C181.7 23.2978 180.98 24.0062 180.041 24.3769C178.635 24.9258 175.298 24.7991 173.745 24.7991C172.191 24.7991 168.85 24.9211 167.448 24.3769C166.514 24.0109 165.794 23.3025 165.418 22.3782C164.86 20.9941 164.989 17.7098 164.989 16.1802C164.989 14.6507 164.865 11.3617 165.418 9.98231C165.79 9.06271 166.509 8.35424 167.448 7.98359C168.854 7.43464 172.191 7.56132 173.745 7.56132C175.298 7.56132 178.64 7.43934 180.041 7.98359C180.975 8.34955 181.695 9.05802 182.071 9.98231C182.629 11.3664 182.5 14.6507 182.5 16.1802C182.5 17.7098 182.629 20.9988 182.071 22.3782Z" fill="white"/>
</g>
<g clip-path="url(#clip1_1_4506)">
<path d="M115.863 25.5254V12.0189H111.285V25.5254H115.863ZM113.575 10.1737C115.171 10.1737 116.165 9.13658 116.165 7.8405C116.135 6.51519 115.171 5.50684 113.605 5.50684C112.039 5.50684 111.015 6.51521 111.015 7.8405C111.015 9.13664 112.008 10.1737 113.545 10.1737H113.574H113.575ZM118.397 25.5254H122.975V17.9827C122.975 17.579 123.005 17.1758 123.125 16.8872C123.456 16.0807 124.21 15.2454 125.474 15.2454C127.131 15.2454 127.794 16.4839 127.794 18.2996V25.5253H132.371V17.7808C132.371 13.6321 130.113 11.7018 127.101 11.7018C124.631 11.7018 123.547 13.0555 122.944 13.9775H122.975V12.0186H118.397C118.457 13.286 118.397 25.5251 118.397 25.5251L118.397 25.5254Z" fill="white"/>
</g>
<g clip-path="url(#clip2_1_4506)">
<path d="M80.3198 9.11671C79.4203 9.49635 78.4661 9.74555 77.4891 9.85602C78.5068 9.27494 79.2882 8.35478 79.6561 7.25841C78.6887 7.80533 77.6303 8.19067 76.5265 8.39778C75.6275 7.4853 74.3467 6.91504 72.9291 6.91504C70.2073 6.91504 68.0005 9.0173 68.0005 11.6102C68.0005 11.9782 68.0442 12.3365 68.1281 12.6802C64.0322 12.4844 60.4007 10.6152 57.9698 7.7745C57.5457 8.46795 57.3026 9.27458 57.3026 10.1349C57.3026 11.7639 58.1728 13.201 59.4951 14.043C58.7125 14.0197 57.9471 13.8183 57.2628 13.4557C57.2625 13.4753 57.2625 13.495 57.2625 13.5148C57.2625 15.7897 58.9613 17.6874 61.2158 18.1187C60.4901 18.3067 59.7288 18.3343 58.9902 18.1992C59.6173 20.0645 61.4375 21.4219 63.594 21.4599C61.9073 22.7192 59.7822 23.4698 57.4732 23.4698C57.0754 23.4698 56.6831 23.4476 56.2975 23.4042C58.4786 24.7364 61.0692 25.5137 63.8524 25.5137C72.9177 25.5137 77.8748 18.3592 77.8748 12.1547C77.8748 11.951 77.8701 11.7486 77.8605 11.5472C78.8254 10.8827 79.6582 10.0597 80.3198 9.11671" fill="white"/>
</g>
<g clip-path="url(#clip3_1_4506)">
<path d="M13.3068 25.5248V16.7577H10.922V13.6012H13.3068V10.905C13.3068 8.78642 14.7155 6.84082 17.9615 6.84082C19.2757 6.84082 20.2475 6.96329 20.2475 6.96329L20.1709 9.91099C20.1709 9.91099 19.1798 9.90161 18.0983 9.90161C16.9278 9.90161 16.7402 10.426 16.7402 11.2963V13.6012H20.264L20.1107 16.7577H16.7402V25.5248H13.3068" fill="white"/>
</g>
<defs>
<clipPath id="clip0_1_4506">
<rect width="21.3531" height="24.0222" fill="white" transform="translate(163.064 4.17285)"/>
</clipPath>
<clipPath id="clip1_1_4506">
<rect width="21.3531" height="20.0185" fill="white" transform="translate(111.015 5.50684)"/>
</clipPath>
<clipPath id="clip2_1_4506">
<rect width="24.0223" height="18.684" fill="white" transform="translate(56.2977 6.84082)"/>
</clipPath>
<clipPath id="clip3_1_4506">
<rect width="9.34199" height="18.684" fill="white" transform="translate(10.922 6.84082)"/>
</clipPath>
</defs>
</svg>
