<svg width="128" height="31" viewBox="0 0 128 31" fill="none" xmlns="http://www.w3.org/2000/svg">
<path d="M2.53899 5.54785H0.633957C0.473714 5.54785 0.343811 5.67892 0.343811 5.84061V7.76282C0.343811 7.9245 0.473714 8.05558 0.633957 8.05558H2.53899C2.69924 8.05558 2.82914 7.9245 2.82914 7.76282V5.84061C2.82914 5.67892 2.69924 5.54785 2.53899 5.54785Z" fill="white"/>
<path d="M5.97653 5.54785H4.12303C3.96269 5.54785 3.83289 5.67882 3.83289 5.84061V7.76282C3.83289 7.92461 3.96269 8.05558 4.12303 8.05558H5.97653C6.16551 8.05558 6.31821 7.90149 6.31821 7.71081V5.89454C6.31821 5.70386 6.16551 5.54978 5.97653 5.54978V5.54785Z" fill="white"/>
<path d="M9.51537 5.54785H7.61034C7.45009 5.54785 7.32019 5.67892 7.32019 5.84061V7.76282C7.32019 7.9245 7.45009 8.05558 7.61034 8.05558H9.51537C9.67562 8.05558 9.80552 7.9245 9.80552 7.76282V5.84061C9.80552 5.67892 9.67562 5.54785 9.51537 5.54785Z" fill="white"/>
<path d="M13.0044 5.54785H11.0993C10.9391 5.54785 10.8092 5.67892 10.8092 5.84061V7.76282C10.8092 7.9245 10.9391 8.05558 11.0993 8.05558H13.0044C13.1646 8.05558 13.2945 7.9245 13.2945 7.76282V5.84061C13.2945 5.67892 13.1646 5.54785 13.0044 5.54785Z" fill="white"/>
<path d="M16.5032 9.04492H14.5981C14.4379 9.04492 14.308 9.176 14.308 9.33768V11.2599C14.308 11.4216 14.4379 11.5526 14.5981 11.5526H16.5032C16.6634 11.5526 16.7933 11.4216 16.7933 11.2599V9.33768C16.7933 9.176 16.6634 9.04492 16.5032 9.04492Z" fill="white"/>
<path d="M13.0044 9.04492H11.0993C10.9391 9.04492 10.8092 9.176 10.8092 9.33768V11.2599C10.8092 11.4216 10.9391 11.5526 11.0993 11.5526H13.0044C13.1646 11.5526 13.2945 11.4216 13.2945 11.2599V9.33768C13.2945 9.176 13.1646 9.04492 13.0044 9.04492Z" fill="white"/>
<path d="M9.51537 9.04492H7.61034C7.45009 9.04492 7.32019 9.176 7.32019 9.33768V11.2599C7.32019 11.4216 7.45009 11.5526 7.61034 11.5526H9.51537C9.67562 11.5526 9.80552 11.4216 9.80552 11.2599V9.33768C9.80552 9.176 9.67562 9.04492 9.51537 9.04492Z" fill="white"/>
<path d="M6.02807 9.04392H4.17457C3.98559 9.04392 3.83289 9.198 3.83289 9.38868V11.205C3.83289 11.3956 3.98559 11.5497 4.17457 11.5497H6.02807C6.18841 11.5497 6.31821 11.4187 6.31821 11.257V9.33475C6.31821 9.17296 6.18841 9.04199 6.02807 9.04199V9.04392Z" fill="white"/>
<path d="M2.53905 9.04492H0.634018C0.473775 9.04492 0.343872 9.176 0.343872 9.33768V11.2599C0.343872 11.4216 0.473775 11.5526 0.634018 11.5526H2.53905C2.6993 11.5526 2.8292 11.4216 2.8292 11.2599V9.33768C2.8292 9.176 2.6993 9.04492 2.53905 9.04492Z" fill="white"/>
<path d="M2.48751 12.541H0.685557C0.49685 12.541 0.343872 12.6954 0.343872 12.8858V14.704C0.343872 14.8944 0.49685 15.0487 0.685557 15.0487H2.48751C2.67622 15.0487 2.8292 14.8944 2.8292 14.704V12.8858C2.8292 12.6954 2.67622 12.541 2.48751 12.541Z" fill="white"/>
<path d="M6.02807 12.54H4.17457C3.98559 12.54 3.83289 12.6941 3.83289 12.8848V14.701C3.83289 14.8917 3.98559 15.0458 4.17457 15.0458H6.02807C6.18841 15.0458 6.31821 14.9148 6.31821 14.7531V12.8308C6.31821 12.6691 6.18841 12.5381 6.02807 12.5381V12.54Z" fill="white"/>
<path d="M9.51537 12.541H7.61034C7.45009 12.541 7.32019 12.6721 7.32019 12.8338V14.756C7.32019 14.9177 7.45009 15.0487 7.61034 15.0487H9.51537C9.67562 15.0487 9.80552 14.9177 9.80552 14.756V12.8338C9.80552 12.6721 9.67562 12.541 9.51537 12.541Z" fill="white"/>
<path d="M13.0044 12.541H11.0993C10.9391 12.541 10.8092 12.6721 10.8092 12.8338V14.756C10.8092 14.9177 10.9391 15.0487 11.0993 15.0487H13.0044C13.1646 15.0487 13.2945 14.9177 13.2945 14.756V12.8338C13.2945 12.6721 13.1646 12.541 13.0044 12.541Z" fill="white"/>
<path d="M16.5032 12.541H14.5981C14.4379 12.541 14.308 12.6721 14.308 12.8338V14.756C14.308 14.9177 14.4379 15.0487 14.5981 15.0487H16.5032C16.6634 15.0487 16.7933 14.9177 16.7933 14.756V12.8338C16.7933 12.6721 16.6634 12.541 16.5032 12.541Z" fill="white"/>
<path d="M19.9909 12.541H18.0859C17.9256 12.541 17.7957 12.6721 17.7957 12.8338V14.756C17.7957 14.9177 17.9256 15.0487 18.0859 15.0487H19.9909C20.1511 15.0487 20.281 14.9177 20.281 14.756V12.8338C20.281 12.6721 20.1511 12.541 19.9909 12.541Z" fill="white"/>
<path d="M19.9909 16.0371H18.0859C17.9256 16.0371 17.7957 16.1682 17.7957 16.3299V18.2521C17.7957 18.4138 17.9256 18.5448 18.0859 18.5448H19.9909C20.1511 18.5448 20.281 18.4138 20.281 18.2521V16.3299C20.281 16.1682 20.1511 16.0371 19.9909 16.0371Z" fill="white"/>
<path d="M16.5032 16.0371H14.5981C14.4379 16.0371 14.308 16.1682 14.308 16.3299V18.2521C14.308 18.4138 14.4379 18.5448 14.5981 18.5448H16.5032C16.6634 18.5448 16.7933 18.4138 16.7933 18.2521V16.3299C16.7933 16.1682 16.6634 16.0371 16.5032 16.0371Z" fill="white"/>
<path d="M13.0044 16.0371H11.0993C10.9391 16.0371 10.8092 16.1682 10.8092 16.3299V18.2521C10.8092 18.4138 10.9391 18.5448 11.0993 18.5448H13.0044C13.1646 18.5448 13.2945 18.4138 13.2945 18.2521V16.3299C13.2945 16.1682 13.1646 16.0371 13.0044 16.0371Z" fill="white"/>
<path d="M9.51458 16.0371H7.60954C7.4493 16.0371 7.3194 16.1682 7.3194 16.3299V18.2521C7.3194 18.4138 7.4493 18.5448 7.60954 18.5448H9.51458C9.67482 18.5448 9.80472 18.4138 9.80472 18.2521V16.3299C9.80472 16.1682 9.67482 16.0371 9.51458 16.0371Z" fill="white"/>
<path d="M6.02807 16.0361H4.17457C3.98559 16.0361 3.83289 16.1902 3.83289 16.3809V18.1971C3.83289 18.3878 3.98559 18.5419 4.17457 18.5419H6.02807C6.18841 18.5419 6.31821 18.4109 6.31821 18.2491V16.3269C6.31821 16.1652 6.18841 16.0342 6.02807 16.0342V16.0361Z" fill="white"/>
<path d="M2.53905 16.0352H0.634018C0.473775 16.0352 0.343872 16.1662 0.343872 16.3279V18.2501C0.343872 18.4118 0.473775 18.5429 0.634018 18.5429H2.53905C2.6993 18.5429 2.8292 18.4118 2.8292 18.2501V16.3279C2.8292 16.1662 2.6993 16.0352 2.53905 16.0352Z" fill="white"/>
<path d="M2.53905 19.5322H0.634018C0.473775 19.5322 0.343872 19.6633 0.343872 19.825V21.7472C0.343872 21.9089 0.473775 22.04 0.634018 22.04H2.53905C2.6993 22.04 2.8292 21.9089 2.8292 21.7472V19.825C2.8292 19.6633 2.6993 19.5322 2.53905 19.5322Z" fill="white"/>
<path d="M5.97655 19.5234H4.12306C3.93408 19.5234 3.78137 19.6775 3.78137 19.8682V21.6844C3.78137 21.8751 3.93408 22.0292 4.12306 22.0292H5.97655C6.1369 22.0292 6.2667 21.8982 6.2667 21.7364V19.8142C6.2667 19.6525 6.1369 19.5215 5.97655 19.5215V19.5234Z" fill="white"/>
<path d="M9.51537 19.5322H7.61034C7.45009 19.5322 7.32019 19.6633 7.32019 19.825V21.7472C7.32019 21.9089 7.45009 22.04 7.61034 22.04H9.51537C9.67562 22.04 9.80552 21.9089 9.80552 21.7472V19.825C9.80552 19.6633 9.67562 19.5322 9.51537 19.5322Z" fill="white"/>
<path d="M13.0044 19.5322H11.0993C10.9391 19.5322 10.8092 19.6633 10.8092 19.825V21.7472C10.8092 21.9089 10.9391 22.04 11.0993 22.04H13.0044C13.1646 22.04 13.2945 21.9089 13.2945 21.7472V19.825C13.2945 19.6633 13.1646 19.5322 13.0044 19.5322Z" fill="white"/>
<path d="M16.5032 19.5322H14.5981C14.4379 19.5322 14.308 19.6633 14.308 19.825V21.7472C14.308 21.9089 14.4379 22.04 14.5981 22.04H16.5032C16.6634 22.04 16.7933 21.9089 16.7933 21.7472V19.825C16.7933 19.6633 16.6634 19.5322 16.5032 19.5322Z" fill="white"/>
<path d="M13.0044 23.0254H11.0993C10.9391 23.0254 10.8092 23.1565 10.8092 23.3182V25.2404C10.8092 25.402 10.9391 25.5331 11.0993 25.5331H13.0044C13.1646 25.5331 13.2945 25.402 13.2945 25.2404V23.3182C13.2945 23.1565 13.1646 23.0254 13.0044 23.0254Z" fill="white"/>
<path d="M9.51537 23.0254H7.61034C7.45009 23.0254 7.32019 23.1565 7.32019 23.3182V25.2404C7.32019 25.402 7.45009 25.5331 7.61034 25.5331H9.51537C9.67562 25.5331 9.80552 25.402 9.80552 25.2404V23.3182C9.80552 23.1565 9.67562 23.0254 9.51537 23.0254Z" fill="white"/>
<path d="M6.02807 23.0254H4.17457C3.98559 23.0254 3.83289 23.1794 3.83289 23.3701V25.1864C3.83289 25.3771 3.98559 25.5312 4.17457 25.5312H6.02807C6.18841 25.5312 6.31821 25.4002 6.31821 25.2384V23.3162C6.31821 23.1544 6.18841 23.0234 6.02807 23.0234V23.0254Z" fill="white"/>
<path d="M2.53905 23.0254H0.634018C0.473775 23.0254 0.343872 23.1565 0.343872 23.3182V25.2404C0.343872 25.402 0.473775 25.5331 0.634018 25.5331H2.53905C2.6993 25.5331 2.8292 25.402 2.8292 25.2404V23.3182C2.8292 23.1565 2.6993 23.0254 2.53905 23.0254Z" fill="white"/>
<path d="M2.53899 5.54785H0.633957C0.473714 5.54785 0.343811 5.67892 0.343811 5.84061V7.76282C0.343811 7.9245 0.473714 8.05558 0.633957 8.05558H2.53899C2.69924 8.05558 2.82914 7.9245 2.82914 7.76282V5.84061C2.82914 5.67892 2.69924 5.54785 2.53899 5.54785Z" fill="white"/>
<path d="M5.97653 5.54785H4.12303C3.96269 5.54785 3.83289 5.67882 3.83289 5.84061V7.76282C3.83289 7.92461 3.96269 8.05558 4.12303 8.05558H5.97653C6.16551 8.05558 6.31821 7.90149 6.31821 7.71081V5.89454C6.31821 5.70386 6.16551 5.54978 5.97653 5.54978V5.54785Z" fill="white"/>
<path d="M9.51537 5.54785H7.61034C7.45009 5.54785 7.32019 5.67892 7.32019 5.84061V7.76282C7.32019 7.9245 7.45009 8.05558 7.61034 8.05558H9.51537C9.67562 8.05558 9.80552 7.9245 9.80552 7.76282V5.84061C9.80552 5.67892 9.67562 5.54785 9.51537 5.54785Z" fill="white"/>
<path d="M13.0044 5.54785H11.0993C10.9391 5.54785 10.8092 5.67892 10.8092 5.84061V7.76282C10.8092 7.9245 10.9391 8.05558 11.0993 8.05558H13.0044C13.1646 8.05558 13.2945 7.9245 13.2945 7.76282V5.84061C13.2945 5.67892 13.1646 5.54785 13.0044 5.54785Z" fill="white"/>
<path d="M16.5032 9.04492H14.5981C14.4379 9.04492 14.308 9.176 14.308 9.33768V11.2599C14.308 11.4216 14.4379 11.5526 14.5981 11.5526H16.5032C16.6634 11.5526 16.7933 11.4216 16.7933 11.2599V9.33768C16.7933 9.176 16.6634 9.04492 16.5032 9.04492Z" fill="white"/>
<path d="M13.0044 9.04492H11.0993C10.9391 9.04492 10.8092 9.176 10.8092 9.33768V11.2599C10.8092 11.4216 10.9391 11.5526 11.0993 11.5526H13.0044C13.1646 11.5526 13.2945 11.4216 13.2945 11.2599V9.33768C13.2945 9.176 13.1646 9.04492 13.0044 9.04492Z" fill="white"/>
<path d="M9.51537 9.04492H7.61034C7.45009 9.04492 7.32019 9.176 7.32019 9.33768V11.2599C7.32019 11.4216 7.45009 11.5526 7.61034 11.5526H9.51537C9.67562 11.5526 9.80552 11.4216 9.80552 11.2599V9.33768C9.80552 9.176 9.67562 9.04492 9.51537 9.04492Z" fill="white"/>
<path d="M6.02807 9.04392H4.17457C3.98559 9.04392 3.83289 9.198 3.83289 9.38868V11.205C3.83289 11.3956 3.98559 11.5497 4.17457 11.5497H6.02807C6.18841 11.5497 6.31821 11.4187 6.31821 11.257V9.33475C6.31821 9.17296 6.18841 9.04199 6.02807 9.04199V9.04392Z" fill="white"/>
<path d="M2.53905 9.04492H0.634018C0.473775 9.04492 0.343872 9.176 0.343872 9.33768V11.2599C0.343872 11.4216 0.473775 11.5526 0.634018 11.5526H2.53905C2.6993 11.5526 2.8292 11.4216 2.8292 11.2599V9.33768C2.8292 9.176 2.6993 9.04492 2.53905 9.04492Z" fill="white"/>
<path d="M2.48751 12.541H0.685557C0.49685 12.541 0.343872 12.6954 0.343872 12.8858V14.704C0.343872 14.8944 0.49685 15.0487 0.685557 15.0487H2.48751C2.67622 15.0487 2.8292 14.8944 2.8292 14.704V12.8858C2.8292 12.6954 2.67622 12.541 2.48751 12.541Z" fill="white"/>
<path d="M6.02807 12.54H4.17457C3.98559 12.54 3.83289 12.6941 3.83289 12.8848V14.701C3.83289 14.8917 3.98559 15.0458 4.17457 15.0458H6.02807C6.18841 15.0458 6.31821 14.9148 6.31821 14.7531V12.8308C6.31821 12.6691 6.18841 12.5381 6.02807 12.5381V12.54Z" fill="white"/>
<path d="M9.51537 12.541H7.61034C7.45009 12.541 7.32019 12.6721 7.32019 12.8338V14.756C7.32019 14.9177 7.45009 15.0487 7.61034 15.0487H9.51537C9.67562 15.0487 9.80552 14.9177 9.80552 14.756V12.8338C9.80552 12.6721 9.67562 12.541 9.51537 12.541Z" fill="white"/>
<path d="M13.0044 12.541H11.0993C10.9391 12.541 10.8092 12.6721 10.8092 12.8338V14.756C10.8092 14.9177 10.9391 15.0487 11.0993 15.0487H13.0044C13.1646 15.0487 13.2945 14.9177 13.2945 14.756V12.8338C13.2945 12.6721 13.1646 12.541 13.0044 12.541Z" fill="white"/>
<path d="M16.5032 12.541H14.5981C14.4379 12.541 14.308 12.6721 14.308 12.8338V14.756C14.308 14.9177 14.4379 15.0487 14.5981 15.0487H16.5032C16.6634 15.0487 16.7933 14.9177 16.7933 14.756V12.8338C16.7933 12.6721 16.6634 12.541 16.5032 12.541Z" fill="white"/>
<path d="M19.9909 12.541H18.0859C17.9256 12.541 17.7957 12.6721 17.7957 12.8338V14.756C17.7957 14.9177 17.9256 15.0487 18.0859 15.0487H19.9909C20.1511 15.0487 20.281 14.9177 20.281 14.756V12.8338C20.281 12.6721 20.1511 12.541 19.9909 12.541Z" fill="white"/>
<path d="M19.9909 16.0371H18.0859C17.9256 16.0371 17.7957 16.1682 17.7957 16.3299V18.2521C17.7957 18.4138 17.9256 18.5448 18.0859 18.5448H19.9909C20.1511 18.5448 20.281 18.4138 20.281 18.2521V16.3299C20.281 16.1682 20.1511 16.0371 19.9909 16.0371Z" fill="white"/>
<path d="M16.5032 16.0371H14.5981C14.4379 16.0371 14.308 16.1682 14.308 16.3299V18.2521C14.308 18.4138 14.4379 18.5448 14.5981 18.5448H16.5032C16.6634 18.5448 16.7933 18.4138 16.7933 18.2521V16.3299C16.7933 16.1682 16.6634 16.0371 16.5032 16.0371Z" fill="white"/>
<path d="M13.0044 16.0371H11.0993C10.9391 16.0371 10.8092 16.1682 10.8092 16.3299V18.2521C10.8092 18.4138 10.9391 18.5448 11.0993 18.5448H13.0044C13.1646 18.5448 13.2945 18.4138 13.2945 18.2521V16.3299C13.2945 16.1682 13.1646 16.0371 13.0044 16.0371Z" fill="white"/>
<path d="M9.51458 16.0371H7.60954C7.4493 16.0371 7.3194 16.1682 7.3194 16.3299V18.2521C7.3194 18.4138 7.4493 18.5448 7.60954 18.5448H9.51458C9.67482 18.5448 9.80472 18.4138 9.80472 18.2521V16.3299C9.80472 16.1682 9.67482 16.0371 9.51458 16.0371Z" fill="white"/>
<path d="M6.02807 16.0361H4.17457C3.98559 16.0361 3.83289 16.1902 3.83289 16.3809V18.1971C3.83289 18.3878 3.98559 18.5419 4.17457 18.5419H6.02807C6.18841 18.5419 6.31821 18.4109 6.31821 18.2491V16.3269C6.31821 16.1652 6.18841 16.0342 6.02807 16.0342V16.0361Z" fill="white"/>
<path d="M2.53905 16.0352H0.634018C0.473775 16.0352 0.343872 16.1662 0.343872 16.3279V18.2501C0.343872 18.4118 0.473775 18.5429 0.634018 18.5429H2.53905C2.6993 18.5429 2.8292 18.4118 2.8292 18.2501V16.3279C2.8292 16.1662 2.6993 16.0352 2.53905 16.0352Z" fill="white"/>
<path d="M2.53905 19.5322H0.634018C0.473775 19.5322 0.343872 19.6633 0.343872 19.825V21.7472C0.343872 21.9089 0.473775 22.04 0.634018 22.04H2.53905C2.6993 22.04 2.8292 21.9089 2.8292 21.7472V19.825C2.8292 19.6633 2.6993 19.5322 2.53905 19.5322Z" fill="white"/>
<path d="M5.97655 19.5234H4.12306C3.93408 19.5234 3.78137 19.6775 3.78137 19.8682V21.6844C3.78137 21.8751 3.93408 22.0292 4.12306 22.0292H5.97655C6.1369 22.0292 6.2667 21.8982 6.2667 21.7364V19.8142C6.2667 19.6525 6.1369 19.5215 5.97655 19.5215V19.5234Z" fill="white"/>
<path d="M9.51537 19.5322H7.61034C7.45009 19.5322 7.32019 19.6633 7.32019 19.825V21.7472C7.32019 21.9089 7.45009 22.04 7.61034 22.04H9.51537C9.67562 22.04 9.80552 21.9089 9.80552 21.7472V19.825C9.80552 19.6633 9.67562 19.5322 9.51537 19.5322Z" fill="white"/>
<path d="M13.0044 19.5322H11.0993C10.9391 19.5322 10.8092 19.6633 10.8092 19.825V21.7472C10.8092 21.9089 10.9391 22.04 11.0993 22.04H13.0044C13.1646 22.04 13.2945 21.9089 13.2945 21.7472V19.825C13.2945 19.6633 13.1646 19.5322 13.0044 19.5322Z" fill="white"/>
<path d="M16.5032 19.5322H14.5981C14.4379 19.5322 14.308 19.6633 14.308 19.825V21.7472C14.308 21.9089 14.4379 22.04 14.5981 22.04H16.5032C16.6634 22.04 16.7933 21.9089 16.7933 21.7472V19.825C16.7933 19.6633 16.6634 19.5322 16.5032 19.5322Z" fill="white"/>
<path d="M13.0044 23.0254H11.0993C10.9391 23.0254 10.8092 23.1565 10.8092 23.3182V25.2404C10.8092 25.402 10.9391 25.5331 11.0993 25.5331H13.0044C13.1646 25.5331 13.2945 25.402 13.2945 25.2404V23.3182C13.2945 23.1565 13.1646 23.0254 13.0044 23.0254Z" fill="white"/>
<path d="M9.51537 23.0254H7.61034C7.45009 23.0254 7.32019 23.1565 7.32019 23.3182V25.2404C7.32019 25.402 7.45009 25.5331 7.61034 25.5331H9.51537C9.67562 25.5331 9.80552 25.402 9.80552 25.2404V23.3182C9.80552 23.1565 9.67562 23.0254 9.51537 23.0254Z" fill="white"/>
<path d="M6.02807 23.0254H4.17457C3.98559 23.0254 3.83289 23.1794 3.83289 23.3701V25.1864C3.83289 25.3771 3.98559 25.5312 4.17457 25.5312H6.02807C6.18841 25.5312 6.31821 25.4002 6.31821 25.2384V23.3162C6.31821 23.1544 6.18841 23.0234 6.02807 23.0234V23.0254Z" fill="white"/>
<path d="M2.53905 23.0254H0.634018C0.473775 23.0254 0.343872 23.1565 0.343872 23.3182V25.2404C0.343872 25.402 0.473775 25.5331 0.634018 25.5331H2.53905C2.6993 25.5331 2.8292 25.402 2.8292 25.2404V23.3182C2.8292 23.1565 2.6993 23.0254 2.53905 23.0254Z" fill="white"/>
<path d="M38.851 9.66803C37.8416 8.07863 35.9531 6.94335 33.1529 6.94335C28.5618 6.94335 25.1755 10.3492 25.1755 15.4093C25.1755 20.7938 28.5618 23.8752 33.1529 23.8752C35.9531 23.8752 37.7439 22.5453 38.851 21.0208L39.2091 23.6806H41.521V0.975029H38.851V9.66803ZM33.4133 21.5074C30.1247 21.5074 27.9106 19.0098 27.9106 15.4093C27.9106 11.8088 30.1247 9.31122 33.4133 9.31122C36.6694 9.31122 38.8835 11.8413 38.8835 15.4742C38.8835 19.0098 36.6694 21.5074 33.4133 21.5074Z" fill="white"/>
<path d="M52.5773 23.8752C56.4194 23.8752 59.1545 21.4425 59.8058 18.134H57.1032C56.5497 20.2748 54.7263 21.5074 52.3819 21.5074C49.2235 21.5074 47.2373 19.3017 47.1396 16.1553V15.9283H60.0337C60.0662 15.539 60.0988 15.1498 60.0988 14.793C59.9686 9.89508 56.9079 6.94335 52.2191 6.94335C47.5304 6.94335 44.3394 10.3816 44.3394 15.4093C44.3394 20.4694 47.5955 23.8752 52.5773 23.8752ZM47.3024 13.7226C47.5629 11.0304 49.8096 9.27879 52.2517 9.27879C55.0193 9.27879 56.973 10.8682 57.2335 13.7226H47.3024Z" fill="white"/>
<path d="M71.0531 6.94335C68.2529 6.94335 66.5597 8.11107 65.5829 9.3761L65.2248 7.13797H62.9129V23.6806H65.5829V15.4093C65.5829 11.6791 67.4714 9.3761 70.5973 9.3761C73.4952 9.3761 75.0907 11.1925 75.0907 14.6308V23.6806H77.7606V14.4686C77.7606 8.98686 74.7976 6.94335 71.0531 6.94335Z" fill="white"/>
<path d="M80.2484 18.2313C80.3135 21.8642 83.2765 23.8752 87.5746 23.8752C91.2539 23.8752 94.217 21.9615 94.217 18.88C94.217 15.2147 91.1888 14.5011 87.4118 14.047C85.0023 13.755 83.244 13.528 83.244 11.7115C83.244 10.187 84.8069 9.21391 87.1187 9.21391C89.398 9.21391 90.9609 10.4789 91.1562 12.1656H93.8913C93.6309 8.72736 90.8958 6.97579 87.1187 6.94335C83.3742 6.91092 80.6066 8.88955 80.6066 11.9061C80.6066 15.3444 83.5696 16.0905 87.2815 16.5446C89.7561 16.8365 91.5795 16.9987 91.5795 19.0746C91.5795 20.5991 89.9189 21.6047 87.5746 21.6047C84.8069 21.6047 83.0812 20.1775 82.9835 18.2313H80.2484Z" fill="white"/>
<path d="M98.3157 4.34843C99.2925 4.34843 100.041 3.63483 100.041 2.62929C100.041 1.62376 99.2925 0.910156 98.3157 0.910156C97.3389 0.910156 96.59 1.62376 96.59 2.62929C96.59 3.63483 97.3389 4.34843 98.3157 4.34843ZM96.9482 23.6806H99.6181V7.13797H96.9482V23.6806Z" fill="white"/>
<path d="M104.281 19.3666C104.281 22.2858 105.42 23.6806 108.611 23.6806H111.509V21.2479H108.872C107.439 21.2479 106.951 20.7289 106.951 19.3341V9.57071H111.249V7.13797H106.951V2.49955H104.281V7.13797H101.285V9.57071H104.281V19.3666Z" fill="white"/>
<path d="M118.409 23.7779L117.595 25.789C116.976 27.3459 116.716 27.7352 115.186 27.7352H112.809V30.1679H116C118.344 30.1679 118.963 29.13 120.005 26.4702L127.656 7.13797H124.824L119.874 20.3397L114.762 7.13797H111.93L118.409 23.7779Z" fill="white"/>
</svg>
