<svg width="559" height="1125" viewBox="0 0 559 1125" fill="none" xmlns="http://www.w3.org/2000/svg">
<path d="M481.371 7.86133H77.6297C39.4504 7.86133 8.5 38.7954 8.5 76.9545V1047.82C8.5 1085.98 39.4504 1116.91 77.6297 1116.91H481.371C519.55 1116.91 550.5 1085.98 550.5 1047.82V76.9545C550.5 38.7954 519.55 7.86133 481.371 7.86133Z" fill="black" stroke="url(#paint0_linear_1_4332)" stroke-width="3.47882" stroke-miterlimit="10"/>
<g filter="url(#filter0_f_1_4332)">
<path d="M481.371 7.86133H77.6297C39.4504 7.86133 8.5 38.7954 8.5 76.9545V1047.82C8.5 1085.98 39.4504 1116.91 77.6297 1116.91H481.371C519.55 1116.91 550.5 1085.98 550.5 1047.82V76.9545C550.5 38.7954 519.55 7.86133 481.371 7.86133Z" fill="black"/>
<path d="M481.371 7.86133H77.6297C39.4504 7.86133 8.5 38.7954 8.5 76.9545V1047.82C8.5 1085.98 39.4504 1116.91 77.6297 1116.91H481.371C519.55 1116.91 550.5 1085.98 550.5 1047.82V76.9545C550.5 38.7954 519.55 7.86133 481.371 7.86133Z" stroke="url(#paint1_linear_1_4332)" stroke-width="1.39153" stroke-miterlimit="10"/>
</g>
<g opacity="0.5" filter="url(#filter1_f_1_4332)">
<ellipse cx="549.804" cy="240.595" rx="2.78305" ry="24.0039" transform="rotate(180 549.804 240.595)" fill="white"/>
</g>
<path d="M315.559 420.722L325.65 435.316L322.07 466.047L311.979 451.453L315.559 420.722Z" fill="#1C934C"/>
<path d="M340.455 451.031L350.546 465.626L347.046 495.673L336.955 481.079L340.455 451.031Z" fill="#1C934C"/>
<path d="M364.871 480.665L374.962 495.259L368.516 550.582L358.425 535.987L364.871 480.665Z" fill="#1C934C"/>
<path d="M358.424 535.984L368.515 550.579L340.599 550.994L330.508 536.399L358.424 535.984Z" fill="#43C277"/>
<path d="M326.929 567.14L337.013 581.734L308.537 582.156L298.446 567.562L326.929 567.14Z" fill="#43C277"/>
<path d="M330.508 536.4L340.599 550.995L337.013 581.733L326.929 567.139L330.508 536.4Z" fill="#1C934C"/>
<path d="M295.106 596.242L305.197 610.837L185.575 612.612L175.484 598.017L295.106 596.242Z" fill="#43C277"/>
<path d="M298.447 567.561L308.538 582.155L305.198 610.835L295.107 596.24L298.447 567.561Z" fill="#1C934C"/>
<path d="M315.557 420.722L311.978 451.453L340.454 451.031L336.954 481.078L364.87 480.664L358.424 535.986L330.508 536.4L326.929 567.139L298.445 567.561L295.106 596.24L175.484 598.016L195.935 422.497L315.557 420.722Z" fill="url(#paint2_linear_1_4332)"/>
<path d="M404.358 352.961L350.544 406.776" stroke="url(#paint3_linear_1_4332)" stroke-width="2.29885" stroke-linecap="round"/>
<path d="M112.865 352.961L166.679 406.776" stroke="url(#paint4_linear_1_4332)" stroke-width="2.29885" stroke-linecap="round"/>
<path d="M477.923 518.716L401.818 518.716" stroke="url(#paint5_linear_1_4332)" stroke-width="2.29885" stroke-linecap="round"/>
<path d="M81.5552 518.716L157.66 518.716" stroke="url(#paint6_linear_1_4332)" stroke-width="2.29885" stroke-linecap="round"/>
<path d="M114.79 673.687L168.604 619.872" stroke="url(#paint7_linear_1_4332)" stroke-width="2.29885" stroke-linecap="round"/>
<path d="M390.828 679.432L337.013 625.618" stroke="url(#paint8_linear_1_4332)" stroke-width="2.29885" stroke-linecap="round"/>
<circle cx="183.601" cy="424.623" r="1.66577" fill="#45DC76"/>
<circle cx="175.485" cy="634.522" r="1.66577" fill="#1D9A46"/>
<circle cx="85.3938" cy="535.626" r="1.66577" fill="#1D9A46"/>
<circle cx="422.375" cy="378.201" r="1.66577" fill="#1D9A46"/>
<circle cx="406.024" cy="535.626" r="1.66577" fill="#1D9A46"/>
<circle cx="152.025" cy="488.365" r="2.70855" fill="#1D9A46"/>
<circle cx="323.83" cy="616.774" r="3.09974" fill="#45DC76"/>
<circle cx="342.396" cy="412.786" r="1.35329" fill="#45DC76"/>
<circle cx="165.297" cy="557.992" r="1.22182" fill="#45DC76"/>
<path d="M391.893 511.851L393.045 515.499L396.693 516.651L393.045 517.803L391.893 521.451L390.745 517.803L387.093 516.651L390.745 515.499L391.893 511.851Z" fill="#45DC76"/>
<path d="M195.337 388.974L195.886 390.711L197.623 391.259L195.886 391.808L195.337 393.544L194.791 391.808L193.052 391.259L194.791 390.711L195.337 388.974Z" fill="#45DC76"/>
<path d="M314.973 411.833L315.329 420.884L322.943 425.79L313.892 426.147L308.986 433.761L308.639 424.712L301.016 419.804L310.075 419.45L314.973 411.833Z" fill="#45DC76"/>
<path d="M196.082 664.087L197.234 667.735L200.882 668.887L197.234 670.039L196.082 673.687L194.933 670.039L191.281 668.887L194.933 667.735L196.082 664.087Z" fill="#45DC76"/>
<path d="M191.178 123.822H188.426C188.195 123.822 188.007 124.012 188.007 124.247V127.035C188.007 127.27 188.195 127.46 188.426 127.46H191.178C191.41 127.46 191.597 127.27 191.597 127.035V124.247C191.597 124.012 191.41 123.822 191.178 123.822Z" fill="white"/>
<path d="M196.144 123.822H193.467C193.235 123.822 193.047 124.012 193.047 124.247V127.035C193.047 127.27 193.235 127.46 193.467 127.46H196.144C196.417 127.46 196.638 127.236 196.638 126.96V124.325C196.638 124.049 196.417 123.825 196.144 123.825V123.822Z" fill="white"/>
<path d="M201.255 123.822H198.503C198.272 123.822 198.084 124.012 198.084 124.247V127.035C198.084 127.27 198.272 127.46 198.503 127.46H201.255C201.487 127.46 201.674 127.27 201.674 127.035V124.247C201.674 124.012 201.487 123.822 201.255 123.822Z" fill="white"/>
<path d="M206.296 123.822H203.544C203.313 123.822 203.125 124.012 203.125 124.247V127.035C203.125 127.27 203.313 127.46 203.544 127.46H206.296C206.528 127.46 206.715 127.27 206.715 127.035V124.247C206.715 124.012 206.528 123.822 206.296 123.822Z" fill="white"/>
<path d="M211.35 128.895H208.598C208.366 128.895 208.179 129.085 208.179 129.319V132.108C208.179 132.342 208.366 132.532 208.598 132.532H211.35C211.581 132.532 211.769 132.342 211.769 132.108V129.319C211.769 129.085 211.581 128.895 211.35 128.895Z" fill="white"/>
<path d="M206.296 128.895H203.544C203.313 128.895 203.125 129.085 203.125 129.319V132.108C203.125 132.342 203.313 132.532 203.544 132.532H206.296C206.528 132.532 206.715 132.342 206.715 132.108V129.319C206.715 129.085 206.528 128.895 206.296 128.895Z" fill="white"/>
<path d="M201.256 128.895H198.504C198.272 128.895 198.085 129.085 198.085 129.319V132.108C198.085 132.342 198.272 132.532 198.504 132.532H201.256C201.487 132.532 201.675 132.342 201.675 132.108V129.319C201.675 129.085 201.487 128.895 201.256 128.895Z" fill="white"/>
<path d="M196.219 128.894H193.541C193.268 128.894 193.047 129.118 193.047 129.395V132.029C193.047 132.306 193.268 132.529 193.541 132.529H196.219C196.45 132.529 196.638 132.339 196.638 132.105V129.316C196.638 129.082 196.45 128.892 196.219 128.892V128.894Z" fill="white"/>
<path d="M191.178 128.895H188.426C188.195 128.895 188.007 129.085 188.007 129.319V132.108C188.007 132.342 188.195 132.532 188.426 132.532H191.178C191.41 132.532 191.597 132.342 191.597 132.108V129.319C191.597 129.085 191.41 128.895 191.178 128.895Z" fill="white"/>
<path d="M191.104 133.966H188.501C188.228 133.966 188.007 134.19 188.007 134.466V137.103C188.007 137.38 188.228 137.604 188.501 137.604H191.104C191.376 137.604 191.597 137.38 191.597 137.103V134.466C191.597 134.19 191.376 133.966 191.104 133.966Z" fill="white"/>
<path d="M196.219 133.966H193.541C193.268 133.966 193.047 134.189 193.047 134.466V137.101C193.047 137.377 193.268 137.601 193.541 137.601H196.219C196.45 137.601 196.638 137.411 196.638 137.176V134.388C196.638 134.153 196.45 133.963 196.219 133.963V133.966Z" fill="white"/>
<path d="M201.255 133.966H198.503C198.272 133.966 198.084 134.156 198.084 134.391V137.179C198.084 137.413 198.272 137.604 198.503 137.604H201.255C201.487 137.604 201.674 137.413 201.674 137.179V134.391C201.674 134.156 201.487 133.966 201.255 133.966Z" fill="white"/>
<path d="M206.296 133.966H203.544C203.313 133.966 203.125 134.156 203.125 134.391V137.179C203.125 137.413 203.313 137.604 203.544 137.604H206.296C206.528 137.604 206.715 137.413 206.715 137.179V134.391C206.715 134.156 206.528 133.966 206.296 133.966Z" fill="white"/>
<path d="M211.35 133.966H208.598C208.367 133.966 208.179 134.156 208.179 134.391V137.179C208.179 137.413 208.367 137.604 208.598 137.604H211.35C211.582 137.604 211.769 137.413 211.769 137.179V134.391C211.769 134.156 211.582 133.966 211.35 133.966Z" fill="white"/>
<path d="M216.389 133.966H213.637C213.406 133.966 213.218 134.156 213.218 134.391V137.179C213.218 137.413 213.406 137.604 213.637 137.604H216.389C216.621 137.604 216.808 137.413 216.808 137.179V134.391C216.808 134.156 216.621 133.966 216.389 133.966Z" fill="white"/>
<path d="M216.39 139.037H213.638C213.406 139.037 213.218 139.227 213.218 139.462V142.25C213.218 142.485 213.406 142.675 213.638 142.675H216.39C216.621 142.675 216.809 142.485 216.809 142.25V139.462C216.809 139.227 216.621 139.037 216.39 139.037Z" fill="white"/>
<path d="M211.35 139.037H208.598C208.366 139.037 208.179 139.227 208.179 139.462V142.25C208.179 142.485 208.366 142.675 208.598 142.675H211.35C211.581 142.675 211.769 142.485 211.769 142.25V139.462C211.769 139.227 211.581 139.037 211.35 139.037Z" fill="white"/>
<path d="M206.296 139.037H203.544C203.313 139.037 203.125 139.227 203.125 139.462V142.25C203.125 142.485 203.313 142.675 203.544 142.675H206.296C206.528 142.675 206.715 142.485 206.715 142.25V139.462C206.715 139.227 206.528 139.037 206.296 139.037Z" fill="white"/>
<path d="M201.256 139.037H198.504C198.272 139.037 198.085 139.227 198.085 139.462V142.25C198.085 142.485 198.272 142.675 198.504 142.675H201.256C201.487 142.675 201.675 142.485 201.675 142.25V139.462C201.675 139.227 201.487 139.037 201.256 139.037Z" fill="white"/>
<path d="M196.219 139.036H193.541C193.268 139.036 193.047 139.26 193.047 139.536V142.171C193.047 142.447 193.268 142.671 193.541 142.671H196.219C196.45 142.671 196.638 142.481 196.638 142.246V139.458C196.638 139.223 196.45 139.033 196.219 139.033V139.036Z" fill="white"/>
<path d="M191.178 139.035H188.426C188.195 139.035 188.007 139.225 188.007 139.46V142.248C188.007 142.483 188.195 142.673 188.426 142.673H191.178C191.41 142.673 191.597 142.483 191.597 142.248V139.46C191.597 139.225 191.41 139.035 191.178 139.035Z" fill="white"/>
<path d="M191.178 144.108H188.426C188.195 144.108 188.007 144.299 188.007 144.533V147.321C188.007 147.556 188.195 147.746 188.426 147.746H191.178C191.41 147.746 191.597 147.556 191.597 147.321V144.533C191.597 144.299 191.41 144.108 191.178 144.108Z" fill="white"/>
<path d="M196.144 144.096H193.466C193.193 144.096 192.973 144.319 192.973 144.596V147.23C192.973 147.507 193.193 147.731 193.466 147.731H196.144C196.375 147.731 196.563 147.541 196.563 147.306V144.517C196.563 144.283 196.375 144.093 196.144 144.093V144.096Z" fill="white"/>
<path d="M201.256 144.108H198.504C198.272 144.108 198.085 144.299 198.085 144.533V147.321C198.085 147.556 198.272 147.746 198.504 147.746H201.256C201.487 147.746 201.675 147.556 201.675 147.321V144.533C201.675 144.299 201.487 144.108 201.256 144.108Z" fill="white"/>
<path d="M206.296 144.108H203.544C203.313 144.108 203.125 144.299 203.125 144.533V147.321C203.125 147.556 203.313 147.746 203.544 147.746H206.296C206.528 147.746 206.715 147.556 206.715 147.321V144.533C206.715 144.299 206.528 144.108 206.296 144.108Z" fill="white"/>
<path d="M211.35 144.108H208.598C208.366 144.108 208.179 144.299 208.179 144.533V147.321C208.179 147.556 208.366 147.746 208.598 147.746H211.35C211.581 147.746 211.769 147.556 211.769 147.321V144.533C211.769 144.299 211.581 144.108 211.35 144.108Z" fill="white"/>
<path d="M206.296 149.177H203.544C203.313 149.177 203.125 149.367 203.125 149.601V152.39C203.125 152.624 203.313 152.814 203.544 152.814H206.296C206.528 152.814 206.715 152.624 206.715 152.39V149.601C206.715 149.367 206.528 149.177 206.296 149.177Z" fill="white"/>
<path d="M201.255 149.176H198.503C198.272 149.176 198.084 149.366 198.084 149.6V152.389C198.084 152.623 198.272 152.814 198.503 152.814H201.255C201.487 152.814 201.674 152.623 201.674 152.389V149.6C201.674 149.366 201.487 149.176 201.255 149.176Z" fill="white"/>
<path d="M196.219 149.175H193.541C193.268 149.175 193.047 149.398 193.047 149.675V152.309C193.047 152.586 193.268 152.81 193.541 152.81H196.219C196.45 152.81 196.638 152.62 196.638 152.385V149.597C196.638 149.362 196.45 149.172 196.219 149.172V149.175Z" fill="white"/>
<path d="M191.178 149.177H188.426C188.195 149.177 188.007 149.367 188.007 149.601V152.39C188.007 152.624 188.195 152.814 188.426 152.814H191.178C191.41 152.814 191.597 152.624 191.597 152.39V149.601C191.597 149.367 191.41 149.177 191.178 149.177Z" fill="white"/>
<path d="M191.178 123.822H188.426C188.195 123.822 188.007 124.012 188.007 124.247V127.035C188.007 127.27 188.195 127.46 188.426 127.46H191.178C191.41 127.46 191.597 127.27 191.597 127.035V124.247C191.597 124.012 191.41 123.822 191.178 123.822Z" fill="white"/>
<path d="M196.144 123.822H193.467C193.235 123.822 193.047 124.012 193.047 124.247V127.035C193.047 127.27 193.235 127.46 193.467 127.46H196.144C196.417 127.46 196.638 127.236 196.638 126.96V124.325C196.638 124.049 196.417 123.825 196.144 123.825V123.822Z" fill="white"/>
<path d="M201.255 123.822H198.503C198.272 123.822 198.084 124.012 198.084 124.247V127.035C198.084 127.27 198.272 127.46 198.503 127.46H201.255C201.487 127.46 201.674 127.27 201.674 127.035V124.247C201.674 124.012 201.487 123.822 201.255 123.822Z" fill="white"/>
<path d="M206.296 123.822H203.544C203.313 123.822 203.125 124.012 203.125 124.247V127.035C203.125 127.27 203.313 127.46 203.544 127.46H206.296C206.528 127.46 206.715 127.27 206.715 127.035V124.247C206.715 124.012 206.528 123.822 206.296 123.822Z" fill="white"/>
<path d="M211.35 128.895H208.598C208.366 128.895 208.179 129.085 208.179 129.319V132.108C208.179 132.342 208.366 132.532 208.598 132.532H211.35C211.581 132.532 211.769 132.342 211.769 132.108V129.319C211.769 129.085 211.581 128.895 211.35 128.895Z" fill="white"/>
<path d="M206.296 128.895H203.544C203.313 128.895 203.125 129.085 203.125 129.319V132.108C203.125 132.342 203.313 132.532 203.544 132.532H206.296C206.528 132.532 206.715 132.342 206.715 132.108V129.319C206.715 129.085 206.528 128.895 206.296 128.895Z" fill="white"/>
<path d="M201.256 128.895H198.504C198.272 128.895 198.085 129.085 198.085 129.319V132.108C198.085 132.342 198.272 132.532 198.504 132.532H201.256C201.487 132.532 201.675 132.342 201.675 132.108V129.319C201.675 129.085 201.487 128.895 201.256 128.895Z" fill="white"/>
<path d="M196.219 128.894H193.541C193.268 128.894 193.047 129.118 193.047 129.395V132.029C193.047 132.306 193.268 132.529 193.541 132.529H196.219C196.45 132.529 196.638 132.339 196.638 132.105V129.316C196.638 129.082 196.45 128.892 196.219 128.892V128.894Z" fill="white"/>
<path d="M191.178 128.895H188.426C188.195 128.895 188.007 129.085 188.007 129.319V132.108C188.007 132.342 188.195 132.532 188.426 132.532H191.178C191.41 132.532 191.597 132.342 191.597 132.108V129.319C191.597 129.085 191.41 128.895 191.178 128.895Z" fill="white"/>
<path d="M191.104 133.966H188.501C188.228 133.966 188.007 134.19 188.007 134.466V137.103C188.007 137.38 188.228 137.604 188.501 137.604H191.104C191.376 137.604 191.597 137.38 191.597 137.103V134.466C191.597 134.19 191.376 133.966 191.104 133.966Z" fill="white"/>
<path d="M196.219 133.966H193.541C193.268 133.966 193.047 134.189 193.047 134.466V137.101C193.047 137.377 193.268 137.601 193.541 137.601H196.219C196.45 137.601 196.638 137.411 196.638 137.176V134.388C196.638 134.153 196.45 133.963 196.219 133.963V133.966Z" fill="white"/>
<path d="M201.255 133.966H198.503C198.272 133.966 198.084 134.156 198.084 134.391V137.179C198.084 137.413 198.272 137.604 198.503 137.604H201.255C201.487 137.604 201.674 137.413 201.674 137.179V134.391C201.674 134.156 201.487 133.966 201.255 133.966Z" fill="white"/>
<path d="M206.296 133.966H203.544C203.313 133.966 203.125 134.156 203.125 134.391V137.179C203.125 137.413 203.313 137.604 203.544 137.604H206.296C206.528 137.604 206.715 137.413 206.715 137.179V134.391C206.715 134.156 206.528 133.966 206.296 133.966Z" fill="white"/>
<path d="M211.35 133.966H208.598C208.367 133.966 208.179 134.156 208.179 134.391V137.179C208.179 137.413 208.367 137.604 208.598 137.604H211.35C211.582 137.604 211.769 137.413 211.769 137.179V134.391C211.769 134.156 211.582 133.966 211.35 133.966Z" fill="white"/>
<path d="M216.389 133.966H213.637C213.406 133.966 213.218 134.156 213.218 134.391V137.179C213.218 137.413 213.406 137.604 213.637 137.604H216.389C216.621 137.604 216.808 137.413 216.808 137.179V134.391C216.808 134.156 216.621 133.966 216.389 133.966Z" fill="white"/>
<path d="M216.39 139.037H213.638C213.406 139.037 213.218 139.227 213.218 139.462V142.25C213.218 142.485 213.406 142.675 213.638 142.675H216.39C216.621 142.675 216.809 142.485 216.809 142.25V139.462C216.809 139.227 216.621 139.037 216.39 139.037Z" fill="white"/>
<path d="M211.35 139.037H208.598C208.366 139.037 208.179 139.227 208.179 139.462V142.25C208.179 142.485 208.366 142.675 208.598 142.675H211.35C211.581 142.675 211.769 142.485 211.769 142.25V139.462C211.769 139.227 211.581 139.037 211.35 139.037Z" fill="white"/>
<path d="M206.296 139.037H203.544C203.313 139.037 203.125 139.227 203.125 139.462V142.25C203.125 142.485 203.313 142.675 203.544 142.675H206.296C206.528 142.675 206.715 142.485 206.715 142.25V139.462C206.715 139.227 206.528 139.037 206.296 139.037Z" fill="white"/>
<path d="M201.256 139.037H198.504C198.272 139.037 198.085 139.227 198.085 139.462V142.25C198.085 142.485 198.272 142.675 198.504 142.675H201.256C201.487 142.675 201.675 142.485 201.675 142.25V139.462C201.675 139.227 201.487 139.037 201.256 139.037Z" fill="white"/>
<path d="M196.219 139.036H193.541C193.268 139.036 193.047 139.26 193.047 139.536V142.171C193.047 142.447 193.268 142.671 193.541 142.671H196.219C196.45 142.671 196.638 142.481 196.638 142.246V139.458C196.638 139.223 196.45 139.033 196.219 139.033V139.036Z" fill="white"/>
<path d="M191.178 139.035H188.426C188.195 139.035 188.007 139.225 188.007 139.46V142.248C188.007 142.483 188.195 142.673 188.426 142.673H191.178C191.41 142.673 191.597 142.483 191.597 142.248V139.46C191.597 139.225 191.41 139.035 191.178 139.035Z" fill="white"/>
<path d="M191.178 144.108H188.426C188.195 144.108 188.007 144.299 188.007 144.533V147.321C188.007 147.556 188.195 147.746 188.426 147.746H191.178C191.41 147.746 191.597 147.556 191.597 147.321V144.533C191.597 144.299 191.41 144.108 191.178 144.108Z" fill="white"/>
<path d="M196.144 144.096H193.466C193.193 144.096 192.973 144.319 192.973 144.596V147.23C192.973 147.507 193.193 147.731 193.466 147.731H196.144C196.375 147.731 196.563 147.541 196.563 147.306V144.517C196.563 144.283 196.375 144.093 196.144 144.093V144.096Z" fill="white"/>
<path d="M201.256 144.108H198.504C198.272 144.108 198.085 144.299 198.085 144.533V147.321C198.085 147.556 198.272 147.746 198.504 147.746H201.256C201.487 147.746 201.675 147.556 201.675 147.321V144.533C201.675 144.299 201.487 144.108 201.256 144.108Z" fill="white"/>
<path d="M206.296 144.108H203.544C203.313 144.108 203.125 144.299 203.125 144.533V147.321C203.125 147.556 203.313 147.746 203.544 147.746H206.296C206.528 147.746 206.715 147.556 206.715 147.321V144.533C206.715 144.299 206.528 144.108 206.296 144.108Z" fill="white"/>
<path d="M211.35 144.108H208.598C208.366 144.108 208.179 144.299 208.179 144.533V147.321C208.179 147.556 208.366 147.746 208.598 147.746H211.35C211.581 147.746 211.769 147.556 211.769 147.321V144.533C211.769 144.299 211.581 144.108 211.35 144.108Z" fill="white"/>
<path d="M206.296 149.177H203.544C203.313 149.177 203.125 149.367 203.125 149.601V152.39C203.125 152.624 203.313 152.814 203.544 152.814H206.296C206.528 152.814 206.715 152.624 206.715 152.39V149.601C206.715 149.367 206.528 149.177 206.296 149.177Z" fill="white"/>
<path d="M201.255 149.176H198.503C198.272 149.176 198.084 149.366 198.084 149.6V152.389C198.084 152.623 198.272 152.814 198.503 152.814H201.255C201.487 152.814 201.674 152.623 201.674 152.389V149.6C201.674 149.366 201.487 149.176 201.255 149.176Z" fill="white"/>
<path d="M196.219 149.175H193.541C193.268 149.175 193.047 149.398 193.047 149.675V152.309C193.047 152.586 193.268 152.81 193.541 152.81H196.219C196.45 152.81 196.638 152.62 196.638 152.385V149.597C196.638 149.362 196.45 149.172 196.219 149.172V149.175Z" fill="white"/>
<path d="M191.178 149.177H188.426C188.195 149.177 188.007 149.367 188.007 149.601V152.39C188.007 152.624 188.195 152.814 188.426 152.814H191.178C191.41 152.814 191.597 152.624 191.597 152.39V149.601C191.597 149.367 191.41 149.177 191.178 149.177Z" fill="white"/>
<path d="M243.634 129.801C242.176 127.495 239.448 125.848 235.402 125.848C228.77 125.848 223.878 130.789 223.878 138.129C223.878 145.94 228.77 150.41 235.402 150.41C239.448 150.41 242.035 148.481 243.634 146.269L244.151 150.128H247.491V117.191H243.634V129.801ZM235.779 146.975C231.028 146.975 227.829 143.352 227.829 138.129C227.829 132.906 231.028 129.283 235.779 129.283C240.482 129.283 243.681 132.953 243.681 138.223C243.681 143.352 240.482 146.975 235.779 146.975Z" fill="white"/>
<path d="M263.463 150.41C269.013 150.41 272.964 146.881 273.905 142.082H270.001C269.201 145.187 266.567 146.975 263.181 146.975C258.618 146.975 255.749 143.776 255.608 139.211V138.882H274.234C274.281 138.317 274.328 137.753 274.328 137.235C274.14 130.13 269.719 125.848 262.945 125.848C256.172 125.848 251.562 130.836 251.562 138.129C251.562 145.47 256.266 150.41 263.463 150.41ZM255.843 135.683C256.219 131.777 259.465 129.236 262.992 129.236C266.991 129.236 269.813 131.542 270.189 135.683H255.843Z" fill="white"/>
<path d="M290.153 125.848C286.108 125.848 283.662 127.542 282.251 129.377L281.733 126.131H278.394V150.128H282.251V138.129C282.251 132.718 284.979 129.377 289.494 129.377C293.681 129.377 295.985 132.012 295.985 137V150.128H299.842V136.765C299.842 128.813 295.562 125.848 290.153 125.848Z" fill="white"/>
<path d="M303.436 142.223C303.53 147.493 307.811 150.41 314.02 150.41C319.335 150.41 323.615 147.634 323.615 143.164C323.615 137.847 319.241 136.812 313.784 136.153C310.304 135.73 307.764 135.4 307.764 132.765C307.764 130.554 310.021 129.142 313.361 129.142C316.654 129.142 318.911 130.977 319.194 133.424H323.145C322.768 128.436 318.817 125.896 313.361 125.848C307.952 125.801 303.954 128.672 303.954 133.048C303.954 138.035 308.234 139.117 313.596 139.776C317.171 140.2 319.805 140.435 319.805 143.446C319.805 145.658 317.406 147.116 314.02 147.116C310.021 147.116 307.528 145.046 307.387 142.223H303.436Z" fill="white"/>
<path d="M329.536 122.084C330.947 122.084 332.029 121.049 332.029 119.59C332.029 118.132 330.947 117.097 329.536 117.097C328.125 117.097 327.043 118.132 327.043 119.59C327.043 121.049 328.125 122.084 329.536 122.084ZM327.561 150.128H331.418V126.131H327.561V150.128Z" fill="white"/>
<path d="M338.153 143.87C338.153 148.104 339.799 150.128 344.409 150.128H348.595V146.599H344.785C342.715 146.599 342.01 145.846 342.01 143.823V129.66H348.219V126.131H342.01V119.402H338.153V126.131H333.826V129.66H338.153V143.87Z" fill="white"/>
<path d="M358.563 150.269L357.387 153.186C356.493 155.445 356.117 156.009 353.906 156.009H350.472V159.538H355.082C358.469 159.538 359.362 158.033 360.868 154.174L371.921 126.131H367.829L360.679 145.281L353.295 126.131H349.202L358.563 150.269Z" fill="white"/>
<defs>
<filter id="filter0_f_1_4332" x="0.846619" y="0.208375" width="557.307" height="1124.35" filterUnits="userSpaceOnUse" color-interpolation-filters="sRGB">
<feFlood flood-opacity="0" result="BackgroundImageFix"/>
<feBlend mode="normal" in="SourceGraphic" in2="BackgroundImageFix" result="shape"/>
<feGaussianBlur stdDeviation="3.47882" result="effect1_foregroundBlur_1_4332"/>
</filter>
<filter id="filter1_f_1_4332" x="541.455" y="211.025" width="16.6984" height="59.14" filterUnits="userSpaceOnUse" color-interpolation-filters="sRGB">
<feFlood flood-opacity="0" result="BackgroundImageFix"/>
<feBlend mode="normal" in="SourceGraphic" in2="BackgroundImageFix" result="shape"/>
<feGaussianBlur stdDeviation="2.78306" result="effect1_foregroundBlur_1_4332"/>
</filter>
<linearGradient id="paint0_linear_1_4332" x1="435.645" y1="-37.5558" x2="1031.99" y2="848.29" gradientUnits="userSpaceOnUse">
<stop stop-color="#1D7B6E"/>
<stop offset="1" stop-color="#E2FF6F" stop-opacity="0"/>
</linearGradient>
<linearGradient id="paint1_linear_1_4332" x1="435.645" y1="-37.5558" x2="1031.99" y2="848.29" gradientUnits="userSpaceOnUse">
<stop stop-color="#28B6A2"/>
<stop offset="1" stop-color="#E2FF6F" stop-opacity="0"/>
</linearGradient>
<linearGradient id="paint2_linear_1_4332" x1="270.989" y1="425.545" x2="270.989" y2="598.014" gradientUnits="userSpaceOnUse">
<stop offset="0.4375" stop-color="#D4F938"/>
<stop offset="1" stop-color="#32D875" stop-opacity="0.96"/>
</linearGradient>
<linearGradient id="paint3_linear_1_4332" x1="377.451" y1="352.961" x2="377.451" y2="406.776" gradientUnits="userSpaceOnUse">
<stop stop-color="#3CD279"/>
<stop offset="1" stop-color="#3ED179" stop-opacity="0"/>
</linearGradient>
<linearGradient id="paint4_linear_1_4332" x1="139.772" y1="352.961" x2="139.772" y2="406.776" gradientUnits="userSpaceOnUse">
<stop stop-color="#3CD279"/>
<stop offset="1" stop-color="#3ED179" stop-opacity="0"/>
</linearGradient>
<linearGradient id="paint5_linear_1_4332" x1="458.897" y1="499.69" x2="420.844" y2="537.742" gradientUnits="userSpaceOnUse">
<stop stop-color="#3CD279"/>
<stop offset="1" stop-color="#3ED179" stop-opacity="0"/>
</linearGradient>
<linearGradient id="paint6_linear_1_4332" x1="100.581" y1="499.69" x2="138.634" y2="537.742" gradientUnits="userSpaceOnUse">
<stop stop-color="#3CD279"/>
<stop offset="1" stop-color="#3ED179" stop-opacity="0"/>
</linearGradient>
<linearGradient id="paint7_linear_1_4332" x1="114.79" y1="646.779" x2="168.604" y2="646.779" gradientUnits="userSpaceOnUse">
<stop stop-color="#3CD279"/>
<stop offset="1" stop-color="#3ED179" stop-opacity="0"/>
</linearGradient>
<linearGradient id="paint8_linear_1_4332" x1="390.828" y1="652.525" x2="337.013" y2="652.525" gradientUnits="userSpaceOnUse">
<stop stop-color="#3CD279"/>
<stop offset="1" stop-color="#3ED179" stop-opacity="0"/>
</linearGradient>
</defs>
</svg>
