<svg width="98" height="105" viewBox="0 0 98 105" fill="none" xmlns="http://www.w3.org/2000/svg">
<path d="M74.6039 59.34L77.681 57.5516C92.1921 65.929 92.2679 79.4946 77.852 87.872C63.4505 96.2409 40.0153 96.2506 25.5055 87.872C11.0113 79.503 10.9342 65.9193 25.3356 57.5504C39.7516 49.173 63.1868 49.1814 77.6822 57.5504L74.6051 59.3388C61.8259 51.9586 41.1438 51.9502 28.4344 59.3388C15.7347 66.7166 15.8021 78.7058 28.5849 86.0836C41.3786 93.4722 62.0595 93.4637 74.7569 86.0836C87.4711 78.6961 87.4036 66.7274 74.6063 59.34H74.6039Z" fill="#58F28A"/>
<path d="M73.279 52.3332C77.1462 54.7093 81.0229 57.7888 82.88 61.9474C94.5922 88.1948 51.5648 99.3554 28.5837 86.0836C23.5242 83.1642 20.458 79.5223 19.3849 75.7287C17.9819 70.6391 18.4395 65.2521 20.6085 61.3163C21.1661 60.3047 22.4716 57.937 25.4704 55.3922C27.7478 53.4592 30.3637 51.8454 33.2432 50.5953C39.3071 47.9626 46.4199 46.7414 53.8133 47.0618C64.1502 47.5098 70.8704 50.8964 73.2802 52.332C71.9085 51.5407 70.768 52.4283 70.6981 52.4837C60.1108 46.3657 42.949 46.3597 32.4183 52.4837C21.8923 58.5945 21.9477 68.5472 32.5423 74.658C43.1429 80.7833 60.3047 80.776 70.8234 74.658C81.3638 68.5363 81.3084 58.6066 70.6981 52.4849C70.768 52.4307 71.9085 51.5419 73.2802 52.3332H73.279Z" fill="#28A45A"/>
<path d="M88.6141 72.8182C87.3893 79.9575 92.7028 89.8933 77.7437 98.5862C54.7349 111.958 14.4221 102.498 14.4763 83.3212L14.5846 72.6074C14.569 78.1305 18.2121 83.662 25.5056 87.8736C48.3904 101.086 88.5599 92.0418 88.6141 72.8182Z" fill="#28A45A"/>
<path d="M70.7089 48.2277C81.3192 54.3494 81.3746 64.2791 70.8342 70.4008C60.3155 76.5188 43.1537 76.5261 32.5531 70.4008C21.9585 64.29 21.9019 54.3373 32.4291 48.2265C42.9598 42.1025 60.1216 42.1085 70.7089 48.2265V48.2277Z" fill="#58F28A"/>
<circle cx="51.5459" cy="46.1139" r="35.0153" fill="url(#paint0_linear_1_4072)"/>
<path d="M8.62013 31.9146C8.62013 31.9146 7.73397 34.343 7.68055 34.9442C7.62713 35.5454 7.12212 36.6324 8.6789 37.4508C8.6789 37.4508 10.496 38.321 11.0073 38.4299C11.0073 38.4299 9.0724 37.7513 8.52723 37.698C7.98206 37.6447 6.91342 37.3989 5.97262 39.5653L5.04507 41.9553C5.04507 41.9553 5.90847 39.4115 5.99484 38.8858C6.08121 38.3601 6.5055 37.1299 4.85504 36.3421L2.78673 35.4785C2.78673 35.4785 4.46433 36.1307 5.50809 36.2131C6.55184 36.2954 7.43135 35.1826 8.62013 31.9146Z" fill="#33B568" stroke="#33B568" stroke-width="0.49391" stroke-miterlimit="10"/>
<circle cx="30.1566" cy="1.64019" r="1.20009" transform="rotate(5.63183 30.1566 1.64019)" fill="white"/>
<circle cx="10.4755" cy="60.6255" r="1.20009" transform="rotate(5.63183 10.4755 60.6255)" fill="#33B568"/>
<circle cx="14.5849" cy="101.154" r="1.20009" transform="rotate(5.63183 14.5849 101.154)" fill="white"/>
<circle cx="96.7749" cy="85.3805" r="0.666886" transform="rotate(5.63183 96.7749 85.3805)" fill="white"/>
<circle cx="72.675" cy="6.58608" r="1.9393" transform="rotate(5.63183 72.675 6.58608)" fill="#33B568"/>
<path d="M85.8428 16.1311C85.8428 16.1311 83.8999 21.4551 83.7828 22.7732C83.6657 24.0913 82.5585 26.4745 85.9716 28.2689C85.9716 28.2689 89.9555 30.1766 91.0763 30.4154C91.0763 30.4154 86.8343 28.9275 85.6391 28.8107C84.4438 28.6938 82.1009 28.155 80.0383 32.9046L78.0048 38.1445C78.0048 38.1445 79.8977 32.5674 80.087 31.4148C80.2764 30.2623 81.2066 27.5652 77.5881 25.838L73.0536 23.9446C73.0536 23.9446 76.7316 25.3745 79.0199 25.5551C81.3082 25.7357 83.2365 23.296 85.8428 16.1311Z" fill="white" stroke="white" stroke-width="0.49391" stroke-miterlimit="10"/>
<defs>
<linearGradient id="paint0_linear_1_4072" x1="51.846" y1="13.004" x2="51.846" y2="81.1284" gradientUnits="userSpaceOnUse">
<stop offset="0.4375" stop-color="#D4F938"/>
<stop offset="1" stop-color="#32D875" stop-opacity="0.96"/>
</linearGradient>
</defs>
</svg>
