<svg width="33" height="33" viewBox="0 0 33 33" fill="none" xmlns="http://www.w3.org/2000/svg">
<path d="M32.0213 20.6088C29.8841 29.1803 21.2016 34.3967 12.6281 32.2593C4.05818 30.1224 -1.15886 21.4403 0.979231 12.8694C3.11545 4.29699 11.798 -0.91986 20.3688 1.21706C28.9417 3.35397 34.1584 12.037 32.021 20.6089L32.0212 20.6088H32.0213Z" fill="#D8D8DD"/>
<g clip-path="url(#clip0_1_2915)">
<path d="M16.9979 5.56934L16.8451 6.07053V20.6142L16.9979 20.7614L23.9941 16.7709L16.9979 5.56934Z" fill="#343434"/>
<path d="M16.998 5.56934L10.0018 16.7709L16.998 20.7614V13.7024V5.56934Z" fill="#8C8C8C"/>
<path d="M16.9979 22.0395L16.9117 22.1408V27.3216L16.9979 27.5643L23.9982 18.051L16.9979 22.0395Z" fill="#3C3C3B"/>
<path d="M16.9979 27.5643V22.0395L10.0017 18.051L16.9979 27.5643Z" fill="#8C8C8C"/>
<path d="M16.9979 20.7613L23.994 16.7709L16.9979 13.7024V20.7613Z" fill="#141414"/>
<path d="M10.0018 16.7709L16.9979 20.7613V13.7024L10.0018 16.7709Z" fill="#393939"/>
</g>
<defs>
<clipPath id="clip0_1_2915">
<rect width="14" height="22" fill="white" transform="translate(10 5.56934)"/>
</clipPath>
</defs>
</svg>
