<svg width="110" height="97" viewBox="0 0 110 97" fill="none" xmlns="http://www.w3.org/2000/svg">
<path d="M33.6931 7.7191C25.901 7.94794 20.2202 14.6604 20.9797 22.7305C21.7391 30.8007 28.6502 37.1318 36.4423 36.9029C44.2344 36.6741 49.9152 29.9617 49.1709 21.9067C48.4267 13.8518 41.4852 7.50553 33.6931 7.7191Z" fill="url(#paint0_linear_1_3985)"/>
<path d="M15.3905 24.7292C15.3905 24.5308 15.4209 24.3325 15.4361 24.1342C15.4664 23.7986 15.4664 23.463 15.512 23.1426C15.512 23.0663 15.5424 23.0053 15.5576 22.929C15.6032 22.6697 15.6487 22.4256 15.7095 22.1815C15.755 21.9374 15.8006 21.6781 15.8614 21.4492C15.8766 21.3577 15.9221 21.2814 15.9373 21.2051C16.0285 20.9153 16.1196 20.6254 16.2259 20.3356C16.3322 20.0457 16.4234 19.7711 16.5449 19.4965C16.6664 19.2219 16.8031 18.9626 16.9398 18.688C17.0309 18.5049 17.1221 18.2913 17.2132 18.1083C17.2588 18.032 17.3043 17.971 17.3499 17.9099C17.517 17.6201 17.7145 17.3455 17.9119 17.0861C18.0334 16.9183 18.1246 16.7353 18.2461 16.5827C18.2916 16.5217 18.3524 16.4759 18.398 16.4149C18.5195 16.2623 18.6714 16.1098 18.8081 15.9572C18.96 15.7894 19.0967 15.6064 19.2638 15.4385C19.3549 15.347 19.4612 15.2707 19.5524 15.1792C19.6739 15.0572 19.8106 14.9504 19.9321 14.8283C20.0384 14.7368 20.1447 14.63 20.2511 14.5232C20.5245 14.3096 20.7979 14.0961 21.0865 13.8977L26.6306 10.0381C26.2204 10.3279 25.8407 10.6331 25.4762 10.9687C25.3395 11.0907 25.218 11.1975 25.0964 11.3196C24.8382 11.5636 24.5952 11.823 24.3522 12.0976C24.2155 12.2501 24.0788 12.4027 23.9421 12.5552C23.775 12.7688 23.6231 12.9977 23.456 13.2265C23.2585 13.5011 23.0763 13.7757 22.894 14.0655C22.7421 14.3096 22.6206 14.5842 22.4839 14.8436C22.3472 15.1029 22.2105 15.3775 22.089 15.6521C21.9675 15.9267 21.8763 16.2166 21.77 16.4912C21.6637 16.781 21.5573 17.0556 21.4814 17.3607C21.3903 17.6811 21.3143 18.0167 21.2536 18.3524C21.208 18.5964 21.1472 18.8558 21.1017 19.0999C21.0409 19.4965 21.0105 19.8932 20.9801 20.2898C20.9801 20.4881 20.9346 20.6864 20.9346 20.8848C20.9194 21.495 20.9346 22.1205 20.9953 22.7459C20.9953 22.8985 21.0409 23.0358 21.0561 23.1884C21.1169 23.6613 21.1928 24.1342 21.2991 24.5919C21.3447 24.8054 21.3903 25.0038 21.451 25.2173C21.527 25.4919 21.6029 25.7818 21.694 26.0564C21.77 26.2852 21.8459 26.4988 21.9219 26.7276C21.9978 26.9412 22.089 27.17 22.1801 27.3836C22.2712 27.6125 22.3776 27.8413 22.4991 28.0701C22.5902 28.2684 22.6813 28.4515 22.7877 28.6498C22.9092 28.8787 23.0307 29.0922 23.1674 29.3211C23.2737 29.5041 23.3801 29.6872 23.5016 29.855C23.6383 30.0686 23.7902 30.2669 23.9269 30.4805C24.0484 30.6636 24.1851 30.8314 24.3218 31.0144C24.4737 31.1975 24.6256 31.3806 24.7775 31.5484C24.9445 31.7467 25.1116 31.9298 25.2787 32.1128C25.4154 32.2654 25.5673 32.4027 25.7192 32.5553C25.947 32.7688 26.1749 32.9977 26.4027 33.196C26.5394 33.318 26.6913 33.4401 26.828 33.5469C27.2229 33.8672 27.633 34.1723 28.0432 34.4469C28.1343 34.508 28.2102 34.569 28.3014 34.63C28.3773 34.6758 28.4685 34.7215 28.5444 34.7826C28.833 34.9504 29.1216 35.1182 29.4102 35.2707C29.5317 35.3318 29.6532 35.3928 29.7747 35.4538C30.0633 35.5911 30.3367 35.7131 30.6405 35.8352C30.7468 35.881 30.8532 35.9267 30.9747 35.9725C31.3696 36.125 31.7797 36.2623 32.1898 36.3844C32.2506 36.3996 32.3113 36.4149 32.3721 36.4302C32.7214 36.5217 33.0708 36.6132 33.4353 36.6742C33.572 36.7048 33.7088 36.72 33.8303 36.7353C34.134 36.781 34.453 36.8268 34.7568 36.8573C34.8935 36.8573 35.015 36.8878 35.1517 36.8878C35.5922 36.9183 36.0175 36.9336 36.458 36.9183C39.1313 36.8421 41.5464 36.003 43.5514 34.6147L38.0073 38.4744C36.0023 39.8626 33.5872 40.7017 30.9139 40.778C30.4734 40.778 30.0329 40.778 29.6076 40.7475C29.4709 40.7475 29.3494 40.717 29.2127 40.717C28.8938 40.6864 28.59 40.6559 28.2862 40.5949C28.1495 40.5797 28.0128 40.5491 27.8913 40.5339C27.5267 40.4576 27.1774 40.3813 26.828 40.2898C26.7673 40.2745 26.7065 40.2593 26.6457 40.244C26.2356 40.122 25.8407 39.9847 25.4306 39.8321C25.3243 39.7864 25.218 39.7406 25.0964 39.6948C24.8078 39.5728 24.5192 39.4507 24.2307 39.3134C24.1091 39.2524 23.9876 39.1914 23.8661 39.1304C23.5775 38.9778 23.2737 38.81 23.0003 38.6422C22.9244 38.5964 22.8332 38.5507 22.7573 38.4897C22.7269 38.4744 22.7117 38.4591 22.6813 38.4439C22.6206 38.3981 22.5598 38.3523 22.4991 38.3066C22.0738 38.032 21.6789 37.7269 21.2839 37.4065C21.2232 37.3455 21.1472 37.315 21.0713 37.254C20.9953 37.1929 20.9194 37.1167 20.8434 37.0556C20.6004 36.8421 20.3726 36.6285 20.1599 36.4149C20.0688 36.3234 19.9625 36.2471 19.8713 36.1556C19.8106 36.0945 19.765 36.0335 19.7194 35.9725C19.5524 35.7894 19.3853 35.6064 19.2182 35.408C19.1119 35.286 19.0055 35.1792 18.8992 35.0572C18.8537 34.9961 18.8081 34.9351 18.7625 34.8741C18.6258 34.7063 18.5043 34.5232 18.3828 34.3554C18.2916 34.2181 18.1853 34.0961 18.0942 33.9588C18.0486 33.8825 18.0031 33.8062 17.9575 33.7299C17.8512 33.5621 17.7296 33.379 17.6233 33.196C17.5474 33.0587 17.4562 32.9366 17.3803 32.8146C17.3347 32.7231 17.2892 32.6163 17.2436 32.5247C17.1373 32.3417 17.0461 32.1434 16.955 31.945C16.8942 31.823 16.8335 31.7009 16.7727 31.5789C16.7272 31.4721 16.6816 31.3653 16.636 31.2433C16.5449 31.0297 16.4537 30.8161 16.3778 30.5873C16.3322 30.4652 16.2867 30.3585 16.2411 30.2364C16.2107 30.1296 16.1803 30.0228 16.15 29.916C16.0588 29.6414 15.9829 29.3668 15.9069 29.077C15.8766 28.9549 15.831 28.8329 15.8006 28.6956C15.7854 28.6193 15.7702 28.5278 15.755 28.4515C15.6487 27.9938 15.5728 27.5209 15.512 27.048C15.512 26.9565 15.4816 26.8649 15.4664 26.7734C15.4664 26.7124 15.4664 26.6666 15.4513 26.6056C15.3905 25.9801 15.3753 25.3546 15.3905 24.7444V24.7292Z" fill="#269B56"/>
<path d="M33.8149 42.7767C17.365 43.2496 5.15279 55.5761 6.53501 70.2977L66.1073 68.5738C64.7251 53.8522 50.2649 42.3038 33.8149 42.7767Z" fill="url(#paint1_linear_1_3985)"/>
<path d="M0.900286 72.0669C0.900286 71.716 0.900286 71.3499 0.900286 70.999C0.900286 70.8007 0.915476 70.6024 0.930665 70.404C0.945855 70.0837 0.976232 69.7633 1.00661 69.4429C1.0218 69.2446 1.05218 69.031 1.08256 68.8327C1.09774 68.6802 1.11294 68.5429 1.12813 68.3903C1.12813 68.314 1.1585 68.2378 1.17369 68.1615C1.3104 67.3529 1.46229 66.5596 1.67494 65.7664C1.67494 65.7206 1.67494 65.6901 1.70532 65.6443C1.76607 65.4155 1.84202 65.1866 1.91797 64.9578C1.97873 64.7595 2.03948 64.5459 2.11543 64.3476C2.22175 64.0425 2.32808 63.7526 2.44959 63.4475C2.52554 63.2644 2.58629 63.0814 2.66224 62.8983C2.79894 62.5474 2.96602 62.2118 3.11792 61.8762C3.17867 61.7542 3.23944 61.6169 3.30019 61.4948C3.52803 61.0371 3.75587 60.5947 4.01408 60.1523C4.01408 60.1523 4.01408 60.1523 4.01408 60.1371C4.28749 59.6641 4.57609 59.1912 4.87987 58.7336C4.97101 58.5963 5.06214 58.4742 5.15328 58.3369C5.38112 58.0165 5.60896 57.6962 5.8368 57.3911C5.85199 57.3606 5.86718 57.3453 5.89755 57.3148C5.92793 57.269 5.9735 57.2385 6.00388 57.1928C6.56588 56.4757 7.15826 55.7892 7.8114 55.1333C7.8114 55.1333 7.84178 55.1027 7.85697 55.0875C7.85697 55.0875 7.85697 55.0875 7.87216 55.0875C8.44935 54.5078 9.05692 53.9586 9.69487 53.4246C9.77082 53.3636 9.81639 53.3026 9.89233 53.2416C9.95309 53.1958 10.0138 53.15 10.0746 53.1043C10.591 52.6924 11.1075 52.2805 11.6543 51.9143L17.1984 48.0547C16.6516 48.4361 16.1351 48.8327 15.6187 49.2446C15.4972 49.3514 15.3757 49.4582 15.2389 49.565C14.601 50.0989 13.9934 50.6481 13.4162 51.2278C13.4011 51.2431 13.3859 51.2736 13.3555 51.2889C12.7175 51.9448 12.11 52.6313 11.548 53.3484C11.5024 53.4094 11.4416 53.4704 11.3961 53.5467C11.153 53.867 10.9252 54.1874 10.6974 54.5078C10.6062 54.6298 10.5151 54.7519 10.424 54.8892C10.1202 55.3468 9.83157 55.8198 9.55817 56.2927C9.29995 56.7351 9.05692 57.1927 8.82908 57.6504C8.76833 57.7725 8.70757 57.9098 8.662 58.0318C8.49492 58.3674 8.34303 58.703 8.20632 59.0539C8.13038 59.237 8.06962 59.4201 7.99367 59.6031C7.87216 59.9082 7.76583 60.1981 7.65951 60.5032C7.58356 60.7015 7.53799 60.9151 7.46205 61.1134C7.3861 61.3728 7.29497 61.6474 7.21902 61.922C7.00637 62.7 6.83929 63.5085 6.71778 64.3171C6.6874 64.5459 6.64183 64.7595 6.61145 64.9883C6.58107 65.1866 6.56588 65.4002 6.5355 65.5985C6.50512 65.9189 6.47475 66.2393 6.45956 66.5444C6.45956 66.7427 6.42918 66.941 6.42918 67.1394C6.42918 67.4902 6.42918 67.8411 6.42918 68.192C6.42918 68.3598 6.42918 68.5276 6.42918 68.6954C6.42918 69.2141 6.47475 69.748 6.52031 70.282L0.976231 74.1416C0.930664 73.6077 0.900289 73.0738 0.885099 72.5551C0.885099 72.3873 0.885099 72.2194 0.885099 72.0516L0.900286 72.0669Z" fill="#269B56"/>
<path d="M6.53537 70.2971L0.991289 74.1568L60.5636 72.4176L66.1077 68.5732L6.53537 70.2971Z" fill="#1C653A"/>
<path d="M68.0694 3.55646C58.1596 3.84749 50.935 12.3842 51.9008 22.6476C52.8667 32.911 61.656 40.9626 71.5658 40.6716C81.4755 40.3806 88.7002 31.8439 87.7536 21.5999C86.8071 11.3559 77.9791 3.28484 68.0694 3.55646Z" fill="url(#paint2_linear_1_3985)"/>
<path d="M44.7926 25.1885C44.7926 24.9363 44.8313 24.6841 44.8506 24.4319C44.8892 24.0051 44.8892 23.5782 44.9472 23.1708C44.9472 23.0738 44.9858 22.9962 45.0051 22.8992C45.0631 22.5693 45.121 22.2589 45.1983 21.9485C45.2563 21.6381 45.3142 21.3082 45.3915 21.0172C45.4108 20.9008 45.4687 20.8038 45.4881 20.7068C45.604 20.3382 45.7199 19.9695 45.8551 19.6009C45.9903 19.2323 46.1062 18.8831 46.2607 18.5338C46.4153 18.1846 46.5891 17.8548 46.763 17.5055C46.8789 17.2727 46.9948 17.0011 47.1107 16.7683C47.1687 16.6713 47.2266 16.5937 47.2846 16.5161C47.4971 16.1474 47.7482 15.7982 47.9993 15.4684C48.1538 15.255 48.2697 15.0222 48.4243 14.8281C48.4822 14.7505 48.5595 14.6923 48.6175 14.6147C48.772 14.4207 48.9652 14.2267 49.139 14.0327C49.3322 13.8193 49.506 13.5864 49.7185 13.373C49.8344 13.2566 49.9697 13.1596 50.0856 13.0432C50.2401 12.888 50.414 12.7522 50.5685 12.597C50.7037 12.4806 50.8389 12.3447 50.9742 12.2089C51.3219 11.9373 51.6696 11.6657 52.0366 11.4135L59.0874 6.50488C58.5658 6.87351 58.0829 7.26154 57.6193 7.68838C57.4454 7.84359 57.2909 7.9794 57.1364 8.13461C56.808 8.44503 56.4989 8.77486 56.1898 9.12409C56.016 9.3181 55.8421 9.51212 55.6682 9.70613C55.4558 9.97776 55.2626 10.2688 55.0501 10.5598C54.799 10.909 54.5672 11.2583 54.3354 11.6269C54.1422 11.9373 53.9877 12.2865 53.8138 12.6164C53.6399 12.9462 53.4661 13.2954 53.3115 13.6446C53.157 13.9939 53.0411 14.3625 52.9059 14.7117C52.7707 15.0804 52.6354 15.4296 52.5389 15.8176C52.423 16.225 52.3264 16.6519 52.2491 17.0787C52.1911 17.3891 52.1139 17.719 52.0559 18.0294C51.9787 18.5338 51.94 19.0383 51.9014 19.5427C51.9014 19.7949 51.8434 20.0471 51.8434 20.2994C51.8241 21.0754 51.8434 21.8709 51.9207 22.6663C51.9207 22.8604 51.9787 23.035 51.998 23.229C52.0752 23.8304 52.1718 24.4319 52.307 25.0139C52.365 25.2856 52.423 25.5378 52.5002 25.8094C52.5968 26.1586 52.6934 26.5273 52.8093 26.8765C52.9059 27.1675 53.0025 27.4391 53.0991 27.7301C53.1956 28.0018 53.3115 28.2928 53.4274 28.5644C53.5434 28.8554 53.6786 29.1465 53.8331 29.4375C53.949 29.6897 54.0649 29.9225 54.2001 30.1747C54.3547 30.4658 54.5092 30.7374 54.6831 31.0284C54.8183 31.2612 54.9535 31.494 55.1081 31.7075C55.2819 31.9791 55.4751 32.2313 55.6489 32.5029C55.8035 32.7357 55.9773 32.9492 56.1512 33.182C56.3444 33.4148 56.5375 33.6476 56.7307 33.861C56.9432 34.1132 57.1557 34.3461 57.3682 34.5789C57.542 34.7729 57.7352 34.9475 57.9284 35.1415C58.2181 35.4131 58.5079 35.7042 58.7976 35.9564C58.9715 36.1116 59.1647 36.2668 59.3385 36.4026C59.8408 36.8101 60.3623 37.1981 60.8839 37.5473C60.9998 37.6249 61.0964 37.7025 61.2123 37.7801C61.3089 37.8383 61.4248 37.8965 61.5214 37.9741C61.8884 38.1876 62.2554 38.401 62.6225 38.595C62.777 38.6726 62.9315 38.7502 63.0861 38.8278C63.4531 39.0024 63.8008 39.1576 64.1872 39.3129C64.3224 39.3711 64.4576 39.4293 64.6121 39.4875C65.1144 39.6815 65.6359 39.8561 66.1575 40.0113C66.2348 40.0307 66.3121 40.0501 66.3893 40.0695C66.8336 40.1859 67.2779 40.3023 67.7415 40.3799C67.9154 40.4187 68.0892 40.4381 68.2438 40.4575C68.6301 40.5157 69.0358 40.574 69.4221 40.6128C69.596 40.6128 69.7505 40.6516 69.9244 40.6516C70.4846 40.6904 71.0255 40.7098 71.5857 40.6904C74.9855 40.5934 78.0569 39.5263 80.6068 37.7607L73.556 42.6693C71.0061 44.4349 67.9347 45.5019 64.5349 45.5989C63.9747 45.5989 63.4145 45.5989 62.8736 45.5601C62.6997 45.5601 62.5452 45.5213 62.3713 45.5213C61.9657 45.4825 61.5793 45.4437 61.193 45.3661C61.0191 45.3467 60.8453 45.3079 60.6907 45.2885C60.2271 45.1915 59.7828 45.0945 59.3385 44.9781C59.2613 44.9587 59.184 44.9393 59.1067 44.9199C58.5852 44.7647 58.0829 44.5901 57.5613 44.396C57.4261 44.3378 57.2909 44.2796 57.1364 44.2214C56.7693 44.0662 56.4023 43.911 56.0353 43.7364C55.8807 43.6588 55.7262 43.5812 55.5717 43.5036C55.2046 43.3096 54.8183 43.0962 54.4706 42.8827C54.374 42.8245 54.2581 42.7663 54.1615 42.6887C54.1229 42.6693 54.1036 42.6499 54.0649 42.6305C53.9876 42.5723 53.9104 42.5141 53.8331 42.4559C53.2922 42.1067 52.79 41.7186 52.2877 41.3112C52.2105 41.2336 52.1139 41.1948 52.0173 41.1172C51.9207 41.0396 51.8241 40.9426 51.7275 40.865C51.4185 40.5934 51.1287 40.3217 50.8583 40.0501C50.7424 39.9337 50.6071 39.8367 50.4912 39.7203C50.414 39.6427 50.356 39.5651 50.2981 39.4875C50.0856 39.2546 49.8731 39.0218 49.6606 38.7696C49.5254 38.6144 49.3901 38.4786 49.2549 38.3234C49.197 38.2458 49.139 38.1682 49.0811 38.0906C48.9072 37.8771 48.7527 37.6443 48.5981 37.4309C48.4822 37.2563 48.347 37.1011 48.2311 36.9265C48.1732 36.8295 48.1152 36.7324 48.0573 36.6354C47.922 36.422 47.7675 36.1892 47.6323 35.9564C47.5357 35.7818 47.4198 35.6266 47.3232 35.4714C47.2652 35.3549 47.2073 35.2191 47.1493 35.1027C47.0141 34.8699 46.8982 34.6177 46.7823 34.3655C46.705 34.2103 46.6278 34.055 46.5505 33.8998C46.4926 33.764 46.4346 33.6282 46.3767 33.473C46.2608 33.2014 46.1448 32.9298 46.0483 32.6387C45.9903 32.4835 45.9324 32.3477 45.8744 32.1925C45.8358 32.0567 45.7971 31.9209 45.7585 31.7851C45.6426 31.4358 45.546 31.0866 45.4494 30.718C45.4108 30.5628 45.3528 30.4076 45.3142 30.2329C45.2949 30.1359 45.2756 30.0195 45.2563 29.9225C45.121 29.3405 45.0244 28.739 44.9472 28.1376C44.9472 28.0212 44.9085 27.9048 44.8892 27.7883C44.8892 27.7107 44.8892 27.6525 44.8699 27.5749C44.7926 26.7795 44.7733 25.984 44.7926 25.2079V25.1885Z" fill="#269B56"/>
<path d="M68.2244 48.1419C47.3038 48.7433 31.7728 64.4197 33.5306 83.1422L109.293 80.9498C107.535 62.2274 89.145 47.5404 68.2244 48.1419Z" fill="url(#paint3_linear_1_3985)"/>
<path d="M26.3646 85.3915C26.3646 84.9453 26.3646 84.4796 26.3646 84.0334C26.3646 83.7812 26.3839 83.529 26.4032 83.2767C26.4225 82.8693 26.4612 82.4619 26.4998 82.0544C26.5191 81.8022 26.5578 81.5306 26.5964 81.2784C26.6157 81.0844 26.635 80.9098 26.6543 80.7157C26.6543 80.6187 26.693 80.5217 26.7123 80.4247C26.8861 79.3964 27.0793 78.3876 27.3498 77.3787C27.3498 77.3205 27.3498 77.2817 27.3884 77.2235C27.4657 76.9324 27.5623 76.6414 27.6588 76.3504C27.7361 76.0982 27.8134 75.8266 27.91 75.5743C28.0452 75.1863 28.1804 74.8177 28.3349 74.4296C28.4315 74.1968 28.5088 73.964 28.6054 73.7312C28.7792 73.285 28.9917 72.8581 29.1849 72.4313C29.2622 72.2761 29.3394 72.1015 29.4167 71.9463C29.7065 71.3642 29.9962 70.8016 30.3246 70.2389C30.3246 70.2389 30.3246 70.2389 30.3246 70.2195C30.6723 69.6181 31.0394 69.0166 31.4257 68.4346C31.5416 68.26 31.6575 68.1048 31.7734 67.9301C32.0632 67.5227 32.3529 67.1153 32.6427 66.7272C32.662 66.6884 32.6813 66.669 32.72 66.6302C32.7586 66.572 32.8165 66.5332 32.8552 66.475C33.5699 65.5632 34.3233 64.6901 35.1539 63.8558C35.1539 63.8558 35.1926 63.817 35.2119 63.7976C35.2119 63.7976 35.2119 63.7976 35.2312 63.7976C35.9652 63.0604 36.7379 62.3619 37.5493 61.6828C37.6459 61.6052 37.7038 61.5276 37.8004 61.45C37.8777 61.3918 37.9549 61.3336 38.0322 61.2754C38.689 60.7516 39.3458 60.2277 40.0412 59.7621L47.092 54.8535C46.3966 55.3386 45.7398 55.843 45.083 56.3668C44.9284 56.5026 44.7739 56.6385 44.6001 56.7743C43.7887 57.4533 43.016 58.1518 42.282 58.889C42.2627 58.9084 42.2434 58.9472 42.2047 58.9666C41.3934 59.8009 40.6207 60.674 39.906 61.5858C39.848 61.6634 39.7707 61.7411 39.7128 61.8381C39.4037 62.2455 39.114 62.6529 38.8242 63.0604C38.7083 63.2156 38.5924 63.3708 38.4765 63.5454C38.0901 64.1274 37.7231 64.7289 37.3754 65.3303C37.047 65.893 36.7379 66.475 36.4482 67.0571C36.3709 67.2123 36.2936 67.3869 36.2357 67.5421C36.0232 67.9689 35.83 68.3958 35.6562 68.842C35.5596 69.0748 35.4823 69.3076 35.3857 69.5405C35.2312 69.9285 35.096 70.2971 34.9608 70.6852C34.8642 70.9374 34.8062 71.209 34.7096 71.4612C34.613 71.791 34.4971 72.1403 34.4006 72.4895C34.1301 73.479 33.9176 74.5072 33.7631 75.5355C33.7245 75.8266 33.6665 76.0982 33.6279 76.3892C33.5892 76.6414 33.5699 76.913 33.5313 77.1653C33.4926 77.5727 33.454 77.9801 33.4347 78.3682C33.4347 78.6204 33.3961 78.8726 33.3961 79.1248C33.3961 79.5711 33.3961 80.0173 33.3961 80.4635C33.3961 80.6769 33.3961 80.8904 33.3961 81.1038C33.3961 81.7634 33.454 82.4425 33.512 83.1215L26.4612 88.0301C26.4032 87.3511 26.3646 86.672 26.3453 86.0124C26.3453 85.7989 26.3453 85.5855 26.3453 85.3721L26.3646 85.3915Z" fill="#269B56"/>
<path d="M33.531 83.1416L26.4802 88.0502L102.242 85.8384L109.293 80.9492L33.531 83.1416Z" fill="#1C653A"/>
<path d="M21.9721 31.586C21.9721 31.586 21.3705 33.9261 21.376 34.4903C21.3815 35.0544 21.0114 36.1119 22.5346 36.7304C22.5346 36.7304 24.3047 37.3731 24.7902 37.4276C24.7902 37.4276 22.9282 36.9737 22.4162 36.9742C21.9042 36.9746 20.8876 36.844 20.2112 38.9454L19.5676 41.2537C19.5676 41.2537 20.1374 38.8083 20.1695 38.3113C20.2017 37.8144 20.4835 36.6312 18.876 36.0498L16.8729 35.4362C16.8729 35.4362 18.4932 35.889 19.4716 35.8699C20.45 35.8507 21.1661 34.7349 21.9721 31.586Z" fill="#33B568" stroke="#33B568" stroke-width="0.49391" stroke-miterlimit="10"/>
<circle cx="39.2281" cy="1.44985" r="1.12172" fill="white"/>
<circle cx="26.3314" cy="58.1227" r="1.12172" fill="#33B568"/>
<circle cx="33.8712" cy="95.445" r="1.12172" fill="white"/>
<circle cx="108.877" cy="73.2327" r="0.623337" fill="white"/>
<circle cx="79.2317" cy="2.15055" r="1.81266" fill="#33B568"/>
<path d="M92.3555 9.82144C92.3555 9.82144 91.0367 14.9519 91.0486 16.1888C91.0606 17.4256 90.2493 19.7439 93.5887 21.1C93.5887 21.1 97.4695 22.5091 98.5339 22.6284C98.5339 22.6284 94.4516 21.6335 93.3291 21.6344C92.2066 21.6354 89.9778 21.3491 88.4949 25.9563L87.0839 31.0169C87.0839 31.0169 88.3331 25.6555 88.4035 24.5661C88.474 23.4766 89.0918 20.8825 85.5676 19.6078L81.1759 18.2625C81.1759 18.2625 84.7283 19.2553 86.8734 19.2133C89.0185 19.1714 90.5884 16.7251 92.3555 9.82144Z" fill="white" stroke="white" stroke-width="0.49391" stroke-miterlimit="10"/>
<defs>
<linearGradient id="paint0_linear_1_3985" x1="34.9526" y1="8.50818" x2="34.9526" y2="36.9086" gradientUnits="userSpaceOnUse">
<stop offset="0.4375" stop-color="#D4F938"/>
<stop offset="1" stop-color="#32D875" stop-opacity="0.96"/>
</linearGradient>
<linearGradient id="paint1_linear_1_3985" x1="36.0121" y1="43.5118" x2="36.0121" y2="70.2974" gradientUnits="userSpaceOnUse">
<stop offset="0.4375" stop-color="#D4F938"/>
<stop offset="1" stop-color="#32D875" stop-opacity="0.96"/>
</linearGradient>
<linearGradient id="paint2_linear_1_3985" x1="69.6712" y1="4.55999" x2="69.6712" y2="40.6788" gradientUnits="userSpaceOnUse">
<stop offset="0.4375" stop-color="#D4F938"/>
<stop offset="1" stop-color="#32D875" stop-opacity="0.96"/>
</linearGradient>
<linearGradient id="paint3_linear_1_3985" x1="71.0187" y1="49.0768" x2="71.0187" y2="83.1418" gradientUnits="userSpaceOnUse">
<stop offset="0.4375" stop-color="#D4F938"/>
<stop offset="1" stop-color="#32D875" stop-opacity="0.96"/>
</linearGradient>
</defs>
</svg>
