<svg width="108" height="101" viewBox="0 0 108 101" fill="none" xmlns="http://www.w3.org/2000/svg">
<path d="M106.539 62.7432C106.669 62.2356 106.791 61.728 106.901 61.2165C106.917 61.1541 106.929 61.0877 106.941 61.0252C107.039 60.5684 107.13 60.1076 107.216 59.643C107.24 59.5063 107.267 59.3658 107.291 59.2291C107.381 58.7059 107.468 58.1827 107.543 57.6517C108.818 48.6086 107.393 39.9327 103.871 32.3656L101.596 27.481C102.418 29.2497 103.123 31.0849 103.713 32.963C103.646 32.8185 103.587 32.6741 103.52 32.5296L101.246 27.641C101.332 27.8285 101.411 28.0198 101.497 28.2072C101.627 28.4922 101.757 28.7773 101.879 29.0662C101.942 29.2146 101.997 29.3669 102.06 29.5152C102.194 29.8471 102.332 30.1751 102.462 30.5109C102.505 30.6281 102.548 30.7491 102.592 30.8662C102.729 31.2372 102.867 31.6042 102.993 31.979C103.084 32.2445 103.166 32.5101 103.249 32.7756C103.324 33.0059 103.402 33.2363 103.473 33.4667C103.552 33.7205 103.619 33.9782 103.69 34.2359C103.761 34.4858 103.835 34.7318 103.898 34.9817C103.961 35.212 104.012 35.4502 104.068 35.6806C104.134 35.9578 104.209 36.235 104.272 36.5123C104.339 36.809 104.398 37.1136 104.457 37.4142C104.5 37.6329 104.552 37.8476 104.591 38.0663C104.67 38.4919 104.741 38.9214 104.807 39.3509C104.823 39.4485 104.843 39.5422 104.855 39.6359C104.906 39.9678 104.945 40.3036 104.985 40.6355C105.008 40.8307 105.04 41.0259 105.063 41.2251C105.103 41.5648 105.13 41.9084 105.162 42.252C105.177 42.4433 105.201 42.6346 105.217 42.8299C105.248 43.2672 105.272 43.7045 105.292 44.1418C105.296 44.2433 105.303 44.3448 105.311 44.4464C105.323 44.7783 105.327 45.114 105.335 45.4498C105.335 45.6607 105.347 45.8676 105.351 46.0785C105.351 46.301 105.343 46.5236 105.343 46.7462C105.343 47.0702 105.343 47.3943 105.331 47.7223C105.323 48.0112 105.303 48.3041 105.288 48.5969C105.276 48.8585 105.268 49.1201 105.248 49.3818C105.229 49.6941 105.193 50.0065 105.166 50.3228C105.095 51.1232 105.008 51.9236 104.898 52.7319C104.823 53.259 104.737 53.7822 104.646 54.3054C104.622 54.4421 104.599 54.5788 104.571 54.7154C104.485 55.184 104.394 55.6525 104.292 56.1133C104.28 56.1679 104.268 56.2226 104.256 56.2811C104.142 56.7926 104.02 57.2963 103.894 57.8039C103.863 57.9328 103.827 58.0616 103.792 58.1905C103.678 58.6239 103.56 59.0534 103.434 59.479C103.406 59.5688 103.383 59.6625 103.355 59.7523C103.312 59.8968 103.265 60.0374 103.221 60.1779C103.151 60.4044 103.08 60.6269 103.009 60.8534C102.958 61.0057 102.906 61.158 102.855 61.3102C102.784 61.5211 102.71 61.7319 102.639 61.9428C102.584 62.099 102.525 62.2552 102.47 62.4113C102.395 62.6144 102.32 62.8213 102.241 63.0244C102.182 63.1805 102.119 63.3367 102.06 63.4929C101.982 63.6959 101.899 63.8951 101.82 64.0942C101.757 64.2504 101.694 64.4027 101.627 64.555C101.545 64.7541 101.458 64.9532 101.372 65.1524C101.305 65.3046 101.238 65.4569 101.171 65.6053C101.08 65.8044 100.99 66.0036 100.895 66.2027C100.828 66.3472 100.758 66.4955 100.691 66.64C100.592 66.843 100.494 67.0461 100.392 67.2491C100.325 67.3858 100.254 67.5263 100.187 67.663C100.14 67.7567 100.088 67.8504 100.041 67.948C99.8208 68.3775 99.5925 68.8031 99.3603 69.2248C99.3092 69.3146 99.2619 69.4044 99.2108 69.4943C98.9471 69.9628 98.6755 70.4235 98.4 70.8843C98.3409 70.9819 98.278 71.0834 98.2189 71.181C97.9592 71.6027 97.6955 72.0166 97.4239 72.4305C97.3885 72.4852 97.3491 72.5437 97.3137 72.6023C97.0146 73.0513 96.7076 73.4964 96.3967 73.9338C96.3219 74.0392 96.2471 74.1407 96.1723 74.2461C95.8811 74.6483 95.5859 75.0466 95.2828 75.4409C95.2631 75.4683 95.2435 75.4956 95.2238 75.5229C94.905 75.9368 94.5744 76.3468 94.2398 76.7529C94.1572 76.8544 94.0745 76.952 93.9919 77.0535C93.6652 77.444 93.3346 77.8305 93.0001 78.2093C92.9843 78.2249 92.9725 78.2405 92.9607 78.2561C92.6104 78.6505 92.2523 79.0331 91.8941 79.4158C91.8075 79.5095 91.7209 79.5993 91.6304 79.693C91.2486 80.0913 90.8629 80.4817 90.4693 80.8644C90.4339 80.8956 90.4024 80.9308 90.367 80.962C89.997 81.3212 89.6153 81.6765 89.2335 82.028C89.1469 82.106 89.0603 82.1841 88.9737 82.2622C88.5723 82.6254 88.163 82.9846 87.7497 83.336C87.671 83.4024 87.5923 83.4688 87.5135 83.5312C87.1318 83.8514 86.7461 84.1638 86.3564 84.4722C86.258 84.5503 86.1596 84.6323 86.0612 84.7065C85.5338 85.1165 84.9986 85.5148 84.4554 85.9052C84.3964 85.9482 84.3374 85.9911 84.2783 86.0341C83.7627 86.4011 83.2353 86.7603 82.704 87.1117C82.6174 87.1664 82.5348 87.225 82.4482 87.2796C81.9247 87.6193 81.3973 87.9512 80.862 88.2714C80.7676 88.326 80.6771 88.3807 80.5826 88.4393C80.0434 88.7595 79.4963 89.0718 78.9453 89.3725C78.8508 89.4232 78.7564 89.474 78.6619 89.5248C78.2447 89.7512 77.8236 89.9699 77.3985 90.1846C77.3159 90.2237 77.2372 90.2666 77.1545 90.3096C76.6743 90.5478 76.1902 90.7781 75.7022 91.0007C75.592 91.0514 75.4779 91.1022 75.3637 91.153C74.9111 91.356 74.4506 91.559 73.9901 91.7504C73.939 91.7738 73.8878 91.7933 73.8327 91.8167C73.3328 92.0237 72.8291 92.2189 72.3213 92.4102C72.2033 92.4571 72.0813 92.5 71.9592 92.543C71.4437 92.7343 70.9281 92.9178 70.4085 93.0896C70.4046 93.0896 70.4007 93.0896 70.3928 93.0935C69.8772 93.2653 69.3537 93.4254 68.8303 93.5816C68.7083 93.6168 68.5823 93.6558 68.4603 93.6909C67.9369 93.8432 67.4134 93.9877 66.886 94.1243C66.827 94.14 66.7679 94.1517 66.705 94.1673C66.2209 94.2883 65.7328 94.4055 65.2408 94.5109C65.1188 94.5382 64.9968 94.5656 64.8748 94.5929C64.3435 94.7061 63.8082 94.8116 63.2729 94.9092C63.1785 94.9248 63.084 94.9404 62.9935 94.956C62.5173 95.038 62.0371 95.1161 61.5569 95.1864C61.4428 95.202 61.3326 95.2215 61.2184 95.2372C60.6792 95.3113 60.1361 95.3777 59.589 95.4363C59.4749 95.448 59.3607 95.4597 59.2466 95.4714C58.7586 95.5183 58.2705 95.5612 57.7825 95.5964C57.688 95.6042 57.5936 95.612 57.4991 95.6159C56.9481 95.651 56.3971 95.6784 55.8421 95.694C55.7162 95.6979 55.5863 95.7018 55.4604 95.7057C54.9448 95.7174 54.4331 95.7252 53.9136 95.7213C53.8506 95.7213 53.7916 95.7213 53.7286 95.7213C53.1658 95.7174 52.603 95.6979 52.0401 95.6745C51.9063 95.6706 51.7725 95.6628 51.6387 95.655C51.068 95.6276 50.4934 95.5925 49.9188 95.5417C49.5252 95.5066 49.1355 95.4714 48.7419 95.4285C48.616 95.4129 48.4901 95.3972 48.3641 95.3855C48.1004 95.3543 47.8367 95.3231 47.5769 95.2879C47.4274 95.2684 47.2818 95.245 47.1322 95.2254C46.8961 95.1903 46.656 95.1591 46.4198 95.12C46.2663 95.0966 46.1089 95.0693 45.9554 95.0458C45.7232 95.0068 45.4949 94.9677 45.2666 94.9248C45.1131 94.8975 44.9596 94.8701 44.8101 94.8389C44.5739 94.7959 44.3417 94.7491 44.1095 94.6983C43.9678 94.6671 43.8222 94.6398 43.6805 94.6085C43.4286 94.5539 43.1728 94.4953 42.9209 94.4367C42.8028 94.4094 42.6808 94.3821 42.5627 94.3547C42.1928 94.2649 41.8267 94.1751 41.4607 94.0775C41.4528 94.0775 41.445 94.0736 41.4371 94.0697C41.0789 93.976 40.7247 93.8745 40.3705 93.7729C40.2524 93.7378 40.1343 93.7027 40.0123 93.6675C39.7722 93.5972 39.5322 93.523 39.2921 93.4489C39.1543 93.4059 39.0166 93.3591 38.8788 93.3161C38.6584 93.2458 38.4419 93.1716 38.2255 93.0974C38.0838 93.0506 37.9421 92.9998 37.8004 92.9491C37.5879 92.8749 37.3753 92.7968 37.1667 92.7187C37.0251 92.6679 36.8873 92.6172 36.7495 92.5625C36.5331 92.4805 36.3205 92.3985 36.108 92.3126C35.9781 92.2619 35.8443 92.2111 35.7144 92.1564C35.4822 92.0627 35.25 91.9651 35.0178 91.8636C34.9115 91.8167 34.8053 91.7738 34.699 91.7269C34.3605 91.5786 34.026 91.4302 33.6954 91.2779C33.6836 91.274 33.6718 91.2662 33.6599 91.2623C33.3411 91.1139 33.0223 90.9616 32.7114 90.8094C32.6012 90.7547 32.4949 90.7 32.3887 90.6454C32.1722 90.536 31.9557 90.4267 31.7393 90.3135C31.6133 90.2471 31.4913 90.1807 31.3654 90.1143C31.1686 90.0089 30.9718 89.9035 30.775 89.7942C30.6491 89.7239 30.5192 89.6536 30.3932 89.5794C30.2004 89.4701 30.0115 89.3608 29.8225 89.2514C29.6966 89.1772 29.5746 89.107 29.4486 89.0328C29.2558 88.9195 29.0629 88.8024 28.874 88.6853C28.7559 88.615 28.6379 88.5408 28.5237 88.4666C28.3151 88.3339 28.1105 88.2011 27.9019 88.0683C27.8074 88.0059 27.7129 87.9473 27.6185 87.8848C27.3194 87.6857 27.0242 87.4866 26.729 87.2796C26.7133 87.2679 26.6975 87.2562 26.6818 87.2445C26.4063 87.0492 26.1307 86.854 25.8592 86.6549C25.7647 86.5846 25.6703 86.5143 25.5797 86.444C25.3869 86.2996 25.194 86.1551 25.0051 86.0106C24.8949 85.9286 24.7886 85.8427 24.6824 85.7568C24.5092 85.6202 24.336 85.4835 24.1668 85.3469C24.0566 85.257 23.9464 85.1672 23.8362 85.0735C23.6709 84.9369 23.5056 84.7963 23.3403 84.6596C23.2301 84.5659 23.1238 84.4761 23.0175 84.3824C22.8522 84.238 22.6869 84.0935 22.5216 83.9451C22.4193 83.8553 22.3209 83.7655 22.2186 83.6757C22.0375 83.5117 21.8604 83.3477 21.6833 83.1798C21.6006 83.1056 21.5219 83.0275 21.4393 82.9533C20.0972 81.6765 18.8377 80.3178 17.6688 78.8926C15.3466 76.0539 13.3827 72.9342 11.832 69.6036L14.1069 74.4882C14.1816 74.6483 14.2604 74.8045 14.3351 74.9607C13.2685 73.2973 12.3121 71.5637 11.4738 69.7637L13.7487 74.6483C20.4042 88.9352 34.5455 99.294 52.1464 100.789C52.725 100.84 53.2996 100.875 53.8742 100.903C54.008 100.911 54.1458 100.914 54.2796 100.922C54.8464 100.946 55.4131 100.965 55.9799 100.969C56.0389 100.969 56.098 100.969 56.157 100.969C56.6805 100.969 57.2 100.969 57.7195 100.953C57.8494 100.953 57.9793 100.95 58.1052 100.942C58.6641 100.922 59.2191 100.899 59.774 100.864C59.8685 100.856 59.959 100.848 60.0534 100.844C60.5454 100.809 61.0374 100.766 61.5294 100.719C61.6474 100.707 61.7616 100.696 61.8797 100.684C62.4267 100.625 62.9738 100.559 63.5209 100.485C63.6311 100.469 63.7452 100.454 63.8554 100.434C64.3356 100.364 64.8158 100.29 65.2959 100.204C65.3943 100.188 65.4927 100.173 65.5911 100.153C66.1303 100.055 66.6695 99.95 67.2009 99.8368C67.3229 99.8094 67.4409 99.7821 67.563 99.7587C68.0471 99.6532 68.5312 99.54 69.0113 99.419C69.0822 99.3994 69.153 99.3838 69.2239 99.3682C69.7552 99.2315 70.2826 99.0871 70.8061 98.9348C70.932 98.8997 71.054 98.8606 71.176 98.8255C71.6837 98.6732 72.1915 98.517 72.6952 98.3491C72.7189 98.3413 72.7425 98.3335 72.7661 98.3257C73.2896 98.1539 73.8051 97.9665 74.3207 97.779C74.4427 97.7322 74.5648 97.6892 74.6868 97.6424C75.1984 97.4511 75.7101 97.2519 76.2139 97.045C76.2493 97.0294 76.2886 97.0137 76.3241 96.9981C76.8003 96.799 77.2726 96.596 77.7409 96.3851C77.859 96.3343 77.9732 96.2797 78.0873 96.2289C78.5793 96.0025 79.0673 95.7721 79.5514 95.5339C79.6223 95.4988 79.6931 95.4636 79.764 95.4246C80.1969 95.2059 80.6259 94.9834 81.0549 94.753C81.1179 94.7178 81.1848 94.6866 81.2517 94.6515C81.2871 94.6319 81.3186 94.6124 81.354 94.5929C81.9286 94.2805 82.4954 93.9565 83.0543 93.6246C83.1448 93.5699 83.2353 93.5191 83.3259 93.4645C83.8808 93.1287 84.4318 92.7851 84.975 92.4298C85.0615 92.3712 85.1481 92.3165 85.2387 92.258C85.7818 91.8987 86.321 91.5278 86.8523 91.1491C86.9271 91.0944 87.0019 91.0397 87.0806 90.9851C87.6198 90.5946 88.1511 90.1963 88.6746 89.7864C88.6943 89.7707 88.71 89.759 88.7297 89.7473C88.7769 89.7083 88.8242 89.6692 88.8714 89.6302C89.265 89.3178 89.6546 89.0015 90.0364 88.6814C90.1151 88.615 90.1938 88.5525 90.2686 88.4861C90.6858 88.1308 91.0991 87.7716 91.5045 87.4046C91.591 87.3265 91.6776 87.2484 91.7642 87.1664C92.1499 86.8111 92.5356 86.4518 92.9095 86.0848C92.941 86.0536 92.9725 86.0223 93.004 85.995C93.4015 85.6085 93.7912 85.2102 94.1729 84.8119C94.2162 84.7651 94.2635 84.7221 94.3067 84.6753C94.35 84.6284 94.3933 84.5816 94.4366 84.5347C94.7987 84.1481 95.1608 83.7616 95.5111 83.3672C95.5268 83.3477 95.5426 83.3282 95.5583 83.3126C95.8968 82.9338 96.2274 82.5434 96.5541 82.1529C96.6367 82.0514 96.7233 81.9538 96.806 81.8523C97.1405 81.4462 97.4711 81.0323 97.7939 80.6145C97.8175 80.5833 97.8411 80.552 97.8647 80.5208C98.1678 80.1264 98.463 79.7282 98.7542 79.326C98.7936 79.2674 98.8408 79.2128 98.8802 79.1581C98.9156 79.1112 98.9471 79.0605 98.9785 79.0136C99.2934 78.5724 99.6043 78.1234 99.9035 77.6704C99.9428 77.6119 99.9782 77.5533 100.018 77.4947C100.289 77.0809 100.557 76.6631 100.817 76.2375C100.88 76.1398 100.939 76.0383 101.002 75.9407C101.281 75.48 101.557 75.0114 101.82 74.539C101.871 74.4453 101.923 74.3516 101.974 74.2617C102.21 73.8361 102.438 73.4066 102.662 72.9732C102.694 72.9147 102.725 72.86 102.753 72.8014C102.773 72.7663 102.788 72.7312 102.804 72.696C102.875 72.5594 102.942 72.4188 103.013 72.2782C103.115 72.0752 103.213 71.8682 103.316 71.6652C103.387 71.5168 103.454 71.3685 103.524 71.224C103.619 71.0248 103.709 70.8218 103.8 70.6227C103.867 70.4704 103.934 70.3181 104.005 70.1619C104.091 69.9628 104.178 69.7637 104.264 69.5645C104.331 69.4084 104.394 69.2522 104.461 69.0921C104.544 68.8929 104.622 68.6899 104.705 68.4869C104.768 68.3307 104.827 68.1706 104.89 68.0105C104.969 67.8075 105.044 67.6005 105.118 67.3975C105.177 67.2413 105.233 67.0812 105.292 66.9211C105.366 66.7103 105.437 66.4994 105.508 66.2886C105.559 66.1324 105.614 65.9762 105.665 65.82C105.736 65.6014 105.807 65.3788 105.874 65.1602C105.921 65.0118 105.969 64.8595 106.012 64.7111C106.024 64.676 106.035 64.6409 106.043 64.6057C106.063 64.5354 106.083 64.4691 106.102 64.3988C106.224 63.9771 106.342 63.5554 106.453 63.1337C106.488 63.0048 106.52 62.876 106.555 62.7432H106.539Z" fill="#33B568"/>
<path d="M63.0894 1.71082C76.6167 2.84705 88.1093 9.12171 95.7605 18.36C103.408 27.5943 107.214 39.7805 105.36 52.7359C103.506 65.6913 96.3469 76.956 86.2712 84.7066C76.1916 92.4494 63.1956 96.6741 49.6683 95.5379C36.1409 94.4017 24.6444 88.1231 16.9972 78.8927C9.34596 69.6544 5.54004 57.4682 7.3938 44.5128C9.24756 31.5574 16.4107 20.2888 26.4864 12.546C36.566 4.79544 49.5581 0.574585 63.0894 1.71082Z" fill="#F2FFBD"/>
<path d="M62.4901 5.8874C74.8134 6.92251 85.2831 12.6387 92.2533 21.0547C99.2199 29.4671 102.687 40.5687 100.998 52.371C99.3096 64.1733 92.7875 74.4354 83.6087 81.4961C74.4262 88.5498 62.5869 92.3985 50.2635 91.3634C37.9402 90.3283 27.4669 84.6086 20.5003 76.1997C13.5301 67.7837 10.0629 56.6821 11.7517 44.8798C13.4405 33.0775 19.9661 22.8119 29.1449 15.7582C38.3274 8.69748 50.1631 4.8523 62.4901 5.8874Z" fill="url(#paint0_linear_1_3399)"/>
<path d="M52.9044 68.5496L55.0239 40.0624L48.5741 43.31L49.2219 34.6034L55.6946 31.0482L62.6732 31.5675L59.8829 69.0688L52.9044 68.5496Z" fill="#33B568"/>
<g opacity="0.7">
<path fill-rule="evenodd" clip-rule="evenodd" d="M70.0325 80.0698C70.6976 79.4685 71.347 78.8477 71.9413 78.1527C72.7246 77.5865 73.8266 76.4971 74.7594 74.4785C75.7158 72.409 75.9913 68.645 75.9913 68.645C75.9913 68.645 71.1581 72.7136 70.9731 77.6412C70.9613 77.9848 70.9495 78.2191 70.9456 78.3791C70.4142 78.8633 69.8672 79.3241 69.3162 79.7731C66.014 82.4907 60.9132 83.623 60.9132 83.623C60.9132 83.623 61.7043 83.8338 62.5151 84.3649C64.4948 83.8729 67.4506 82.0416 69.0052 80.9054C69.1745 81.3466 69.9852 83.01 72.5356 82.8577C74.2359 82.7523 77.2822 80.7961 77.2822 80.7961C77.2822 80.7961 73.925 77.5553 70.0364 80.0698H70.0325Z" fill="#33B568"/>
<path fill-rule="evenodd" clip-rule="evenodd" d="M76.3894 76.1068C75.7282 76.8331 75.6376 76.9307 75.6298 76.9385C75.6298 76.9424 76.8262 78.6682 79.8529 77.4539C81.6122 76.7472 84.3358 73.9398 84.3358 73.9398C84.3358 73.9398 79.8922 72.253 76.3933 76.1068H76.3894Z" fill="#33B568"/>
<path fill-rule="evenodd" clip-rule="evenodd" d="M76.9751 73.4514C77.1601 74.2792 77.1797 74.3963 77.1837 74.4081C77.1876 74.4042 79.3129 73.0336 80.1828 69.3204C80.6865 67.169 80.0726 63.772 80.0726 63.772C80.0726 63.772 75.9951 69.0705 76.979 73.4514H76.9751Z" fill="#33B568"/>
<path fill-rule="evenodd" clip-rule="evenodd" d="M82.2767 70.1596C81.7611 71.0342 81.6863 71.1514 81.6785 71.1631C81.6824 71.1631 83.3472 72.2446 86.2283 70.0893C87.9049 68.8359 90.0853 65.4038 90.0853 65.4038C90.0853 65.4038 85.02 65.5288 82.2767 70.1596Z" fill="#33B568"/>
<path fill-rule="evenodd" clip-rule="evenodd" d="M82.6978 68.3828C82.6978 68.3828 84.5988 66.4149 84.6145 62.8578C84.6224 60.7962 83.1583 58.0435 83.1583 58.0435C83.1583 58.0435 80.1671 64.1424 82.2491 67.6253C82.6427 68.2852 82.6899 68.375 82.6939 68.3867L82.6978 68.3828Z" fill="#33B568"/>
<path fill-rule="evenodd" clip-rule="evenodd" d="M87.0155 62.8403C86.6849 63.7891 86.6376 63.918 86.6298 63.9336C86.6337 63.9336 88.641 64.2811 91.1441 61.3644C92.6004 59.6698 94.0606 55.8901 94.0606 55.8901C94.0606 55.8901 88.7748 57.8151 87.0155 62.8442" fill="#33B568"/>
<path fill-rule="evenodd" clip-rule="evenodd" d="M87.0303 61.1367C87.0303 61.1367 88.5455 58.7354 87.7033 55.6156C87.2113 53.8078 85.0072 51.9219 85.0072 51.9219C85.0072 51.9219 83.3542 58.3293 86.3769 60.6291C86.9476 61.0625 87.0224 61.125 87.0303 61.1328" fill="#33B568"/>
<path fill-rule="evenodd" clip-rule="evenodd" d="M90.2115 54.7463C90.0934 55.6951 90.0737 55.824 90.0737 55.8357C90.0777 55.8357 92.266 55.4218 94.1866 51.9741C95.3005 49.9749 95.9066 46.1484 95.9066 46.1484C95.9066 46.1484 90.8294 49.7172 90.2115 54.7424" fill="#33B568"/>
<path fill-rule="evenodd" clip-rule="evenodd" d="M89.1096 48.513C88.2516 47.002 85.5949 45.897 85.5949 45.897C85.5949 45.897 85.0832 52.1833 88.6727 53.4406C89.3496 53.6788 89.4402 53.7139 89.448 53.7178C89.448 53.71 90.5776 51.1135 89.1056 48.513H89.1096Z" fill="#33B568"/>
<path fill-rule="evenodd" clip-rule="evenodd" d="M91.7107 47.5297C91.7107 47.5297 93.9108 46.3856 95.0797 42.688C95.7567 40.5444 95.4497 36.9873 95.4497 36.9873C95.4497 36.9873 91.0023 41.911 91.5887 46.5223C91.6989 47.393 91.7107 47.5141 91.7107 47.5258V47.5297Z" fill="#33B568"/>
<path fill-rule="evenodd" clip-rule="evenodd" d="M89.8522 46.2422C90.6118 46.2422 90.7142 46.2422 90.726 46.2461C90.726 46.2383 91.3478 43.5636 89.2422 41.7011C88.0182 40.6235 84.9994 40.4673 84.9994 40.4673C84.9994 40.4673 85.822 46.25 89.8562 46.2422H89.8522Z" fill="#33B568"/>
<path fill-rule="evenodd" clip-rule="evenodd" d="M91.393 39.6854C91.393 39.6854 93.416 37.9049 93.7308 34.2581C93.9119 32.1457 92.7075 29.1431 92.7075 29.1431C92.7075 29.1431 89.2716 35.0234 91.0191 38.8499C91.3497 39.5722 91.389 39.6737 91.393 39.6854Z" fill="#33B568"/>
<path fill-rule="evenodd" clip-rule="evenodd" d="M83.1227 35.3831C83.1227 35.3831 84.9686 40.5137 89.1681 39.5102C89.9631 39.3228 90.0694 39.2994 90.0812 39.2994C90.0812 39.2916 90.2701 36.6716 87.7551 35.4768C86.2949 34.7818 83.1227 35.3831 83.1227 35.3831Z" fill="#33B568"/>
<path fill-rule="evenodd" clip-rule="evenodd" d="M88.5278 32.3418C89.0512 32.8572 89.1181 32.9314 89.126 32.9392C89.1299 32.9353 90.8027 30.6628 90.228 27.3674C89.8935 25.4541 87.8862 23.252 87.8862 23.252C87.8862 23.252 85.753 29.6125 88.5278 32.3418Z" fill="#33B568"/>
<path fill-rule="evenodd" clip-rule="evenodd" d="M87.822 33.4326C87.822 33.4326 87.8102 30.8673 85.1417 29.9809C83.591 29.4655 80.3912 30.3987 80.3912 30.3987C80.3912 30.3987 82.6819 35.174 86.905 33.741C87.704 33.4716 87.8102 33.4404 87.822 33.4365" fill="#33B568"/>
<path fill-rule="evenodd" clip-rule="evenodd" d="M84.8291 28.6233C85.5848 28.6702 85.6832 28.6819 85.695 28.6858C85.695 28.678 86.4153 26.0034 84.4001 23.9808C83.2273 22.8094 80.24 22.458 80.24 22.458C80.24 22.458 80.8304 28.3735 84.8291 28.6233Z" fill="#33B568"/>
</g>
<g opacity="0.7">
<path fill-rule="evenodd" clip-rule="evenodd" d="M24.783 76.0129C24.783 76.0129 27.1484 77.9691 28.8132 78.0745C31.3085 78.2307 32.6939 76.5673 33.0206 76.1222C34.1777 77.2584 36.4998 79.0858 38.3064 79.5817C39.3061 79.0506 40.168 78.8398 40.168 78.8398C40.168 78.8398 35.4608 77.7075 33.1032 74.9899C32.7097 74.5408 32.32 74.0801 31.9579 73.5959C32.0052 73.4358 32.0799 73.2016 32.1862 72.858C33.7133 67.9265 30.2931 63.8618 30.2931 63.8618C30.2931 63.8618 29.2619 67.6297 29.4981 69.6953C29.7303 71.7139 30.4545 72.8033 31.0409 73.3695C31.3912 74.0645 31.828 74.6892 32.2807 75.2866C29.2658 72.7721 24.783 76.0129 24.783 76.0129Z" fill="#33B568"/>
<path fill-rule="evenodd" clip-rule="evenodd" d="M20.1163 69.1566C20.1163 69.1566 21.8638 71.964 23.3752 72.6707C25.9807 73.885 27.7715 72.1631 27.7754 72.1553C27.7675 72.1475 27.7124 72.0499 27.3031 71.3236C25.1424 67.4698 20.1163 69.1566 20.1163 69.1566Z" fill="#33B568"/>
<path fill-rule="evenodd" clip-rule="evenodd" d="M27.9093 58.9839C27.9093 58.9839 26.1146 62.3809 25.8706 64.5323C25.4494 68.2456 27.0985 69.6122 27.1025 69.62C27.1104 69.6083 27.1694 69.4911 27.6417 68.6633C30.1449 64.2824 27.9093 58.9839 27.9093 58.9839Z" fill="#33B568"/>
<path fill-rule="evenodd" clip-rule="evenodd" d="M23.4858 65.3725C22.3523 60.7416 17.3302 60.6167 17.3302 60.6167C17.3302 60.6167 18.3181 64.0527 19.5618 65.3022C21.695 67.4575 23.7338 66.376 23.7377 66.376C23.7338 66.3642 23.7023 66.2471 23.4897 65.3725" fill="#33B568"/>
<path fill-rule="evenodd" clip-rule="evenodd" d="M24.391 62.8372C27.6813 59.3543 26.8115 53.2554 26.8115 53.2554C26.8115 53.2554 24.391 56.0081 23.6825 58.0697C22.4663 61.6268 23.6786 63.5908 23.6825 63.5947C23.6904 63.5869 23.773 63.4932 24.3949 62.8333L24.391 62.8372Z" fill="#33B568"/>
<path fill-rule="evenodd" clip-rule="evenodd" d="M21.289 58.0556C21.2811 53.0265 16.6644 51.1016 16.6644 51.1016C16.6644 51.1016 16.8101 54.8851 17.6759 56.5758C19.1676 59.4964 21.2929 59.1489 21.2969 59.145C21.2969 59.1294 21.2929 59.0044 21.289 58.0517" fill="#33B568"/>
<path fill-rule="evenodd" clip-rule="evenodd" d="M21.8672 56.3496C21.8672 56.3496 21.9735 56.2793 22.6937 55.8459C26.5154 53.5422 27.0861 47.1387 27.0861 47.1387C27.0861 47.1387 24.2287 49.0246 23.1109 50.8324C21.1863 53.9483 21.8633 56.3457 21.8672 56.3535" fill="#33B568"/>
<path fill-rule="evenodd" clip-rule="evenodd" d="M20.907 49.9568C22.0365 44.9316 18.1991 41.3628 18.1991 41.3628C18.1991 41.3628 17.4789 45.1854 17.8961 47.1884C18.6203 50.6323 20.6629 51.0462 20.6669 51.0501C20.6669 51.0383 20.6944 50.9095 20.907 49.9607" fill="#33B568"/>
<path fill-rule="evenodd" clip-rule="evenodd" d="M22.0247 48.9351C22.0247 48.9351 22.1389 48.8961 22.8985 48.6579C26.9248 47.4006 28.5975 41.1143 28.5975 41.1143C28.5975 41.1143 25.5551 42.2193 24.1737 43.7303C21.7964 46.3308 22.0247 48.9273 22.0247 48.9351Z" fill="#33B568"/>
<path fill-rule="evenodd" clip-rule="evenodd" d="M22.3826 41.7391C24.5669 37.1278 21.8355 32.2041 21.8355 32.2041C21.8355 32.2041 20.2927 35.7612 20.2257 37.9048C20.1116 41.5985 21.9063 42.7426 21.9103 42.7465C21.9142 42.7348 21.9693 42.6137 22.3786 41.743L22.3826 41.7391Z" fill="#33B568"/>
<path fill-rule="evenodd" clip-rule="evenodd" d="M31.0741 35.6816C31.0741 35.6816 28.0003 35.8378 26.4023 36.9155C23.6512 38.778 23.3403 41.4526 23.3403 41.4604C23.3521 41.4604 23.4544 41.4526 24.214 41.4565C28.2403 41.4643 31.0741 35.6816 31.0741 35.6816Z" fill="#33B568"/>
<path fill-rule="evenodd" clip-rule="evenodd" d="M25.6194 34.0647C28.6972 30.2382 27.3 24.3579 27.3 24.3579C27.3 24.3579 25.0566 27.3566 24.5016 29.4729C23.5492 33.1159 24.9503 34.8925 24.9542 34.9003C24.9621 34.8886 25.0369 34.787 25.6194 34.0647Z" fill="#33B568"/>
<path fill-rule="evenodd" clip-rule="evenodd" d="M34.7176 30.5987C34.7176 30.5987 31.7579 30.0013 30.0537 30.6924C27.1254 31.8911 26.4052 34.5072 26.4012 34.515C26.4131 34.515 26.5114 34.5384 27.2396 34.7258C31.0888 35.7254 34.7176 30.5987 34.7176 30.5987Z" fill="#33B568"/>
<path fill-rule="evenodd" clip-rule="evenodd" d="M30.3745 27.5562C34.0977 24.8269 34.1725 18.4663 34.1725 18.4663C34.1725 18.4663 31.4056 20.6685 30.4059 22.5817C28.686 25.8811 29.5716 28.1497 29.5716 28.1536C29.5794 28.1458 29.6739 28.0716 30.3784 27.5562" fill="#33B568"/>
<path fill-rule="evenodd" clip-rule="evenodd" d="M30.696 28.6493C30.696 28.6493 30.8023 28.6844 31.5068 28.9538C35.234 30.3868 39.1816 25.6115 39.1816 25.6115C39.1816 25.6115 36.3046 24.6822 34.5767 25.1937C31.6013 26.0801 30.7 28.6376 30.696 28.6454" fill="#33B568"/>
<path fill-rule="evenodd" clip-rule="evenodd" d="M35.36 23.8357C39.4414 23.5819 42.0863 17.6704 42.0863 17.6704C42.0863 17.6704 38.977 18.0218 37.3988 19.1932C34.6831 21.2158 34.4745 23.8904 34.4705 23.8982C34.4823 23.8982 34.5847 23.8865 35.3561 23.8357" fill="#33B568"/>
</g>
<path d="M94.7809 4.32316C94.7809 4.32316 93.3959 9.7108 93.4085 11.0096C93.4211 12.3085 92.5691 14.743 96.0759 16.167C96.0759 16.167 100.151 17.6468 101.269 17.7721C101.269 17.7721 96.9821 16.7273 95.8033 16.7283C94.6245 16.7293 92.284 16.4287 90.7268 21.2667L89.2451 26.581C89.2451 26.581 90.5569 20.9509 90.6308 19.8069C90.7048 18.6628 91.3536 15.9387 87.6527 14.6001L83.0409 13.1874C83.0409 13.1874 86.7713 14.2299 89.024 14.1858C91.2767 14.1418 92.9252 11.5729 94.7809 4.32316Z" fill="#33B568" stroke="#33B568" stroke-width="0.49391" stroke-miterlimit="10"/>
<path d="M8.13611 71.8562C8.13611 71.8562 7.50441 74.3136 7.51014 74.906C7.51587 75.4984 7.12728 76.6089 8.7268 77.2584C8.7268 77.2584 10.5856 77.9333 11.0955 77.9905C11.0955 77.9905 9.14011 77.5139 8.60245 77.5144C8.06478 77.5148 6.99725 77.3777 6.28695 79.5845L5.61112 82.0084C5.61112 82.0084 6.20947 79.4404 6.2432 78.9186C6.27693 78.3968 6.57288 77.1542 4.88481 76.5437L2.78127 75.8993C2.78127 75.8993 4.4828 76.3748 5.51028 76.3547C6.53777 76.3346 7.28969 75.1629 8.13611 71.8562Z" fill="#33B568" stroke="#33B568" stroke-width="0.49391" stroke-miterlimit="10"/>
<ellipse cx="35.0251" cy="2.1467" rx="1.17795" ry="1.17795" fill="#33B568"/>
<ellipse cx="102.37" cy="83.3908" rx="1.90352" ry="1.90352" fill="#33B568"/>
<ellipse cx="6.42656" cy="69.1158" rx="0.503465" ry="0.503465" fill="#33B568"/>
<defs>
<linearGradient id="paint0_linear_1_3399" x1="56.7611" y1="8.05532" x2="56.7611" y2="91.529" gradientUnits="userSpaceOnUse">
<stop offset="0.4375" stop-color="#D4F938"/>
<stop offset="1" stop-color="#32D875" stop-opacity="0.96"/>
</linearGradient>
</defs>
</svg>
