<svg width="78" height="68" viewBox="0 0 78 68" fill="none" xmlns="http://www.w3.org/2000/svg">
<path d="M73.1402 33.8369L67.7415 39.6196L61.256 40.641L66.651 34.8583L73.1402 33.8369Z" fill="#14AB4C"/>
<path d="M71.0401 44.4771L65.6414 50.2598L58.7527 51.3465L64.1477 45.5638L71.0401 44.4771Z" fill="#14AB4C"/>
<path d="M43.4239 0.130859L47.8588 9.85323L54.7513 8.76656L59.0595 18.2201L65.5488 17.1949L73.1401 33.8366L66.6508 34.858L71.0397 44.4767L64.1473 45.5633L68.9048 55.9922L31.7355 61.8479L6.25464 5.98655L43.4239 0.130859Z" fill="url(#paint0_linear_1_2456)"/>
<path d="M68.9052 55.9927L63.5064 61.7754L26.3372 67.6311L31.7359 61.8484L68.9052 55.9927Z" fill="#14AB4C"/>
<path d="M31.7357 61.8477L26.3369 67.6304L0.859863 11.7691L6.25478 5.98633L31.7357 61.8477Z" fill="#058A36"/>
<path d="M69.2626 9.44236C69.2626 9.44236 67.712 13.6917 67.6185 14.7437C67.525 15.7958 66.6413 17.6979 69.3655 19.13C69.3655 19.13 72.5452 20.6527 73.4398 20.8433C73.4398 20.8433 70.0541 19.6558 69.1001 19.5625C68.1461 19.4692 66.2761 19.0392 64.6299 22.83L63.0068 27.0122C63.0068 27.0122 64.5176 22.5609 64.6688 21.641C64.8199 20.7211 65.5623 18.5685 62.6743 17.1899L59.055 15.6787C59.055 15.6787 61.9906 16.8199 63.817 16.9641C65.6434 17.1082 67.1825 15.161 69.2626 9.44236Z" fill="white" stroke="white" stroke-width="0.275772" stroke-miterlimit="10"/>
<defs>
<linearGradient id="paint0_linear_1_2456" x1="39.984" y1="1.81" x2="35.1573" y2="61.9179" gradientUnits="userSpaceOnUse">
<stop offset="0.4267" stop-color="#D4F938"/>
<stop offset="1" stop-color="#32D875" stop-opacity="0.96"/>
</linearGradient>
</defs>
</svg>
