<svg width="131" height="187" viewBox="0 0 131 187" fill="none" xmlns="http://www.w3.org/2000/svg">
<g style="mix-blend-mode:multiply" opacity="0.5">
<path d="M25.9891 171.828L12.897 179.387L25.9891 186.945L39.0794 179.387L25.9891 171.828Z" fill="#A591AA"/>
</g>
<g style="mix-blend-mode:multiply" opacity="0.5">
<path d="M87.2926 136.804L74.2005 144.361L87.2926 151.919L100.383 144.362L87.2926 136.804Z" fill="#A591AA"/>
</g>
<g style="mix-blend-mode:multiply" opacity="0.5">
<path d="M107.65 125.378L94.5582 132.936L107.65 140.495L120.741 132.936L107.65 125.378Z" fill="#A591AA"/>
</g>
<g style="mix-blend-mode:multiply" opacity="0.5">
<path d="M68.0989 148.721L55.0068 156.28L68.0989 163.838L81.1892 156.28L68.0989 148.721Z" fill="#A591AA"/>
</g>
<g style="mix-blend-mode:multiply" opacity="0.5">
<path d="M47.1202 160.071L34.0299 167.63L47.1202 175.189L60.2123 167.63L47.1202 160.071Z" fill="#A591AA"/>
</g>
<path d="M107.65 133.263C107.308 133.263 107.03 132.985 107.03 132.643V110.074C107.03 109.731 107.308 109.454 107.65 109.454C107.993 109.454 108.27 109.731 108.27 110.074V132.643C108.27 132.985 107.993 133.263 107.65 133.263Z" fill="#AAA617"/>
<path d="M107.65 102.385L94.3331 110.073L107.65 117.762L120.967 110.073L107.65 102.385Z" fill="#AF982B"/>
<path d="M107.65 16.4509L94.3331 24.1383L107.65 31.8257L120.967 24.1383L107.65 16.4509Z" fill="#58F28A"/>
<path d="M94.3331 24.1381V110.073L107.65 117.763V31.8254L94.3331 24.1381Z" fill="#058A36"/>
<path d="M107.651 31.8254V117.763L120.968 110.073V24.1381L107.651 31.8254Z" fill="url(#paint0_linear_1_2367)"/>
<path d="M107.65 24.7581C107.308 24.7581 107.03 24.4807 107.03 24.138V1.56904C107.03 1.22637 107.308 0.948975 107.65 0.948975C107.993 0.948975 108.27 1.22637 108.27 1.56904V24.138C108.27 24.4807 107.993 24.7581 107.65 24.7581Z" fill="#AAA617"/>
<path d="M87.2926 145.13C86.9499 145.13 86.6725 144.853 86.6725 144.51V121.941C86.6725 121.599 86.9499 121.321 87.2926 121.321C87.6353 121.321 87.9127 121.599 87.9127 121.941V144.51C87.9127 144.853 87.6353 145.13 87.2926 145.13Z" fill="#AAA617"/>
<path d="M87.2923 114.254L73.9754 121.942L87.2923 129.631L100.607 121.942L87.2923 114.254Z" fill="#AF982B"/>
<path d="M87.2923 63.0386L73.9754 70.7278L87.2923 78.4152L100.607 70.7278L87.2923 63.0386Z" fill="#58F28A"/>
<path d="M73.9754 70.7283V121.942L87.2923 129.631V78.4156L73.9754 70.7283Z" fill="#058A36"/>
<path d="M87.2918 78.4156V129.631L100.607 121.942V70.7283L87.2918 78.4156Z" fill="url(#paint1_linear_1_2367)"/>
<path d="M87.2927 71.3479C86.9501 71.3479 86.6727 71.0705 86.6727 70.7278V48.1589C86.6727 47.8162 86.9501 47.5388 87.2927 47.5388C87.6354 47.5388 87.9128 47.8162 87.9128 48.1589V70.7278C87.9128 71.0705 87.6354 71.3479 87.2927 71.3479Z" fill="#AAA617"/>
<path d="M68.0993 156.985C67.7566 156.985 67.4792 156.708 67.4792 156.365V133.796C67.4792 133.454 67.7566 133.176 68.0993 133.176C68.4419 133.176 68.7193 133.454 68.7193 133.796V156.365C68.7193 156.708 68.4419 156.985 68.0993 156.985Z" fill="#AAA617"/>
<path d="M68.0991 126.109L54.7822 133.796L68.0991 141.485L81.4142 133.798L68.0991 126.109Z" fill="#AF982B"/>
<path d="M68.0991 94.7357L54.7822 102.423L68.0991 110.112L81.4142 102.423L68.0991 94.7357Z" fill="#58F28A"/>
<path d="M54.782 102.424V133.797L68.099 141.486V110.113L54.782 102.424Z" fill="#058A36"/>
<path d="M68.0983 110.113V141.486L81.4134 133.799V102.424L68.0983 110.113Z" fill="url(#paint2_linear_1_2367)"/>
<path d="M68.0993 103.043C67.7566 103.043 67.4792 102.766 67.4792 102.423V79.8544C67.4792 79.5118 67.7566 79.2344 68.0993 79.2344C68.4419 79.2344 68.7193 79.5118 68.7193 79.8544V102.423C68.7193 102.766 68.4419 103.043 68.0993 103.043Z" fill="#AAA617"/>
<path d="M47.1192 168.171C46.7765 168.171 46.4991 167.893 46.4991 167.551V144.982C46.4991 144.639 46.7765 144.362 47.1192 144.362C47.4619 144.362 47.7393 144.639 47.7393 144.982V167.551C47.7393 167.893 47.4619 168.171 47.1192 168.171Z" fill="#AAA617"/>
<path d="M47.1203 137.294L33.8052 144.982L47.1203 152.671L60.4373 144.984L47.1203 137.294Z" fill="#AF982B"/>
<path d="M47.1203 58.7997L33.8052 66.4871L47.1203 74.1763L60.4373 66.4871L47.1203 58.7997Z" fill="#58F28A"/>
<path d="M33.8052 66.4874V144.982L47.1203 152.671V74.1765L33.8052 66.4874Z" fill="#058A36"/>
<path d="M47.1199 74.1765V152.671L60.4369 144.984V66.4874L47.1199 74.1765Z" fill="url(#paint3_linear_1_2367)"/>
<path d="M47.1192 67.1069C46.7765 67.1069 46.4991 66.8295 46.4991 66.4868V43.9179C46.4991 43.5752 46.7765 43.2978 47.1192 43.2978C47.4618 43.2978 47.7392 43.5752 47.7392 43.9179V66.4868C47.7392 66.8295 47.4618 67.1069 47.1192 67.1069Z" fill="#AAA617"/>
<path d="M25.9896 179.986C25.647 179.986 25.3696 179.708 25.3696 179.366V156.797C25.3696 156.454 25.647 156.177 25.9896 156.177C26.3323 156.177 26.6097 156.454 26.6097 156.797V179.366C26.6097 179.708 26.3323 179.986 25.9896 179.986Z" fill="#AAA617"/>
<path d="M25.9892 149.11L12.6723 156.797L25.9892 164.486L39.3043 156.797L25.9892 149.11Z" fill="#AF982B"/>
<path d="M25.9892 100.375L12.6723 108.064L25.9892 115.751L39.3043 108.064L25.9892 100.375Z" fill="#58F28A"/>
<path d="M12.6723 108.064V156.797L25.9892 164.486V115.751L12.6723 108.064Z" fill="#058A36"/>
<path d="M25.9886 115.751V164.486L39.3037 156.797V108.064L25.9886 115.751Z" fill="url(#paint4_linear_1_2367)"/>
<path d="M25.9896 108.684C25.647 108.684 25.3696 108.407 25.3696 108.064V85.4949C25.3696 85.1522 25.647 84.8748 25.9896 84.8748C26.3323 84.8748 26.6097 85.1522 26.6097 85.4949V108.064C26.6097 108.407 26.3323 108.684 25.9896 108.684Z" fill="#AAA617"/>
<path d="M71.55 68.1142C71.55 68.1142 70.8793 69.9521 70.8389 70.4071C70.7985 70.8621 70.4162 71.6848 71.5945 72.3042C71.5945 72.3042 72.9697 72.9628 73.3567 73.0452C73.3567 73.0452 71.8923 72.5316 71.4797 72.4913C71.0671 72.4509 70.2583 72.2649 69.5463 73.9045L68.8443 75.7134C68.8443 75.7134 69.4977 73.7881 69.5631 73.3902C69.6284 72.9924 69.9496 72.0613 68.7004 71.4651L67.1351 70.8115C67.1351 70.8115 68.4047 71.3051 69.1947 71.3674C69.9846 71.4298 70.6503 70.5875 71.55 68.1142Z" fill="white" stroke="white" stroke-width="0.059467" stroke-miterlimit="10"/>
<circle cx="88.1102" cy="43.3912" r="0.908273" transform="rotate(5.63183 88.1102 43.3912)" fill="#33B568"/>
<circle cx="31.6508" cy="94.737" r="0.908273" transform="rotate(5.63183 31.6508 94.737)" fill="#33B568"/>
<circle cx="11.902" cy="162.847" r="0.908273" transform="rotate(5.63183 11.902 162.847)" fill="#33B568"/>
<circle cx="1.34802" cy="126.925" r="0.908273" transform="rotate(5.63183 1.34802 126.925)" fill="white"/>
<circle cx="88.5715" cy="120.367" r="0.908273" transform="rotate(5.63183 88.5715 120.367)" fill="white"/>
<circle cx="122.945" cy="114.237" r="0.504724" transform="rotate(5.63183 122.945 114.237)" fill="white"/>
<circle cx="117.188" cy="11.2504" r="1.46774" transform="rotate(5.63183 117.188 11.2504)" fill="#33B568"/>
<path d="M117.64 58.9625C117.64 58.9625 119.481 62.8369 120.13 63.5998C120.779 64.3628 121.476 66.2252 124.256 65.3367C124.256 65.3367 127.4 64.2005 128.124 63.7226C128.124 63.7226 125.069 65.221 124.372 65.8036C123.674 66.3863 122.14 67.3641 123.607 70.9981L125.354 74.8768C125.354 74.8768 123.35 70.895 122.829 70.181C122.308 69.467 121.347 67.5334 118.494 68.5684L115.066 70.0093C115.066 70.0093 117.79 68.7844 119.102 67.6459C120.414 66.5074 120.122 64.1721 117.64 58.9625Z" fill="white" stroke="white" stroke-width="0.059467" stroke-miterlimit="10"/>
<defs>
<linearGradient id="paint0_linear_1_2367" x1="114.367" y1="26.6853" x2="73.5117" y2="93.4608" gradientUnits="userSpaceOnUse">
<stop offset="0.4267" stop-color="#D4F938"/>
<stop offset="1" stop-color="#32D875" stop-opacity="0.96"/>
</linearGradient>
<linearGradient id="paint1_linear_1_2367" x1="94.0064" y1="72.3308" x2="74.6483" y2="122.615" gradientUnits="userSpaceOnUse">
<stop offset="0.4267" stop-color="#D4F938"/>
<stop offset="1" stop-color="#32D875" stop-opacity="0.96"/>
</linearGradient>
<linearGradient id="paint2_linear_1_2367" x1="74.8129" y1="103.486" x2="65.6358" y2="139.433" gradientUnits="userSpaceOnUse">
<stop offset="0.4267" stop-color="#D4F938"/>
<stop offset="1" stop-color="#32D875" stop-opacity="0.96"/>
</linearGradient>
<linearGradient id="paint3_linear_1_2367" x1="53.8355" y1="68.8322" x2="17.7148" y2="132.967" gradientUnits="userSpaceOnUse">
<stop offset="0.4267" stop-color="#D4F938"/>
<stop offset="1" stop-color="#32D875" stop-opacity="0.96"/>
</linearGradient>
<linearGradient id="paint4_linear_1_2367" x1="32.7032" y1="109.599" x2="14.7499" y2="158.284" gradientUnits="userSpaceOnUse">
<stop offset="0.4267" stop-color="#D4F938"/>
<stop offset="1" stop-color="#32D875" stop-opacity="0.96"/>
</linearGradient>
</defs>
</svg>
