<svg width="109" height="105" viewBox="0 0 109 105" fill="none" xmlns="http://www.w3.org/2000/svg">
<g opacity="0.04">
<path d="M31.6921 0.557617H47.253C48.5641 0.557617 49.627 1.6165 49.627 2.92269V18.425C49.627 19.7311 48.5641 20.79 47.253 20.79H31.6921C30.381 20.79 29.3181 19.7311 29.3181 18.425V2.92269C29.3181 1.6165 30.381 0.557617 31.6921 0.557617Z" fill="black"/>
<path d="M47.2538 48.9854H31.693C30.3818 48.9854 29.319 47.9265 29.319 46.6203L29.319 31.118C29.319 29.8118 30.3818 28.7529 31.693 28.7529L47.2538 28.7529C48.5649 28.7529 49.6278 29.8118 49.6278 31.118V46.6203C49.6278 47.9265 48.5649 48.9854 47.2538 48.9854Z" fill="black"/>
<path d="M2.63022 0.557617H18.1911C19.5022 0.557617 20.5651 1.6165 20.5651 2.92269V18.425C20.5651 19.7311 19.5022 20.79 18.1911 20.79H2.63022C1.31909 20.79 0.25622 19.7311 0.25622 18.425V2.92269C0.25622 1.6165 1.31909 0.557617 2.63022 0.557617Z" fill="black"/>
<path d="M18.1904 48.9854H2.62957C1.31844 48.9854 0.255554 47.9265 0.255554 46.6203L0.255554 31.118C0.255554 29.8118 1.31844 28.7529 2.62957 28.7529L18.1904 28.7529C19.5015 28.7529 20.5644 29.8118 20.5644 31.118L20.5644 46.6203C20.5644 47.9265 19.5015 48.9854 18.1904 48.9854Z" fill="black"/>
<path d="M31.6921 55.9336H47.253C48.5641 55.9336 49.627 56.9925 49.627 58.2987V73.8009C49.627 75.1071 48.5641 76.166 47.253 76.166H31.6921C30.381 76.166 29.3181 75.1071 29.3181 73.8009V58.2987C29.3181 56.9925 30.381 55.9336 31.6921 55.9336Z" fill="black"/>
<path d="M47.2538 104.353H31.693C30.3818 104.353 29.319 103.294 29.319 101.987L29.319 86.4852C29.319 85.179 30.3818 84.1201 31.693 84.1201H47.2538C48.5649 84.1201 49.6278 85.179 49.6278 86.4852V101.987C49.6278 103.294 48.5649 104.353 47.2538 104.353Z" fill="black"/>
<path d="M91.0199 0.557617H106.581C107.892 0.557617 108.955 1.6165 108.955 2.92269V18.425C108.955 19.7311 107.892 20.79 106.581 20.79H91.0199C89.7088 20.79 88.6459 19.7311 88.6459 18.425V2.92269C88.6459 1.6165 89.7088 0.557617 91.0199 0.557617Z" fill="black"/>
<path d="M106.582 48.9854H91.0207C89.7096 48.9854 88.6467 47.9265 88.6467 46.6203V31.118C88.6467 29.8118 89.7096 28.7529 91.0207 28.7529L106.582 28.7529C107.893 28.7529 108.956 29.8118 108.956 31.118V46.6203C108.956 47.9265 107.893 48.9854 106.582 48.9854Z" fill="black"/>
<path d="M61.9579 0.557617H77.5187C78.8299 0.557617 79.8928 1.6165 79.8928 2.92269V18.425C79.8928 19.7311 78.8299 20.79 77.5187 20.79H61.9579C60.6468 20.79 59.5839 19.7311 59.5839 18.425V2.92269C59.5839 1.6165 60.6468 0.557617 61.9579 0.557617Z" fill="black"/>
<path d="M77.5182 48.9854H61.9573C60.6462 48.9854 59.5833 47.9265 59.5833 46.6203V31.118C59.5833 29.8118 60.6462 28.7529 61.9573 28.7529L77.5182 28.7529C78.8293 28.7529 79.8922 29.8118 79.8922 31.118V46.6203C79.8922 47.9265 78.8293 48.9854 77.5182 48.9854Z" fill="black"/>
<path d="M91.0199 55.9336H106.581C107.892 55.9336 108.955 56.9925 108.955 58.2987V73.8009C108.955 75.1071 107.892 76.166 106.581 76.166H91.0199C89.7088 76.166 88.6459 75.1071 88.6459 73.8009V58.2987C88.6459 56.9925 89.7088 55.9336 91.0199 55.9336Z" fill="black"/>
<path d="M106.582 104.353H91.0207C89.7096 104.353 88.6467 103.294 88.6467 101.987V86.4852C88.6467 85.179 89.7096 84.1201 91.0207 84.1201H106.582C107.893 84.1201 108.956 85.179 108.956 86.4852V101.987C108.956 103.294 107.893 104.353 106.582 104.353Z" fill="black"/>
</g>
</svg>
