<svg width="159" height="106" viewBox="0 0 159 106" fill="none" xmlns="http://www.w3.org/2000/svg">
<path opacity="0.2" d="M91.9656 54.2025C86.1148 50.8275 82.8149 46.2523 82.7911 41.475C82.7614 36.6977 86.0137 32.1225 91.8229 28.7475C97.632 25.3725 105.534 23.4771 113.781 23.4771C122.028 23.4771 129.948 25.3725 135.792 28.7475C141.637 32.1225 144.943 36.6977 144.973 41.475C145.003 46.2523 141.75 50.8275 135.935 54.2025C130.126 57.5775 122.23 59.4729 113.983 59.4729C105.736 59.4729 97.8163 57.5775 91.9656 54.2025Z" fill="white"/>
<path opacity="0.2" d="M81.0075 60.566C105.385 74.6305 115.315 91.7134 103.209 98.7426L92.2511 105.106L4.02649 54.2023L14.9847 47.8385C27.0905 40.8093 56.6354 46.5016 81.0075 60.566Z" fill="white"/>
<mask id="mask0_1_3207" style="mask-type:luminance" maskUnits="userSpaceOnUse" x="79" y="18" width="10" height="33">
<path d="M88.9927 31.0293L88.9392 50.4057C83.0885 47.0307 79.7886 42.4555 79.7648 37.6782L79.8183 18.3018C79.8421 23.0731 83.142 27.6543 88.9927 31.0293Z" fill="white"/>
</mask>
<g mask="url(#mask0_1_3207)">
<path d="M88.9927 31.0293L88.9392 50.4057C83.0885 47.0307 79.7886 42.4555 79.7648 37.6782L79.8183 18.3018C79.8421 23.0731 83.142 27.6543 88.9927 31.0293Z" fill="#1D974F"/>
</g>
<path d="M88.9927 31.0291C83.142 27.6542 79.842 23.0789 79.8183 18.3017C79.7885 13.5244 83.0409 8.94914 88.85 5.57415C94.6591 2.19917 102.561 0.303711 110.808 0.303711C119.055 0.303711 126.975 2.19917 132.82 5.57415C138.664 8.94914 141.97 13.5244 142 18.3017C142.03 23.0789 138.777 27.6542 132.962 31.0291C127.153 34.4041 119.257 36.2996 111.01 36.2996C102.763 36.2996 94.8434 34.4041 88.9927 31.0291Z" fill="url(#paint0_linear_1_3207)"/>
<mask id="mask1_1_3207" style="mask-type:luminance" maskUnits="userSpaceOnUse" x="88" y="18" width="55" height="38">
<path d="M142 18.3018L141.947 37.6782C141.976 42.4555 138.724 47.0307 132.909 50.4057C127.1 53.7807 119.204 55.6762 110.957 55.6762C102.71 55.6762 94.7899 53.7807 88.9392 50.4057L88.9927 31.0293C94.8434 34.4042 102.763 36.2997 111.01 36.2997C119.257 36.2997 127.153 34.4042 132.962 31.0293C138.771 27.6543 142.024 23.079 142 18.3018Z" fill="white"/>
</mask>
<g mask="url(#mask1_1_3207)">
<path d="M142 18.3018L141.947 37.6782C141.952 39.1459 141.655 40.5897 141.067 41.992L141.12 22.6156C141.709 21.2133 142.012 19.7694 142 18.3018Z" fill="#1D974F"/>
<path d="M141.12 22.6157L141.067 41.9922C139.735 45.1533 136.94 48.0707 132.915 50.4059C127.106 53.7809 119.21 55.6763 110.963 55.6763C110.772 55.6763 110.582 55.6763 110.398 55.6763L110.451 36.2999C110.642 36.2999 110.832 36.2999 111.016 36.2999C119.263 36.2999 127.159 34.4044 132.968 31.0294C136.994 28.6883 139.794 25.7768 141.12 22.6157Z" fill="#1D974F"/>
<path d="M110.445 36.2939L110.392 55.6703C102.347 55.5872 94.6591 53.6976 88.9392 50.3999L88.9927 31.0234C94.7067 34.3212 102.401 36.2048 110.445 36.2939Z" fill="#1D974F"/>
</g>
<mask id="mask2_1_3207" style="mask-type:luminance" maskUnits="userSpaceOnUse" x="100" y="67" width="6" height="28">
<path d="M105.397 67.2983L105.344 86.6748C105.332 90.0557 103.673 92.9197 100.189 94.9459L100.242 75.5694C103.733 73.5432 105.391 70.6793 105.397 67.2983Z" fill="white"/>
</mask>
<g mask="url(#mask2_1_3207)">
<path d="M105.397 67.2983L105.344 86.6748C105.344 87.9107 105.118 89.0813 104.66 90.1686L104.714 70.7922C105.165 69.7107 105.391 68.5402 105.397 67.2983Z" fill="#36D068"/>
<path d="M104.714 70.7861L104.66 90.1626C103.875 92.0402 102.395 93.6564 100.183 94.9458L100.236 75.5693C102.448 74.2859 103.923 72.6638 104.714 70.7861Z" fill="#36D068"/>
</g>
<path d="M78.0345 37.3927C102.413 51.4571 112.342 68.54 100.236 75.5693L89.2781 81.933L1.05353 31.029L12.0117 24.6652C24.1175 17.636 53.6625 23.3283 78.0345 37.3927Z" fill="url(#paint1_linear_1_3207)"/>
<path d="M100.242 75.5693L100.183 94.9458L89.2305 101.304L89.284 81.9331L100.242 75.5693Z" fill="#36D068"/>
<path d="M89.284 81.9329L89.2305 101.303L1 50.3993L1.05351 31.0288L89.284 81.9329Z" fill="#1D974F"/>
<path d="M153.937 7.25087C153.937 7.25087 152.864 11.4199 152.874 12.4249C152.883 13.43 152.223 15.3138 154.94 16.4157C154.94 16.4157 158.097 17.5608 158.963 17.6578C158.963 17.6578 155.642 16.8493 154.729 16.85C153.816 16.8508 152.002 16.6182 150.796 20.3619L149.648 24.4742C149.648 24.4742 150.664 20.1175 150.722 19.2323C150.779 18.347 151.282 16.2391 148.415 15.2032L144.842 14.1101C144.842 14.1101 147.732 14.9167 149.477 14.8827C151.222 14.8486 152.499 12.8608 153.937 7.25087Z" fill="#33B568" stroke="#33B568" stroke-width="0.277825" stroke-miterlimit="10"/>
<path d="M16.752 57.8673C16.752 57.8673 16.2626 59.7689 16.267 60.2273C16.2715 60.6857 15.9704 61.545 17.2096 62.0476C17.2096 62.0476 18.6496 62.5699 19.0446 62.6141C19.0446 62.6141 17.5298 62.2453 17.1132 62.2457C16.6967 62.246 15.8697 62.1399 15.3194 63.8475L14.7959 65.7232C14.7959 65.7232 15.2594 63.7361 15.2855 63.3323C15.3117 62.9285 15.5409 61.967 14.2332 61.4945L12.6036 60.9959C12.6036 60.9959 13.9218 61.3639 14.7177 61.3483C15.5137 61.3328 16.0962 60.4261 16.752 57.8673Z" fill="#33B568" stroke="#33B568" stroke-width="0.277825" stroke-miterlimit="10"/>
<ellipse cx="1.6653" cy="6.31385" rx="0.912551" ry="0.911504" fill="#33B568"/>
<ellipse cx="130.674" cy="92.9148" rx="1.47465" ry="1.47296" fill="#33B568"/>
<ellipse cx="71.5211" cy="2.85292" rx="2.55214" ry="2.54921" fill="#33B568"/>
<defs>
<linearGradient id="paint0_linear_1_3207" x1="110.909" y1="0.303711" x2="110.909" y2="36.2996" gradientUnits="userSpaceOnUse">
<stop offset="0.1875" stop-color="#D4F938"/>
<stop offset="1" stop-color="#32D875" stop-opacity="0.96"/>
</linearGradient>
<linearGradient id="paint1_linear_1_3207" x1="53.2237" y1="21.6533" x2="53.2237" y2="81.933" gradientUnits="userSpaceOnUse">
<stop offset="0.1875" stop-color="#D4F938"/>
<stop offset="1" stop-color="#32D875" stop-opacity="0.96"/>
</linearGradient>
</defs>
</svg>
