<svg width="33" height="33" viewBox="0 0 33 33" fill="none" xmlns="http://www.w3.org/2000/svg">
<path d="M27.7933 3.15839H5.20667C4.95278 3.15486 4.70067 3.20139 4.46476 3.2953C4.22885 3.38922 4.01374 3.52868 3.83174 3.70574C3.64973 3.88279 3.50438 4.09397 3.404 4.3272C3.30361 4.56044 3.25015 4.81116 3.24667 5.06506V27.9184C3.25015 28.1723 3.30361 28.423 3.404 28.6562C3.50438 28.8895 3.64973 29.1007 3.83174 29.2777C4.01374 29.4548 4.22885 29.5942 4.46476 29.6881C4.70067 29.7821 4.95278 29.8286 5.20667 29.8251H27.7933C28.0472 29.8286 28.2993 29.7821 28.5353 29.6881C28.7712 29.5942 28.9863 29.4548 29.1683 29.2777C29.3503 29.1007 29.4956 28.8895 29.596 28.6562C29.6964 28.423 29.7499 28.1723 29.7533 27.9184V5.06506C29.7499 4.81116 29.6964 4.56044 29.596 4.3272C29.4956 4.09397 29.3503 3.88279 29.1683 3.70574C28.9863 3.52868 28.7712 3.38922 28.5353 3.2953C28.2993 3.20139 28.0472 3.15486 27.7933 3.15839ZM11.2867 25.4784H7.28667V13.4784H11.2867V25.4784ZM9.28667 11.7984C8.73502 11.7984 8.20597 11.5792 7.81589 11.1892C7.42582 10.7991 7.20667 10.27 7.20667 9.71839C7.20667 9.16674 7.42582 8.63768 7.81589 8.24761C8.20597 7.85753 8.73502 7.63839 9.28667 7.63839C9.5796 7.60517 9.87624 7.6342 10.1572 7.72357C10.4381 7.81294 10.697 7.96064 10.9169 8.15701C11.1368 8.35337 11.3127 8.59396 11.4332 8.86303C11.5536 9.1321 11.6159 9.42358 11.6159 9.71839C11.6159 10.0132 11.5536 10.3047 11.4332 10.5737C11.3127 10.8428 11.1368 11.0834 10.9169 11.2798C10.697 11.4761 10.4381 11.6238 10.1572 11.7132C9.87624 11.8026 9.5796 11.8316 9.28667 11.7984ZM25.7133 25.4784H21.7133V19.0384C21.7133 17.4251 21.14 16.3717 19.6867 16.3717C19.2369 16.375 18.7989 16.5161 18.4318 16.776C18.0647 17.0358 17.786 17.402 17.6333 17.8251C17.529 18.1384 17.4838 18.4685 17.5 18.7984V25.4651H13.5V13.4651H17.5V15.1584C17.8634 14.5279 18.3919 14.0084 19.0286 13.656C19.6653 13.3036 20.3861 13.1315 21.1133 13.1584C23.78 13.1584 25.7133 14.8784 25.7133 18.5717V25.4784Z" fill="#BBBBC3"/>
</svg>
