<svg width="687" height="414" viewBox="0 0 687 414" fill="none" xmlns="http://www.w3.org/2000/svg">
<path d="M1 413.813L5.5 355.313L9 358.813L12.5 345.313L15.5 347.813L18 366.313L22.5 285.813L26 282.313L29 284.313L32 276.813L35.5 287.813L36.5 271.313L40.5 273.313L43.5 270.313L45 272.313L49.5 245.313L52 280.813L57.5 246.313L60 256.313L66 260.813L71 282.813L74 264.813L77 274.813L80 319.813L83.5 327.313L86.5 318.313L88 320.813H91L94.5 305.313L96.5 224.813L99.5 254.813L103 215.813L105 213.813L107.5 226.313L111 206.313L120.5 239.813L122 266.813L125.5 268.313L128 252.813L131 256.313L133.5 268.313L137 249.813L139 257.313L142 298.313H145.5L148.5 295.813H151L153.5 305.313L159 379.813L162.5 385.813L165.5 369.313L173 209.313L176 223.813L179.5 199.813L182 119.813L185 135.313L188 101.313L190 108.813L193 96.3135L196 124.813L199 91.3135L201.5 118.813H204.5L207.5 102.313L210 129.813L213 124.813L216.5 91.3135L219 101.313L222 87.3135H224.5L230.5 108.813L233.5 96.3135H236.5L241.5 104.813L244 103.313L247.5 91.8135L249.5 51.3135L253 35.3135L256 45.8135L257.5 31.3135L261.5 28.3135L264 33.3135H267L269.5 59.3135L273 31.3135L274.5 77.8135L280.5 126.813L284.5 107.813L287.5 116.313L290 118.813L292.5 93.8135L295 89.8135L298 57.8135L304 64.8135H307L308.5 100.813L311.5 82.8135L315 71.3135L318.5 76.8135L321 55.3135L329 112.813L335.5 114.813L338 134.813L342.5 140.813L349.5 129.813L351.5 132.813L355.5 122.313L357.5 139.313L360 136.813L362.5 131.313L365.5 141.813L368.5 139.313L372 126.313L374.5 157.313L380.5 142.313L383.5 138.313L386 99.8135L389.5 110.813L392 112.813L394 126.313L396 139.313L400 126.313L403 132.313L406 130.813L409 175.813L411 126.813L414.5 153.813L418 150.813L423 170.313H430.5L434.5 195.813L439.5 155.313L443.5 150.813L444.5 155.313L454 42.8135L457 46.8135L461 21.3135L464.5 29.8135L470 35.3135L470.5 22.3135L474 40.3135L485.5 24.3135L488 9.31348L495.5 45.8135L498.5 32.8135L505.5 38.3135L510.5 24.3135L512.5 32.8135L515.5 0.313477L519.5 33.8135L527.5 37.3135L530.5 48.3135L534.5 45.8135L535.5 50.3135L539 45.8135L541.5 49.3135L545 40.3135L547 67.8135L552.5 61.8135L556 65.8135L561.5 60.3135L567 66.8135L570.5 50.8135L573.5 67.8135L576 66.8135L581.5 71.3135L588 66.8135L590 49.3135L597 60.3135H602L603.5 65.8135L607.5 60.3135L613 81.3135L618 164.813L623 161.313L629.5 166.813L632 152.313L639.5 166.813L645.5 163.313L649 110.813L653 124.813L654.5 168.313L658 175.313L664.5 168.313L666 173.313L672 174.313L674.5 159.313L678 171.313H681.5L685.5 177.313" stroke="url(#paint0_linear_1_2964)" stroke-width="2"/>
<defs>
<linearGradient id="paint0_linear_1_2964" x1="685" y1="-74.6865" x2="1.00004" y2="501.813" gradientUnits="userSpaceOnUse">
<stop stop-color="#D4F938"/>
<stop offset="1" stop-color="#33B568"/>
</linearGradient>
</defs>
</svg>
