<svg width="7" height="9" viewBox="0 0 7 9" fill="none" xmlns="http://www.w3.org/2000/svg">
<path d="M5.0446 0.573026C5.0446 0.573026 4.33732 2.51121 4.29468 2.99107C4.25204 3.47093 3.84897 4.33852 5.09151 4.99177C5.09151 4.99177 6.54185 5.68629 6.94988 5.77323C6.94988 5.77323 5.40558 5.23155 4.97046 5.18901C4.53533 5.14646 3.6824 4.95033 2.93151 6.67939L2.19118 8.58698C2.19118 8.58698 2.8803 6.55664 2.94924 6.13706C3.01817 5.71748 3.35682 4.73561 2.03951 4.10682L0.3887 3.41752C0.3887 3.41752 1.72767 3.93809 2.56074 4.00383C3.39381 4.06957 4.09578 3.18139 5.0446 0.573026Z" fill="#33B568" stroke="#33B568" stroke-width="0.275772" stroke-miterlimit="10"/>
</svg>
