<svg width="665" height="307" viewBox="0 0 665 307" fill="none" xmlns="http://www.w3.org/2000/svg">
<path d="M1 306.313L4 278.813L7 300.813L9 259.813L12.5 253.813L18.5 263.313L20 289.813L23.5 276.313L27 286.813L33.5 238.313L41.5 230.313L47.5 214.813V218.313L55 207.813L61.5 171.313L66 180.813L72.5 166.813L76 175.313L77.5 183.313L81 152.313L83.5 153.813L87 146.813H88.5L95.5 157.313L97.5 170.313L99.5 161.813L103 159.313L106 138.813L114.5 125.313L117 111.813L120 107.313L123 118.813H125.5L131.5 130.813L134 127.313L137 139.813H139.5L146.5 122.813L150.5 160.813L154 145.813L158 153.813L162 171.313L166.5 205.313L171 173.813L174 175.313L178 167.813L180.5 175.313L185.5 162.813L188.5 183.313L192 192.313L194.5 201.313L196.5 176.813L200.5 195.313L204 201.313L208 190.313L212 196.813L216 171.313L222.5 184.313L226 173.813H229L234 226.313L236.5 219.813H239.5L243 226.313H246L247.5 201.313L253 215.313L255 198.813L257.5 196.813L262 202.813L266.5 209.313L270.5 184.313L273.5 182.313L282.5 205.313L284.5 230.313L296 257.313L299.5 240.313L301.5 254.313L304.5 225.313L307 215.313L310 211.313L321 283.313L324 289.313H327.5L331 278.313L333.5 289.313L337.5 272.313L342.5 284.313L343.5 293.813L347 290.313L349.5 293.813L352.5 281.813L355.5 251.313L358.5 246.813L361 230.313L366.5 223.813L372 205.313L375.5 202.813L378 215.313L383.5 225.313H388.5L391.5 211.313L398 205.313L405.5 170.813L409 178.313L412 160.813L415 179.313L418 159.813H420.5L423 156.313L426 157.313L430 155.313L432.5 147.813L440.5 173.813L446.5 156.313L449 152.813L452.5 158.313L455 155.313L456 137.313L460 128.313L463 124.813L468 137.313L470 137.813L473.5 130.313L476 128.313L480.5 115.313L486.5 132.813L489 128.313L491.5 116.813L493.5 112.813L497 120.313L500 105.813L503 112.813L507.5 104.313L513 121.813L516.5 118.813L527.5 67.8135L530.5 55.3135L533.5 53.3135L537 44.8135L539.5 59.8135L543 55.3135L544.5 50.3135L548.5 54.8135L550.5 53.3135L557.5 24.3135L565.5 4.31348L568 22.3135L571 27.8135H573.5L575.5 19.8135L578.5 29.8135H582L585 22.3135H589L592 55.3135L596 44.8135L599.5 36.3135L601.5 38.3135L605.5 33.3135L610 50.3135H614L617 47.3135L622.5 63.3135L626 53.3135H628.5L631 49.3135L637 66.8135L641 58.8135H644L647.5 67.8135L651.5 42.8135L659.5 34.3135L663.5 17.3135" stroke="url(#paint0_linear_1_2994)" stroke-width="2"/>
<defs>
<linearGradient id="paint0_linear_1_2994" x1="663.016" y1="-50.4628" x2="159.219" y2="512.241" gradientUnits="userSpaceOnUse">
<stop stop-color="#D4F938"/>
<stop offset="1" stop-color="#33B568"/>
</linearGradient>
</defs>
</svg>
